{"glyphs":{"0":{"ha":799,"x_min":74,"x_max":724,"o":"m 399 -11 q 176 30 243 -11 q 92 165 110 71 q 74 478 74 260 q 92 790 74 696 q 176 926 110 885 q 399 967 243 967 q 622 926 556 967 q 706 791 689 885 q 724 478 724 697 q 706 165 724 258 q 622 30 689 71 q 399 -11 556 -11 m 399 142 q 505 158 478 142 q 540 237 532 175 q 547 478 547 299 q 540 719 547 657 q 505 797 532 781 q 399 814 478 814 q 293 797 321 814 q 258 718 265 781 q 250 478 250 656 q 258 238 250 300 q 293 158 265 175 q 399 142 321 142 z "},"1":{"ha":481,"x_min":32,"x_max":375,"o":"m 197 0 l 197 754 l 32 683 l 32 842 l 249 956 l 375 956 l 375 0 l 197 0 z "},"2":{"ha":739,"x_min":69,"x_max":668,"o":"m 243 154 l 668 154 l 668 0 l 69 0 l 69 122 q 78 306 69 246 q 115 403 86 365 q 208 471 143 442 l 324 525 q 403 561 350 536 q 460 594 442 579 q 484 632 478 610 q 490 694 490 654 q 475 774 490 750 q 426 806 460 799 q 318 814 392 814 q 85 797 231 814 l 85 939 q 221 959 140 951 q 371 967 301 967 q 529 949 467 967 q 630 875 592 932 q 668 707 668 818 q 653 573 668 624 q 607 491 638 522 q 524 438 576 460 l 308 339 q 276 322 288 329 q 258 303 265 314 q 247 263 250 288 q 243 192 243 239 l 243 154 z "},"3":{"ha":726,"x_min":56,"x_max":653,"o":"m 321 -11 q 186 -3 261 -11 q 56 15 111 4 l 56 156 q 296 142 192 142 q 403 149 368 142 q 456 184 439 157 q 474 271 474 211 q 461 356 474 326 q 420 396 449 385 q 340 407 392 407 l 190 407 l 190 560 l 340 560 q 411 569 385 560 q 451 606 438 578 q 465 686 465 633 q 449 772 465 746 q 398 806 433 799 q 285 814 363 814 q 60 799 179 814 l 60 940 q 187 959 113 951 q 322 967 261 967 q 512 940 442 967 q 613 860 582 914 q 643 717 643 806 q 608 561 643 614 q 499 490 572 508 l 499 485 q 615 416 578 467 q 653 254 653 365 q 624 107 653 164 q 523 19 596 50 q 321 -11 450 -11 z "},"4":{"ha":778,"x_min":44,"x_max":738,"o":"m 451 0 l 451 201 l 44 201 l 44 336 l 329 956 l 518 956 l 232 353 l 453 353 l 497 622 l 629 622 l 629 353 l 738 353 l 738 201 l 629 201 l 629 0 l 451 0 z "},"5":{"ha":749,"x_min":86,"x_max":682,"o":"m 86 156 q 322 142 222 142 q 437 154 399 142 q 489 198 475 167 q 503 292 503 229 q 487 389 503 358 q 433 429 471 419 q 314 439 394 439 q 94 424 219 439 l 94 956 l 625 956 l 625 801 l 257 801 l 257 581 q 333 588 286 585 q 411 592 379 592 q 578 559 519 592 q 660 465 638 526 q 682 308 682 404 q 655 122 682 190 q 556 22 628 54 q 351 -11 485 -11 q 217 -3 292 -11 q 86 15 142 4 l 86 156 z "},"6":{"ha":794,"x_min":74,"x_max":728,"o":"m 411 -11 q 256 1 314 -11 q 162 47 199 13 q 104 150 125 82 q 74 472 74 243 q 81 663 74 585 q 107 794 89 742 q 212 928 139 890 q 428 967 285 967 q 553 958 481 967 q 685 938 625 950 l 685 796 q 463 814 556 814 q 322 793 364 814 q 266 715 279 772 q 253 525 253 658 l 263 525 q 461 592 311 592 q 615 571 558 592 q 699 490 671 550 q 728 314 728 431 q 702 117 728 185 q 610 19 676 49 q 411 -11 543 -11 m 403 142 q 500 150 471 142 q 541 188 529 158 q 553 288 553 218 q 542 392 553 361 q 501 431 531 422 q 403 440 471 440 q 306 429 336 440 q 266 392 275 418 q 257 311 257 367 q 269 196 257 231 q 310 151 282 161 q 403 142 339 142 z "},"7":{"ha":689,"x_min":42,"x_max":644,"o":"m 132 0 l 454 801 l 42 801 l 42 956 l 644 956 l 644 818 l 325 0 l 132 0 z "},"8":{"ha":818,"x_min":74,"x_max":744,"o":"m 408 -11 q 203 18 276 -11 q 102 104 131 47 q 74 254 74 161 q 90 379 74 333 q 140 448 107 425 q 226 485 172 471 l 226 490 q 116 561 151 508 q 81 717 81 614 q 112 860 81 806 q 214 940 143 914 q 408 967 285 967 q 603 940 532 967 q 706 860 675 914 q 736 717 736 806 q 701 561 736 614 q 590 490 667 508 l 590 485 q 678 448 644 471 q 728 379 711 425 q 744 254 744 333 q 716 104 744 161 q 614 18 688 47 q 408 -11 540 -11 m 408 556 q 504 565 474 556 q 547 602 535 575 q 558 686 558 629 q 547 771 558 744 q 506 807 536 797 q 408 817 475 817 q 313 807 343 817 q 271 771 282 797 q 260 686 260 744 q 272 602 260 629 q 313 565 283 575 q 408 556 343 556 m 408 139 q 506 148 475 139 q 551 185 538 157 q 565 272 565 213 q 552 363 565 335 q 508 401 539 392 q 408 410 476 410 q 309 401 340 410 q 265 363 278 392 q 253 272 253 335 q 266 185 253 213 q 310 148 279 157 q 408 139 342 139 z "},"9":{"ha":794,"x_min":68,"x_max":721,"o":"m 367 -11 q 242 -3 315 -11 q 111 18 169 6 l 111 160 q 230 147 168 151 q 332 142 292 142 q 473 163 431 142 q 528 240 515 183 q 542 431 542 297 l 533 431 q 333 364 483 364 q 181 385 236 364 q 97 465 125 406 q 68 642 68 525 q 93 839 68 771 q 185 937 118 907 q 383 967 251 967 q 540 956 482 967 q 635 911 599 944 q 692 813 672 878 q 715 681 708 760 q 721 483 721 603 q 712 276 721 358 q 679 139 703 194 q 573 22 646 56 q 367 -11 500 -11 m 392 515 q 489 526 458 515 q 529 563 519 538 q 539 644 539 589 q 526 760 539 725 q 484 804 513 794 q 392 814 456 814 q 294 806 324 814 q 253 767 265 797 q 242 668 242 738 q 253 564 242 594 q 294 524 264 533 q 392 515 324 515 z "},"\u0000":{"ha":0,"x_min":0,"x_max":0,"o":""},"\r":{"ha":300,"x_min":0,"x_max":0,"o":""}," ":{"ha":300,"x_min":0,"x_max":0,"o":""},"A":{"ha":826,"x_min":19,"x_max":807,"o":"m 625 0 l 567 214 l 254 214 l 197 0 l 19 0 l 290 956 l 536 956 l 807 0 l 625 0 m 414 788 l 407 788 l 294 367 l 525 367 l 414 788 z "},"Á":{"ha":825,"x_min":19,"x_max":807,"o":"m 625 0 l 567 214 l 254 214 l 197 0 l 19 0 l 290 956 l 536 956 l 807 0 l 625 0 m 414 788 l 407 788 l 294 367 l 525 367 l 414 788 m 318 1042 l 318 1049 l 422 1242 l 592 1242 l 592 1235 l 446 1042 l 318 1042 z "},"Ă":{"ha":826,"x_min":19,"x_max":807,"o":"m 625 0 l 567 214 l 254 214 l 197 0 l 19 0 l 290 956 l 536 956 l 807 0 l 625 0 m 414 788 l 407 788 l 294 367 l 525 367 l 414 788 m 604 1233 q 591 1126 604 1167 q 536 1060 578 1085 q 413 1036 494 1036 q 290 1060 331 1036 q 236 1126 249 1085 q 224 1233 224 1167 l 325 1233 q 329 1176 325 1194 q 352 1146 333 1157 q 413 1135 371 1135 q 473 1146 454 1135 q 497 1176 492 1157 q 501 1233 501 1196 l 604 1233 z "},"Ắ":{"ha":826,"x_min":19,"x_max":807,"o":"m 625 0 l 567 214 l 254 214 l 197 0 l 19 0 l 290 956 l 536 956 l 807 0 l 625 0 m 414 788 l 407 788 l 294 367 l 525 367 l 414 788 m 604 1233 q 591 1126 604 1167 q 536 1060 578 1085 q 413 1036 494 1036 q 290 1060 331 1036 q 236 1126 249 1085 q 224 1233 224 1167 l 325 1233 q 329 1176 325 1194 q 352 1146 333 1157 q 413 1135 371 1135 q 473 1146 454 1135 q 497 1176 492 1157 q 501 1233 501 1196 l 604 1233 m 342 1274 l 342 1281 l 446 1474 l 615 1474 l 615 1467 l 469 1274 l 342 1274 z "},"Ặ":{"ha":826,"x_min":19,"x_max":807,"o":"m 625 0 l 567 214 l 254 214 l 197 0 l 19 0 l 290 956 l 536 956 l 807 0 l 625 0 m 414 788 l 407 788 l 294 367 l 525 367 l 414 788 m 321 -260 l 321 -86 l 506 -86 l 506 -260 l 321 -260 m 604 1233 q 591 1126 604 1167 q 536 1060 578 1085 q 413 1036 494 1036 q 290 1060 331 1036 q 236 1126 249 1085 q 224 1233 224 1167 l 325 1233 q 329 1176 325 1194 q 352 1146 333 1157 q 413 1135 371 1135 q 473 1146 454 1135 q 497 1176 492 1157 q 501 1233 501 1196 l 604 1233 z "},"Ằ":{"ha":826,"x_min":19,"x_max":807,"o":"m 625 0 l 567 214 l 254 214 l 197 0 l 19 0 l 290 956 l 536 956 l 807 0 l 625 0 m 414 788 l 407 788 l 294 367 l 525 367 l 414 788 m 610 1233 q 597 1126 610 1167 q 542 1060 583 1085 q 418 1036 500 1036 q 295 1060 336 1036 q 242 1126 254 1085 q 229 1233 229 1167 l 331 1233 q 335 1176 331 1194 q 358 1146 339 1157 q 418 1135 376 1135 q 478 1146 460 1135 q 502 1176 497 1157 q 507 1233 507 1196 l 610 1233 m 364 1274 l 218 1467 l 218 1474 l 388 1474 l 492 1281 l 492 1274 l 364 1274 z "},"Ẳ":{"ha":826,"x_min":19,"x_max":807,"o":"m 625 0 l 567 214 l 254 214 l 197 0 l 19 0 l 290 956 l 536 956 l 807 0 l 625 0 m 414 788 l 407 788 l 294 367 l 525 367 l 414 788 m 601 1233 q 588 1126 601 1167 q 533 1060 575 1085 q 410 1036 492 1036 q 287 1060 328 1036 q 233 1126 246 1085 q 221 1233 221 1167 l 322 1233 q 326 1176 322 1194 q 349 1146 331 1157 q 410 1135 368 1135 q 470 1146 451 1135 q 494 1176 489 1157 q 499 1233 499 1196 l 601 1233 m 342 1253 q 354 1309 342 1293 q 403 1338 367 1325 l 426 1346 q 469 1365 458 1356 q 479 1390 479 1374 q 464 1420 479 1414 q 400 1426 449 1426 q 261 1418 325 1426 l 261 1511 q 417 1525 344 1525 q 551 1500 507 1525 q 594 1403 594 1475 q 578 1333 594 1356 q 515 1292 561 1310 l 489 1282 q 449 1262 456 1269 q 442 1235 442 1254 l 342 1235 l 342 1253 z "},"Ẵ":{"ha":826,"x_min":19,"x_max":807,"o":"m 625 0 l 567 214 l 254 214 l 197 0 l 19 0 l 290 956 l 536 956 l 807 0 l 625 0 m 414 788 l 407 788 l 294 367 l 525 367 l 414 788 m 601 1233 q 588 1126 601 1167 q 533 1060 575 1085 q 410 1036 492 1036 q 287 1060 328 1036 q 233 1126 246 1085 q 221 1233 221 1167 l 322 1233 q 326 1176 322 1194 q 349 1146 331 1157 q 410 1135 368 1135 q 470 1146 451 1135 q 494 1176 489 1157 q 499 1233 499 1196 l 601 1233 m 651 1489 q 645 1385 651 1421 q 616 1331 639 1350 q 543 1311 593 1311 q 478 1318 511 1311 q 400 1338 446 1325 q 356 1349 388 1340 q 303 1358 324 1358 q 274 1347 279 1358 q 269 1296 269 1335 l 175 1296 q 181 1399 175 1364 q 211 1454 188 1435 q 285 1474 235 1474 q 429 1447 335 1474 q 482 1434 456 1440 q 526 1428 508 1428 q 553 1440 549 1428 q 558 1489 558 1451 l 651 1489 z "},"Ǎ":{"ha":826,"x_min":19,"x_max":807,"o":"m 625 0 l 567 214 l 254 214 l 197 0 l 19 0 l 290 956 l 536 956 l 807 0 l 625 0 m 414 788 l 407 788 l 294 367 l 525 367 l 414 788 m 329 1040 l 210 1224 l 210 1233 l 322 1233 l 413 1119 l 504 1233 l 618 1233 l 618 1224 l 496 1040 l 329 1040 z "},"Â":{"ha":825,"x_min":19,"x_max":807,"o":"m 625 0 l 567 214 l 254 214 l 197 0 l 19 0 l 290 956 l 536 956 l 807 0 l 625 0 m 414 788 l 407 788 l 294 367 l 525 367 l 414 788 m 208 1042 l 208 1053 l 328 1235 l 496 1235 l 617 1053 l 617 1042 l 503 1042 l 411 1157 l 321 1042 l 208 1042 z "},"Ấ":{"ha":826,"x_min":19,"x_max":807,"o":"m 625 0 l 567 214 l 254 214 l 197 0 l 19 0 l 290 956 l 536 956 l 807 0 l 625 0 m 414 788 l 407 788 l 294 367 l 525 367 l 414 788 m 208 1029 l 208 1040 l 328 1222 l 496 1222 l 617 1040 l 617 1029 l 503 1029 l 411 1144 l 321 1029 l 208 1029 m 443 1263 l 443 1269 l 547 1463 l 717 1463 l 717 1456 l 571 1263 l 443 1263 z "},"Ậ":{"ha":826,"x_min":19,"x_max":807,"o":"m 625 0 l 567 214 l 254 214 l 197 0 l 19 0 l 290 956 l 536 956 l 807 0 l 625 0 m 414 788 l 407 788 l 294 367 l 525 367 l 414 788 m 321 -260 l 321 -86 l 506 -86 l 506 -260 l 321 -260 m 210 1040 l 210 1051 l 329 1233 l 497 1233 l 618 1051 l 618 1040 l 504 1040 l 413 1156 l 322 1040 l 210 1040 z "},"Ầ":{"ha":826,"x_min":19,"x_max":807,"o":"m 625 0 l 567 214 l 254 214 l 197 0 l 19 0 l 290 956 l 536 956 l 807 0 l 625 0 m 414 788 l 407 788 l 294 367 l 525 367 l 414 788 m 206 1019 l 206 1031 l 325 1213 l 493 1213 l 614 1031 l 614 1019 l 500 1019 l 408 1135 l 318 1019 l 206 1019 m 490 1253 l 344 1446 l 344 1453 l 514 1453 l 618 1260 l 618 1253 l 490 1253 z "},"Ẩ":{"ha":826,"x_min":19,"x_max":807,"o":"m 625 0 l 567 214 l 254 214 l 197 0 l 19 0 l 290 956 l 536 956 l 807 0 l 625 0 m 414 788 l 407 788 l 294 367 l 525 367 l 414 788 m 210 1019 l 210 1031 l 329 1213 l 497 1213 l 618 1031 l 618 1019 l 504 1019 l 413 1135 l 322 1019 l 210 1019 m 458 1257 q 471 1313 458 1297 q 519 1342 483 1329 l 543 1350 q 585 1369 575 1360 q 596 1394 596 1378 q 581 1424 596 1418 q 517 1431 565 1431 q 378 1422 442 1431 l 378 1515 q 533 1529 461 1529 q 667 1504 624 1529 q 711 1407 711 1479 q 694 1337 711 1360 q 632 1296 678 1314 l 606 1286 q 565 1266 572 1274 q 558 1239 558 1258 l 458 1239 l 458 1257 z "},"Ẫ":{"ha":826,"x_min":19,"x_max":807,"o":"m 625 0 l 567 214 l 254 214 l 197 0 l 19 0 l 290 956 l 536 956 l 807 0 l 625 0 m 414 788 l 407 788 l 294 367 l 525 367 l 414 788 m 207 1019 l 207 1031 l 326 1213 l 494 1213 l 615 1031 l 615 1019 l 501 1019 l 410 1135 l 319 1019 l 207 1019 m 651 1453 q 645 1349 651 1385 q 616 1294 639 1314 q 543 1275 593 1275 q 478 1282 511 1275 q 400 1301 446 1289 q 356 1313 388 1304 q 303 1322 324 1322 q 274 1310 279 1322 q 269 1260 269 1299 l 175 1260 q 181 1363 175 1328 q 211 1418 188 1399 q 285 1438 235 1438 q 429 1411 335 1438 q 482 1398 456 1404 q 526 1392 508 1392 q 553 1403 549 1392 q 558 1453 558 1415 l 651 1453 z "},"Ȁ":{"ha":826,"x_min":19,"x_max":807,"o":"m 625 0 l 567 214 l 254 214 l 197 0 l 19 0 l 290 956 l 536 956 l 807 0 l 625 0 m 414 788 l 407 788 l 294 367 l 525 367 l 414 788 m 363 1047 l 256 1047 l 129 1214 l 129 1221 l 269 1221 l 363 1053 l 363 1047 m 596 1047 l 490 1047 l 363 1214 l 363 1221 l 504 1221 l 596 1053 l 596 1047 z "},"Ä":{"ha":825,"x_min":19,"x_max":807,"o":"m 625 0 l 567 214 l 254 214 l 197 0 l 19 0 l 290 956 l 536 956 l 807 0 l 625 0 m 414 788 l 407 788 l 294 367 l 525 367 l 414 788 m 210 1082 l 210 1218 l 356 1218 l 356 1082 l 210 1082 m 469 1082 l 469 1218 l 614 1218 l 614 1082 l 469 1082 z "},"Ạ":{"ha":826,"x_min":19,"x_max":807,"o":"m 625 0 l 567 214 l 254 214 l 197 0 l 19 0 l 290 956 l 536 956 l 807 0 l 625 0 m 414 788 l 407 788 l 294 367 l 525 367 l 414 788 m 321 -260 l 321 -86 l 506 -86 l 506 -260 l 321 -260 z "},"À":{"ha":825,"x_min":19,"x_max":807,"o":"m 625 0 l 567 214 l 254 214 l 197 0 l 19 0 l 290 956 l 536 956 l 807 0 l 625 0 m 414 788 l 407 788 l 294 367 l 525 367 l 414 788 m 376 1042 l 231 1235 l 231 1242 l 400 1242 l 504 1049 l 504 1042 l 376 1042 z "},"Ả":{"ha":826,"x_min":19,"x_max":807,"o":"m 625 0 l 567 214 l 254 214 l 197 0 l 19 0 l 290 956 l 536 956 l 807 0 l 625 0 m 414 788 l 407 788 l 294 367 l 525 367 l 414 788 m 328 1029 q 340 1084 328 1068 q 389 1113 353 1100 l 413 1121 q 456 1140 446 1132 q 465 1167 465 1149 q 450 1195 465 1189 q 386 1201 435 1201 q 247 1194 319 1201 l 247 1286 q 403 1300 331 1300 q 538 1276 494 1300 q 581 1178 581 1251 q 564 1108 581 1131 q 501 1068 547 1085 l 475 1057 q 435 1038 442 1044 q 428 1010 428 1031 l 328 1010 l 328 1029 z "},"Ȃ":{"ha":826,"x_min":19,"x_max":807,"o":"m 625 0 l 567 214 l 254 214 l 197 0 l 19 0 l 290 956 l 536 956 l 807 0 l 625 0 m 414 788 l 407 788 l 294 367 l 525 367 l 414 788 m 224 1044 q 237 1152 224 1111 q 292 1217 250 1193 q 415 1242 333 1242 q 538 1217 497 1242 q 592 1152 579 1193 q 604 1044 604 1111 l 503 1044 q 499 1102 503 1083 q 476 1132 494 1121 q 415 1143 457 1143 q 355 1132 374 1143 q 331 1101 336 1121 q 326 1044 326 1082 l 224 1044 z "},"Ā":{"ha":826,"x_min":19,"x_max":807,"o":"m 625 0 l 567 214 l 254 214 l 197 0 l 19 0 l 290 956 l 536 956 l 807 0 l 625 0 m 414 788 l 407 788 l 294 367 l 525 367 l 414 788 m 253 1085 l 253 1233 l 574 1233 l 574 1085 l 253 1085 z "},"Ą":{"ha":825,"x_min":19,"x_max":807,"o":"m 683 -124 q 697 -162 683 -149 q 744 -175 711 -175 l 765 -174 l 765 -268 q 693 -272 722 -272 q 546 -158 546 -272 q 567 -77 546 -119 q 625 1 589 -35 l 567 214 l 254 214 l 197 0 l 19 0 l 290 956 l 536 956 l 807 0 l 757 0 q 706 -58 729 -24 q 683 -124 683 -93 m 294 365 l 525 365 l 414 788 l 406 788 l 294 365 z "},"Å":{"ha":826,"x_min":19,"x_max":807,"o":"m 807 0 l 625 0 l 567 214 l 254 214 l 197 0 l 19 0 l 290 954 q 241 998 251 968 q 231 1090 231 1028 q 240 1183 231 1153 q 288 1230 250 1214 q 411 1246 326 1246 q 536 1230 497 1246 q 585 1183 575 1214 q 596 1090 596 1151 q 585 999 596 1029 q 536 954 575 968 l 807 0 m 411 1165 q 356 1159 372 1165 q 335 1139 339 1153 q 332 1090 332 1125 q 335 1043 332 1057 q 356 1023 339 1029 q 411 1017 372 1017 q 469 1023 453 1017 q 490 1043 486 1029 q 494 1090 494 1057 q 490 1139 494 1125 q 469 1159 486 1153 q 411 1165 453 1165 m 294 367 l 525 367 l 414 788 l 407 788 l 294 367 z "},"Ǻ":{"ha":826,"x_min":19,"x_max":807,"o":"m 807 0 l 625 0 l 567 214 l 254 214 l 197 0 l 19 0 l 290 954 q 241 998 251 968 q 231 1090 231 1028 q 240 1183 231 1153 q 288 1230 250 1214 q 411 1246 326 1246 q 536 1230 497 1246 q 585 1183 575 1214 q 596 1090 596 1151 q 585 999 596 1029 q 536 954 575 968 l 807 0 m 411 1165 q 356 1159 372 1165 q 335 1139 339 1153 q 332 1090 332 1125 q 335 1043 332 1057 q 356 1023 339 1029 q 411 1017 372 1017 q 469 1023 453 1017 q 490 1043 486 1029 q 494 1090 494 1057 q 490 1139 494 1125 q 469 1159 486 1153 q 411 1165 453 1165 m 294 367 l 525 367 l 414 788 l 407 788 l 294 367 m 338 1324 l 338 1331 l 442 1524 l 611 1524 l 611 1517 l 465 1324 l 338 1324 z "},"Ã":{"ha":825,"x_min":19,"x_max":807,"o":"m 625 0 l 567 214 l 254 214 l 197 0 l 19 0 l 290 956 l 536 956 l 807 0 l 625 0 m 414 788 l 407 788 l 294 367 l 525 367 l 414 788 m 650 1236 q 644 1133 650 1168 q 615 1078 638 1097 q 542 1058 592 1058 q 477 1065 510 1058 q 399 1085 444 1072 q 354 1097 386 1088 q 301 1106 322 1106 q 273 1094 278 1106 q 268 1043 268 1082 l 174 1043 q 180 1147 174 1111 q 210 1201 186 1182 q 283 1221 233 1221 q 428 1194 333 1221 q 481 1181 454 1188 q 525 1175 507 1175 q 552 1187 547 1175 q 557 1236 557 1199 l 650 1236 z "},"Æ":{"ha":1147,"x_min":-17,"x_max":1082,"o":"m 588 0 l 551 214 l 240 214 l 160 0 l -17 0 l 347 956 l 1082 956 l 1082 803 l 625 803 l 668 558 l 1029 558 l 1029 406 l 696 406 l 742 153 l 1082 153 l 1082 0 l 588 0 m 454 788 l 447 788 l 294 367 l 525 367 l 454 788 z "},"Ǽ":{"ha":1147,"x_min":-17,"x_max":1082,"o":"m 588 0 l 551 214 l 240 214 l 160 0 l -17 0 l 347 956 l 1082 956 l 1082 803 l 625 803 l 668 558 l 1029 558 l 1029 406 l 696 406 l 742 153 l 1082 153 l 1082 0 l 588 0 m 454 788 l 447 788 l 294 367 l 525 367 l 454 788 m 500 1033 l 500 1040 l 604 1233 l 774 1233 l 774 1226 l 628 1033 l 500 1033 z "},"B":{"ha":815,"x_min":100,"x_max":749,"o":"m 100 956 l 493 956 q 679 895 619 956 q 739 715 739 835 q 703 562 739 615 q 592 490 668 508 l 592 485 q 713 413 678 467 q 749 254 749 360 q 690 65 749 131 q 493 0 632 0 l 100 0 l 100 956 m 436 560 q 534 585 507 560 q 561 681 561 611 q 551 757 561 732 q 515 792 542 782 q 436 803 489 803 l 276 803 l 276 560 l 436 560 m 443 153 q 522 163 496 153 q 559 200 549 174 q 569 278 569 226 q 558 358 569 331 q 521 396 547 385 q 443 407 494 407 l 276 407 l 276 153 l 443 153 z "},"C":{"ha":678,"x_min":75,"x_max":622,"o":"m 622 11 q 528 -5 585 1 q 421 -11 471 -11 q 195 31 267 -11 q 99 172 124 72 q 75 478 75 272 q 99 783 75 683 q 196 924 124 882 q 421 967 268 967 q 529 960 474 967 q 618 943 585 953 l 618 801 q 461 814 513 814 q 317 794 357 814 q 265 709 276 774 q 253 478 253 644 q 265 247 253 311 q 317 162 276 182 q 461 142 357 142 q 622 154 542 142 l 622 11 z "},"Ć":{"ha":678,"x_min":75,"x_max":622,"o":"m 622 11 q 528 -5 585 1 q 421 -11 471 -11 q 195 31 267 -11 q 99 172 124 72 q 75 478 75 272 q 99 783 75 683 q 196 924 124 882 q 421 967 268 967 q 529 960 474 967 q 618 943 585 953 l 618 801 q 461 814 513 814 q 317 794 357 814 q 265 709 276 774 q 253 478 253 644 q 265 247 253 311 q 317 162 276 182 q 461 142 357 142 q 622 154 542 142 l 622 11 m 265 1033 l 265 1040 l 369 1233 l 539 1233 l 539 1226 l 393 1033 l 265 1033 z "},"Č":{"ha":678,"x_min":75,"x_max":622,"o":"m 622 11 q 528 -5 585 1 q 421 -11 471 -11 q 195 31 267 -11 q 99 172 124 72 q 75 478 75 272 q 99 783 75 683 q 196 924 124 882 q 421 967 268 967 q 529 960 474 967 q 618 943 585 953 l 618 801 q 461 814 513 814 q 317 794 357 814 q 265 709 276 774 q 253 478 253 644 q 265 247 253 311 q 317 162 276 182 q 461 142 357 142 q 622 154 542 142 l 622 11 m 254 1040 l 135 1224 l 135 1233 l 247 1233 l 338 1119 l 429 1233 l 543 1233 l 543 1224 l 421 1040 l 254 1040 z "},"Ç":{"ha":678,"x_min":75,"x_max":622,"o":"m 461 142 q 622 154 542 142 l 622 11 q 528 -5 585 1 q 421 -11 471 -11 l 394 -11 l 346 -264 l 192 -264 l 192 -257 l 281 0 q 149 69 193 18 q 90 215 106 121 q 75 478 75 308 q 99 783 75 683 q 196 924 124 882 q 421 967 268 967 q 529 960 474 967 q 618 943 585 953 l 618 801 q 461 814 513 814 q 317 794 357 814 q 265 709 276 774 q 253 478 253 644 q 265 247 253 311 q 317 162 276 182 q 461 142 357 142 z "},"Ĉ":{"ha":678,"x_min":75,"x_max":622,"o":"m 622 11 q 528 -5 585 1 q 421 -11 471 -11 q 195 31 267 -11 q 99 172 124 72 q 75 478 75 272 q 99 783 75 683 q 196 924 124 882 q 421 967 268 967 q 529 960 474 967 q 618 943 585 953 l 618 801 q 461 814 513 814 q 317 794 357 814 q 265 709 276 774 q 253 478 253 644 q 265 247 253 311 q 317 162 276 182 q 461 142 357 142 q 622 154 542 142 l 622 11 m 135 1040 l 135 1051 l 254 1233 l 422 1233 l 543 1051 l 543 1040 l 429 1040 l 338 1156 l 247 1040 l 135 1040 z "},"Ċ":{"ha":678,"x_min":75,"x_max":622,"o":"m 622 11 q 528 -5 585 1 q 421 -11 471 -11 q 195 31 267 -11 q 99 172 124 72 q 75 478 75 272 q 99 783 75 683 q 196 924 124 882 q 421 967 268 967 q 529 960 474 967 q 618 943 585 953 l 618 801 q 461 814 513 814 q 317 794 357 814 q 265 709 276 774 q 253 478 253 644 q 265 247 253 311 q 317 162 276 182 q 461 142 357 142 q 622 154 542 142 l 622 11 m 267 1079 l 267 1215 l 411 1215 l 411 1079 l 267 1079 z "},"D":{"ha":825,"x_min":100,"x_max":750,"o":"m 100 956 l 388 956 q 638 916 564 956 q 731 785 713 876 q 750 478 750 694 q 731 170 750 261 q 638 40 713 79 q 388 0 564 0 l 100 0 l 100 956 m 379 153 q 516 168 481 153 q 562 244 551 183 q 572 478 572 306 q 562 711 572 650 q 516 788 551 772 q 379 803 481 803 l 276 803 l 276 153 l 379 153 z "},"Ǳ":{"ha":1556,"x_min":100,"x_max":1503,"o":"m 100 956 l 388 956 q 638 916 564 956 q 731 785 713 876 q 750 478 750 694 q 731 170 750 261 q 638 40 713 79 q 388 0 564 0 l 100 0 l 100 956 m 379 153 q 516 168 481 153 q 562 244 551 183 q 572 478 572 306 q 562 711 572 650 q 516 788 551 772 q 379 803 481 803 l 276 803 l 276 153 l 379 153 m 879 0 l 879 146 l 1285 803 l 893 803 l 893 956 l 1499 956 l 1499 813 l 1090 153 l 1503 153 l 1503 0 l 879 0 z "},"Ǆ":{"ha":1556,"x_min":100,"x_max":1503,"o":"m 100 956 l 388 956 q 638 916 564 956 q 731 785 713 876 q 750 478 750 694 q 731 170 750 261 q 638 40 713 79 q 388 0 564 0 l 100 0 l 100 956 m 379 153 q 516 168 481 153 q 562 244 551 183 q 572 478 572 306 q 562 711 572 650 q 516 788 551 772 q 379 803 481 803 l 276 803 l 276 153 l 379 153 m 879 0 l 879 146 l 1285 803 l 893 803 l 893 956 l 1499 956 l 1499 813 l 1090 153 l 1503 153 l 1503 0 l 879 0 m 1106 1040 l 986 1224 l 986 1233 l 1099 1233 l 1189 1119 l 1281 1233 l 1394 1233 l 1394 1224 l 1272 1040 l 1106 1040 z "},"Ð":{"ha":826,"x_min":18,"x_max":750,"o":"m 100 411 l 18 411 l 18 554 l 100 554 l 100 956 l 388 956 q 638 916 564 956 q 731 785 713 876 q 750 478 750 694 q 731 170 750 261 q 638 40 713 79 q 388 0 564 0 l 100 0 l 100 411 m 379 153 q 516 168 481 153 q 562 244 551 183 q 572 478 572 306 q 562 711 572 650 q 516 788 551 772 q 379 803 481 803 l 276 803 l 276 554 l 390 554 l 390 411 l 276 411 l 276 153 l 379 153 z "},"Ď":{"ha":825,"x_min":100,"x_max":750,"o":"m 100 956 l 388 956 q 638 916 564 956 q 731 785 713 876 q 750 478 750 694 q 731 170 750 261 q 638 40 713 79 q 388 0 564 0 l 100 0 l 100 956 m 379 153 q 516 168 481 153 q 562 244 551 183 q 572 478 572 306 q 562 711 572 650 q 516 788 551 772 q 379 803 481 803 l 276 803 l 276 153 l 379 153 m 329 1040 l 210 1224 l 210 1233 l 322 1233 l 413 1119 l 504 1233 l 618 1233 l 618 1224 l 496 1040 l 329 1040 z "},"Đ":{"ha":826,"x_min":18,"x_max":750,"o":"m 100 411 l 18 411 l 18 554 l 100 554 l 100 956 l 388 956 q 638 916 564 956 q 731 785 713 876 q 750 478 750 694 q 731 170 750 261 q 638 40 713 79 q 388 0 564 0 l 100 0 l 100 411 m 379 153 q 516 168 481 153 q 562 244 551 183 q 572 478 572 306 q 562 711 572 650 q 516 788 551 772 q 379 803 481 803 l 276 803 l 276 554 l 390 554 l 390 411 l 276 411 l 276 153 l 379 153 z "},"Ḍ":{"ha":825,"x_min":100,"x_max":750,"o":"m 100 956 l 388 956 q 638 916 564 956 q 731 785 713 876 q 750 478 750 694 q 731 170 750 261 q 638 40 713 79 q 388 0 564 0 l 100 0 l 100 956 m 379 153 q 516 168 481 153 q 562 244 551 183 q 572 478 572 306 q 562 711 572 650 q 516 788 551 772 q 379 803 481 803 l 276 803 l 276 153 l 379 153 m 321 -260 l 321 -86 l 506 -86 l 506 -260 l 321 -260 z "},"ǲ":{"ha":1458,"x_min":100,"x_max":1401,"o":"m 100 956 l 388 956 q 638 916 564 956 q 731 785 713 876 q 750 478 750 694 q 731 170 750 261 q 638 40 713 79 q 388 0 564 0 l 100 0 l 100 956 m 379 153 q 516 168 481 153 q 562 244 551 183 q 572 478 572 306 q 562 711 572 650 q 516 788 551 772 q 379 803 481 803 l 276 803 l 276 153 l 379 153 m 883 0 l 883 131 l 1193 568 l 896 568 l 896 708 l 1399 708 l 1399 579 l 1088 140 l 1401 140 l 1401 0 l 883 0 z "},"ǅ":{"ha":1458,"x_min":100,"x_max":1401,"o":"m 100 956 l 388 956 q 638 916 564 956 q 731 785 713 876 q 750 478 750 694 q 731 170 750 261 q 638 40 713 79 q 388 0 564 0 l 100 0 l 100 956 m 379 153 q 516 168 481 153 q 562 244 551 183 q 572 478 572 306 q 562 711 572 650 q 516 788 551 772 q 379 803 481 803 l 276 803 l 276 153 l 379 153 m 883 0 l 883 131 l 1193 568 l 896 568 l 896 708 l 1399 708 l 1399 579 l 1088 140 l 1401 140 l 1401 0 l 883 0 m 1064 839 l 944 1022 l 944 1032 l 1057 1032 l 1147 918 l 1239 1032 l 1353 1032 l 1353 1022 l 1231 839 l 1064 839 z "},"E":{"ha":722,"x_min":100,"x_max":658,"o":"m 100 0 l 100 956 l 658 956 l 658 803 l 276 803 l 276 560 l 606 560 l 606 406 l 276 406 l 276 153 l 658 153 l 658 0 l 100 0 z "},"É":{"ha":721,"x_min":100,"x_max":658,"o":"m 100 0 l 100 956 l 658 956 l 658 803 l 276 803 l 276 560 l 606 560 l 606 406 l 276 406 l 276 153 l 658 153 l 658 0 l 100 0 m 318 1042 l 318 1049 l 422 1242 l 592 1242 l 592 1235 l 446 1042 l 318 1042 z "},"Ĕ":{"ha":722,"x_min":100,"x_max":658,"o":"m 100 0 l 100 956 l 658 956 l 658 803 l 276 803 l 276 560 l 606 560 l 606 406 l 276 406 l 276 153 l 658 153 l 658 0 l 100 0 m 568 1233 q 555 1126 568 1167 q 500 1060 542 1085 q 376 1036 458 1036 q 253 1060 294 1036 q 200 1126 213 1085 q 188 1233 188 1167 l 289 1233 q 293 1176 289 1194 q 316 1146 297 1157 q 376 1135 335 1135 q 437 1146 418 1135 q 460 1176 456 1157 q 465 1233 465 1196 l 568 1233 z "},"Ě":{"ha":722,"x_min":100,"x_max":658,"o":"m 100 0 l 100 956 l 658 956 l 658 803 l 276 803 l 276 560 l 606 560 l 606 406 l 276 406 l 276 153 l 658 153 l 658 0 l 100 0 m 293 1040 l 174 1224 l 174 1233 l 286 1233 l 376 1119 l 468 1233 l 582 1233 l 582 1224 l 460 1040 l 293 1040 z "},"Ê":{"ha":721,"x_min":100,"x_max":658,"o":"m 100 0 l 100 956 l 658 956 l 658 803 l 276 803 l 276 560 l 606 560 l 606 406 l 276 406 l 276 153 l 658 153 l 658 0 l 100 0 m 169 1042 l 169 1053 l 289 1235 l 457 1235 l 578 1053 l 578 1042 l 464 1042 l 372 1157 l 282 1042 l 169 1042 z "},"Ế":{"ha":722,"x_min":100,"x_max":681,"o":"m 100 0 l 100 956 l 658 956 l 658 803 l 276 803 l 276 560 l 606 560 l 606 406 l 276 406 l 276 153 l 658 153 l 658 0 l 100 0 m 172 1029 l 172 1040 l 292 1222 l 460 1222 l 581 1040 l 581 1029 l 467 1029 l 375 1144 l 285 1029 l 172 1029 m 407 1263 l 407 1269 l 511 1463 l 681 1463 l 681 1456 l 535 1263 l 407 1263 z "},"Ệ":{"ha":722,"x_min":100,"x_max":658,"o":"m 100 0 l 100 956 l 658 956 l 658 803 l 276 803 l 276 560 l 606 560 l 606 406 l 276 406 l 276 153 l 658 153 l 658 0 l 100 0 m 285 -260 l 285 -86 l 469 -86 l 469 -260 l 285 -260 m 174 1040 l 174 1051 l 293 1233 l 461 1233 l 582 1051 l 582 1040 l 468 1040 l 376 1156 l 286 1040 l 174 1040 z "},"Ề":{"ha":722,"x_min":100,"x_max":658,"o":"m 100 0 l 100 956 l 658 956 l 658 803 l 276 803 l 276 560 l 606 560 l 606 406 l 276 406 l 276 153 l 658 153 l 658 0 l 100 0 m 169 1019 l 169 1031 l 289 1213 l 457 1213 l 578 1031 l 578 1019 l 464 1019 l 372 1135 l 282 1019 l 169 1019 m 454 1253 l 308 1446 l 308 1453 l 478 1453 l 582 1260 l 582 1253 l 454 1253 z "},"Ể":{"ha":722,"x_min":100,"x_max":675,"o":"m 100 0 l 100 956 l 658 956 l 658 803 l 276 803 l 276 560 l 606 560 l 606 406 l 276 406 l 276 153 l 658 153 l 658 0 l 100 0 m 174 1019 l 174 1031 l 293 1213 l 461 1213 l 582 1031 l 582 1019 l 468 1019 l 376 1135 l 286 1019 l 174 1019 m 422 1257 q 435 1313 422 1297 q 483 1342 447 1329 l 507 1350 q 549 1369 539 1360 q 560 1394 560 1378 q 544 1424 560 1418 q 481 1431 529 1431 q 342 1422 406 1431 l 342 1515 q 497 1529 425 1529 q 631 1504 588 1529 q 675 1407 675 1479 q 658 1337 675 1360 q 596 1296 642 1314 l 569 1286 q 529 1266 536 1274 q 522 1239 522 1258 l 422 1239 l 422 1257 z "},"Ễ":{"ha":722,"x_min":100,"x_max":658,"o":"m 100 0 l 100 956 l 658 956 l 658 803 l 276 803 l 276 560 l 606 560 l 606 406 l 276 406 l 276 153 l 658 153 l 658 0 l 100 0 m 171 1019 l 171 1031 l 290 1213 l 458 1213 l 579 1031 l 579 1019 l 465 1019 l 374 1135 l 283 1019 l 171 1019 m 615 1453 q 609 1349 615 1385 q 580 1294 603 1314 q 507 1275 557 1275 q 442 1282 475 1275 q 364 1301 410 1289 q 319 1313 351 1304 q 267 1322 288 1322 q 238 1310 243 1322 q 233 1260 233 1299 l 139 1260 q 145 1363 139 1328 q 175 1418 151 1399 q 249 1438 199 1438 q 393 1411 299 1438 q 446 1398 419 1404 q 490 1392 472 1392 q 517 1403 513 1392 q 522 1453 522 1415 l 615 1453 z "},"Ȅ":{"ha":722,"x_min":93,"x_max":658,"o":"m 100 0 l 100 956 l 658 956 l 658 803 l 276 803 l 276 560 l 606 560 l 606 406 l 276 406 l 276 153 l 658 153 l 658 0 l 100 0 m 326 1047 l 219 1047 l 93 1214 l 93 1221 l 233 1221 l 326 1053 l 326 1047 m 560 1047 l 454 1047 l 326 1214 l 326 1221 l 468 1221 l 560 1053 l 560 1047 z "},"Ë":{"ha":721,"x_min":100,"x_max":658,"o":"m 100 0 l 100 956 l 658 956 l 658 803 l 276 803 l 276 560 l 606 560 l 606 406 l 276 406 l 276 153 l 658 153 l 658 0 l 100 0 m 176 1081 l 176 1217 l 322 1217 l 322 1081 l 176 1081 m 436 1081 l 436 1217 l 581 1217 l 581 1081 l 436 1081 z "},"Ė":{"ha":722,"x_min":100,"x_max":658,"o":"m 100 0 l 100 956 l 658 956 l 658 803 l 276 803 l 276 560 l 606 560 l 606 406 l 276 406 l 276 153 l 658 153 l 658 0 l 100 0 m 306 1079 l 306 1215 l 450 1215 l 450 1079 l 306 1079 z "},"Ẹ":{"ha":722,"x_min":100,"x_max":658,"o":"m 100 0 l 100 956 l 658 956 l 658 803 l 276 803 l 276 560 l 606 560 l 606 406 l 276 406 l 276 153 l 658 153 l 658 0 l 100 0 m 285 -260 l 285 -86 l 469 -86 l 469 -260 l 285 -260 z "},"È":{"ha":721,"x_min":100,"x_max":658,"o":"m 100 0 l 100 956 l 658 956 l 658 803 l 276 803 l 276 560 l 606 560 l 606 406 l 276 406 l 276 153 l 658 153 l 658 0 l 100 0 m 339 1042 l 193 1235 l 193 1242 l 363 1242 l 467 1049 l 467 1042 l 339 1042 z "},"Ẻ":{"ha":722,"x_min":100,"x_max":658,"o":"m 100 0 l 100 956 l 658 956 l 658 803 l 276 803 l 276 560 l 606 560 l 606 406 l 276 406 l 276 153 l 658 153 l 658 0 l 100 0 m 292 1029 q 304 1084 292 1068 q 353 1113 317 1100 l 376 1121 q 419 1140 410 1132 q 429 1167 429 1149 q 414 1195 429 1189 q 350 1201 399 1201 q 211 1194 283 1201 l 211 1286 q 367 1300 294 1300 q 501 1276 458 1300 q 544 1178 544 1251 q 528 1108 544 1131 q 465 1068 511 1085 l 439 1057 q 399 1038 406 1044 q 392 1010 392 1031 l 292 1010 l 292 1029 z "},"Ȇ":{"ha":722,"x_min":100,"x_max":658,"o":"m 100 0 l 100 956 l 658 956 l 658 803 l 276 803 l 276 560 l 606 560 l 606 406 l 276 406 l 276 153 l 658 153 l 658 0 l 100 0 m 188 1044 q 201 1152 188 1111 q 256 1217 214 1193 q 379 1242 297 1242 q 502 1217 461 1242 q 556 1152 543 1193 q 568 1044 568 1111 l 467 1044 q 463 1102 467 1083 q 440 1132 458 1121 q 379 1143 421 1143 q 319 1132 338 1143 q 295 1101 300 1121 q 290 1044 290 1082 l 188 1044 z "},"Ē":{"ha":722,"x_min":100,"x_max":658,"o":"m 100 0 l 100 956 l 658 956 l 658 803 l 276 803 l 276 560 l 606 560 l 606 406 l 276 406 l 276 153 l 658 153 l 658 0 l 100 0 m 217 1085 l 217 1233 l 538 1233 l 538 1085 l 217 1085 z "},"Ę":{"ha":721,"x_min":99,"x_max":656,"o":"m 576 -272 q 463 -241 497 -272 q 429 -162 429 -210 q 521 0 429 -81 l 99 0 l 99 956 l 656 956 l 656 803 l 276 803 l 276 558 l 603 558 l 603 406 l 276 406 l 276 153 l 656 153 l 656 0 q 594 -58 622 -22 q 567 -126 567 -93 q 581 -161 567 -147 q 625 -175 594 -175 l 649 -174 l 649 -268 q 576 -272 611 -272 z "},"Ẽ":{"ha":722,"x_min":100,"x_max":658,"o":"m 100 0 l 100 956 l 658 956 l 658 803 l 276 803 l 276 560 l 606 560 l 606 406 l 276 406 l 276 153 l 658 153 l 658 0 l 100 0 m 615 1233 q 609 1130 615 1165 q 580 1075 603 1094 q 507 1056 557 1056 q 442 1063 475 1056 q 364 1082 410 1069 q 319 1094 351 1085 q 267 1103 288 1103 q 238 1091 243 1103 q 233 1040 233 1079 l 139 1040 q 145 1144 139 1108 q 175 1199 151 1179 q 249 1218 199 1218 q 393 1192 299 1218 q 446 1178 419 1185 q 490 1172 472 1172 q 517 1184 513 1172 q 522 1233 522 1196 l 615 1233 z "},"F":{"ha":675,"x_min":100,"x_max":633,"o":"m 100 0 l 100 956 l 633 956 l 633 803 l 276 803 l 276 536 l 592 536 l 592 382 l 276 382 l 276 0 l 100 0 z "},"G":{"ha":808,"x_min":75,"x_max":719,"o":"m 417 394 l 417 543 l 719 543 l 719 18 q 581 -3 660 6 q 439 -11 501 -11 q 208 29 285 -11 q 103 171 132 69 q 75 478 75 272 q 104 783 75 681 q 211 926 133 885 q 444 967 289 967 q 585 958 508 967 q 715 938 663 950 l 715 794 q 508 814 576 814 q 335 797 383 814 q 270 714 288 781 q 253 478 253 647 q 265 254 253 322 q 317 162 278 186 q 443 138 356 138 q 549 144 503 138 l 549 394 l 417 394 z "},"Ǵ":{"ha":808,"x_min":75,"x_max":719,"o":"m 417 394 l 417 543 l 719 543 l 719 18 q 581 -3 660 6 q 439 -11 501 -11 q 208 29 285 -11 q 103 171 132 69 q 75 478 75 272 q 104 783 75 681 q 211 926 133 885 q 444 967 289 967 q 585 958 508 967 q 715 938 663 950 l 715 794 q 508 814 576 814 q 335 797 383 814 q 270 714 288 781 q 253 478 253 647 q 265 254 253 322 q 317 162 278 186 q 443 138 356 138 q 549 144 503 138 l 549 394 l 417 394 m 331 1033 l 331 1040 l 435 1233 l 604 1233 l 604 1226 l 458 1033 l 331 1033 z "},"Ğ":{"ha":808,"x_min":75,"x_max":719,"o":"m 417 394 l 417 543 l 719 543 l 719 18 q 581 -3 660 6 q 439 -11 501 -11 q 208 29 285 -11 q 103 171 132 69 q 75 478 75 272 q 104 783 75 681 q 211 926 133 885 q 444 967 289 967 q 585 958 508 967 q 715 938 663 950 l 715 794 q 508 814 576 814 q 335 797 383 814 q 270 714 288 781 q 253 478 253 647 q 265 254 253 322 q 317 162 278 186 q 443 138 356 138 q 549 144 503 138 l 549 394 l 417 394 m 594 1233 q 581 1126 594 1167 q 526 1060 568 1085 q 403 1036 485 1036 q 280 1060 321 1036 q 226 1126 239 1085 q 214 1233 214 1167 l 315 1233 q 319 1176 315 1194 q 342 1146 324 1157 q 403 1135 361 1135 q 463 1146 444 1135 q 487 1176 482 1157 q 492 1233 492 1196 l 594 1233 z "},"Ǧ":{"ha":808,"x_min":75,"x_max":719,"o":"m 417 394 l 417 543 l 719 543 l 719 18 q 581 -3 660 6 q 439 -11 501 -11 q 208 29 285 -11 q 103 171 132 69 q 75 478 75 272 q 104 783 75 681 q 211 926 133 885 q 444 967 289 967 q 585 958 508 967 q 715 938 663 950 l 715 794 q 508 814 576 814 q 335 797 383 814 q 270 714 288 781 q 253 478 253 647 q 265 254 253 322 q 317 162 278 186 q 443 138 356 138 q 549 144 503 138 l 549 394 l 417 394 m 319 1040 l 200 1224 l 200 1233 l 313 1233 l 403 1119 l 494 1233 l 608 1233 l 608 1224 l 486 1040 l 319 1040 z "},"Ĝ":{"ha":808,"x_min":75,"x_max":719,"o":"m 417 394 l 417 543 l 719 543 l 719 18 q 581 -3 660 6 q 439 -11 501 -11 q 208 29 285 -11 q 103 171 132 69 q 75 478 75 272 q 104 783 75 681 q 211 926 133 885 q 444 967 289 967 q 585 958 508 967 q 715 938 663 950 l 715 794 q 508 814 576 814 q 335 797 383 814 q 270 714 288 781 q 253 478 253 647 q 265 254 253 322 q 317 162 278 186 q 443 138 356 138 q 549 144 503 138 l 549 394 l 417 394 m 200 1040 l 200 1051 l 319 1233 l 488 1233 l 608 1051 l 608 1040 l 494 1040 l 403 1156 l 313 1040 l 200 1040 z "},"Ģ":{"ha":808,"x_min":75,"x_max":719,"o":"m 417 394 l 417 543 l 719 543 l 719 18 q 581 -3 660 6 q 439 -11 501 -11 q 208 29 285 -11 q 103 171 132 69 q 75 478 75 272 q 104 783 75 681 q 211 926 133 885 q 444 967 289 967 q 585 958 508 967 q 715 938 663 950 l 715 794 q 508 814 576 814 q 335 797 383 814 q 270 714 288 781 q 253 478 253 647 q 265 254 253 322 q 317 162 278 186 q 443 138 356 138 q 549 144 503 138 l 549 394 l 417 394 m 310 -329 q 376 -317 360 -329 q 392 -267 392 -304 l 392 -244 l 322 -244 l 322 -86 l 499 -86 l 499 -199 q 486 -327 499 -286 q 434 -385 474 -368 q 310 -401 394 -401 l 310 -329 z "},"Ġ":{"ha":808,"x_min":75,"x_max":719,"o":"m 417 394 l 417 543 l 719 543 l 719 18 q 581 -3 660 6 q 439 -11 501 -11 q 208 29 285 -11 q 103 171 132 69 q 75 478 75 272 q 104 783 75 681 q 211 926 133 885 q 444 967 289 967 q 585 958 508 967 q 715 938 663 950 l 715 794 q 508 814 576 814 q 335 797 383 814 q 270 714 288 781 q 253 478 253 647 q 265 254 253 322 q 317 162 278 186 q 443 138 356 138 q 549 144 503 138 l 549 394 l 417 394 m 332 1079 l 332 1215 l 476 1215 l 476 1079 l 332 1079 z "},"H":{"ha":869,"x_min":99,"x_max":771,"o":"m 593 0 l 593 401 l 276 401 l 276 0 l 99 0 l 99 956 l 276 956 l 276 561 l 593 561 l 593 956 l 771 956 l 771 0 l 593 0 z "},"Ħ":{"ha":869,"x_min":99,"x_max":771,"o":"m 593 956 l 771 956 l 771 0 l 593 0 l 593 346 l 276 346 l 276 0 l 99 0 l 99 956 l 276 956 l 276 799 l 593 799 l 593 956 m 276 506 l 593 506 l 593 656 l 276 656 l 276 506 z "},"Ĥ":{"ha":869,"x_min":99,"x_max":771,"o":"m 593 0 l 593 401 l 276 401 l 276 0 l 99 0 l 99 956 l 276 956 l 276 561 l 593 561 l 593 956 l 771 956 l 771 0 l 593 0 m 231 1040 l 231 1051 l 350 1233 l 518 1233 l 639 1051 l 639 1040 l 525 1040 l 433 1156 l 343 1040 l 231 1040 z "},"Ḥ":{"ha":869,"x_min":99,"x_max":771,"o":"m 593 0 l 593 401 l 276 401 l 276 0 l 99 0 l 99 956 l 276 956 l 276 561 l 593 561 l 593 956 l 771 956 l 771 0 l 593 0 m 342 -260 l 342 -86 l 526 -86 l 526 -260 l 342 -260 z "},"I":{"ha":378,"x_min":100,"x_max":278,"o":"m 100 0 l 100 956 l 278 956 l 278 0 l 100 0 z "},"Ĳ":{"ha":846,"x_min":100,"x_max":751,"o":"m 100 0 l 100 956 l 278 956 l 278 0 l 100 0 m 406 144 q 526 157 494 146 q 566 205 558 168 q 574 349 574 242 l 574 956 l 751 956 l 751 411 q 733 119 751 196 q 651 22 715 43 q 406 0 588 1 l 406 144 z "},"Í":{"ha":378,"x_min":100,"x_max":378,"o":"m 100 0 l 100 956 l 278 956 l 278 0 l 100 0 m 104 1042 l 104 1049 l 208 1242 l 378 1242 l 378 1235 l 232 1042 l 104 1042 z "},"Ĭ":{"ha":378,"x_min":-1,"x_max":379,"o":"m 100 0 l 100 956 l 278 956 l 278 0 l 100 0 m 379 1233 q 366 1126 379 1167 q 311 1060 353 1085 q 188 1036 269 1036 q 65 1060 106 1036 q 11 1126 24 1085 q -1 1233 -1 1167 l 100 1233 q 104 1176 100 1194 q 127 1146 108 1157 q 188 1135 146 1135 q 248 1146 229 1135 q 272 1176 267 1157 q 276 1233 276 1196 l 379 1233 z "},"Ǐ":{"ha":378,"x_min":-15,"x_max":393,"o":"m 100 0 l 100 956 l 278 956 l 278 0 l 100 0 m 104 1040 l -15 1224 l -15 1233 l 97 1233 l 188 1119 l 279 1233 l 393 1233 l 393 1224 l 271 1040 l 104 1040 z "},"Î":{"ha":378,"x_min":-15,"x_max":393,"o":"m 100 0 l 100 956 l 278 956 l 278 0 l 100 0 m -15 1042 l -15 1053 l 104 1235 l 272 1235 l 393 1053 l 393 1042 l 279 1042 l 188 1157 l 97 1042 l -15 1042 z "},"Ȉ":{"ha":378,"x_min":-96,"x_max":371,"o":"m 100 0 l 100 956 l 278 956 l 278 0 l 100 0 m 138 1047 l 31 1047 l -96 1214 l -96 1221 l 44 1221 l 138 1053 l 138 1047 m 371 1047 l 265 1047 l 138 1214 l 138 1221 l 279 1221 l 371 1053 l 371 1047 z "},"Ï":{"ha":378,"x_min":-12,"x_max":392,"o":"m 100 0 l 100 956 l 278 956 l 278 0 l 100 0 m -12 1082 l -12 1218 l 133 1218 l 133 1082 l -12 1082 m 247 1082 l 247 1218 l 392 1218 l 392 1082 l 247 1082 z "},"İ":{"ha":378,"x_min":100,"x_max":278,"o":"m 100 0 l 100 956 l 278 956 l 278 0 l 100 0 m 117 1079 l 117 1215 l 261 1215 l 261 1079 l 117 1079 z "},"Ị":{"ha":378,"x_min":96,"x_max":281,"o":"m 100 0 l 100 956 l 278 956 l 278 0 l 100 0 m 96 -260 l 96 -86 l 281 -86 l 281 -260 l 96 -260 z "},"Ì":{"ha":378,"x_min":6,"x_max":279,"o":"m 100 0 l 100 956 l 278 956 l 278 0 l 100 0 m 151 1042 l 6 1235 l 6 1242 l 175 1242 l 279 1049 l 279 1042 l 151 1042 z "},"Ỉ":{"ha":378,"x_min":22,"x_max":356,"o":"m 100 0 l 100 956 l 278 956 l 278 0 l 100 0 m 103 1029 q 115 1084 103 1068 q 164 1113 128 1100 l 188 1121 q 231 1140 221 1132 q 240 1167 240 1149 q 225 1195 240 1189 q 161 1201 210 1201 q 22 1194 94 1201 l 22 1286 q 178 1300 106 1300 q 313 1276 269 1300 q 356 1178 356 1251 q 339 1108 356 1131 q 276 1068 322 1085 l 250 1057 q 210 1038 217 1044 q 203 1010 203 1031 l 103 1010 l 103 1029 z "},"Ȋ":{"ha":378,"x_min":-1,"x_max":379,"o":"m 100 0 l 100 956 l 278 956 l 278 0 l 100 0 m -1 1044 q 12 1152 -1 1111 q 67 1217 25 1193 q 190 1242 108 1242 q 313 1217 272 1242 q 367 1152 354 1193 q 379 1044 379 1111 l 278 1044 q 274 1102 278 1083 q 251 1132 269 1121 q 190 1143 232 1143 q 130 1132 149 1143 q 106 1101 111 1121 q 101 1044 101 1082 l -1 1044 z "},"Ī":{"ha":378,"x_min":28,"x_max":349,"o":"m 100 0 l 100 956 l 278 956 l 278 0 l 100 0 m 28 1085 l 28 1233 l 349 1233 l 349 1085 l 28 1085 z "},"Į":{"ha":378,"x_min":60,"x_max":279,"o":"m 207 -272 q 60 -158 60 -272 q 82 -78 60 -119 q 142 0 104 -36 l 100 0 l 100 956 l 278 956 l 278 0 q 223 -57 249 -21 q 197 -124 197 -93 q 211 -162 197 -149 q 258 -175 225 -175 l 279 -174 l 279 -268 q 207 -272 242 -272 z "},"Ĩ":{"ha":378,"x_min":-50,"x_max":426,"o":"m 100 0 l 100 956 l 278 956 l 278 0 l 100 0 m 426 1233 q 420 1130 426 1165 q 391 1075 414 1094 q 318 1056 368 1056 q 253 1063 286 1056 q 175 1082 221 1069 q 131 1094 163 1085 q 78 1103 99 1103 q 49 1091 54 1103 q 44 1040 44 1079 l -50 1040 q -44 1144 -50 1108 q -14 1199 -37 1179 q 60 1218 10 1218 q 204 1192 110 1218 q 257 1178 231 1185 q 301 1172 283 1172 q 328 1184 324 1172 q 333 1233 333 1196 l 426 1233 z "},"J":{"ha":468,"x_min":28,"x_max":374,"o":"m 28 144 q 149 157 117 146 q 188 205 181 168 q 196 349 196 242 l 196 956 l 374 956 l 374 411 q 356 119 374 196 q 274 22 338 43 q 28 0 210 1 l 28 144 z "},"Ĵ":{"ha":468,"x_min":28,"x_max":489,"o":"m 28 144 q 149 157 117 146 q 188 205 181 168 q 196 349 196 242 l 196 956 l 374 956 l 374 411 q 356 119 374 196 q 274 22 338 43 q 28 0 210 1 l 28 144 m 81 1040 l 81 1051 l 200 1233 l 368 1233 l 489 1051 l 489 1040 l 375 1040 l 283 1156 l 193 1040 l 81 1040 z "},"K":{"ha":814,"x_min":100,"x_max":796,"o":"m 597 0 l 365 408 l 276 408 l 276 0 l 100 0 l 100 956 l 276 956 l 276 563 l 365 563 l 603 956 l 792 956 l 508 499 l 796 0 l 597 0 z "},"Ķ":{"ha":814,"x_min":100,"x_max":796,"o":"m 597 0 l 365 408 l 276 408 l 276 0 l 100 0 l 100 956 l 276 956 l 276 563 l 365 563 l 603 956 l 792 956 l 508 499 l 796 0 l 597 0 m 313 -329 q 378 -317 363 -329 q 394 -267 394 -304 l 394 -244 l 325 -244 l 325 -86 l 501 -86 l 501 -199 q 489 -327 501 -286 q 437 -385 476 -368 q 313 -401 397 -401 l 313 -329 z "},"L":{"ha":643,"x_min":100,"x_max":614,"o":"m 100 0 l 100 956 l 276 956 l 276 158 l 614 158 l 614 0 l 100 0 z "},"Ǉ":{"ha":1111,"x_min":100,"x_max":1017,"o":"m 100 0 l 100 956 l 276 956 l 276 158 l 614 158 l 614 0 l 100 0 m 671 144 q 792 157 760 146 q 831 205 824 168 q 839 349 839 242 l 839 956 l 1017 956 l 1017 411 q 999 119 1017 196 q 917 22 981 43 q 671 0 853 1 l 671 144 z "},"Ĺ":{"ha":643,"x_min":100,"x_max":614,"o":"m 100 0 l 100 956 l 276 956 l 276 158 l 614 158 l 614 0 l 100 0 m 132 1033 l 132 1040 l 236 1233 l 406 1233 l 406 1226 l 260 1033 l 132 1033 z "},"Ľ":{"ha":643,"x_min":100,"x_max":624,"o":"m 100 0 l 100 956 l 276 956 l 276 158 l 614 158 l 614 0 l 100 0 m 444 628 l 467 897 l 467 982 l 624 982 l 624 897 l 563 628 l 444 628 z "},"Ļ":{"ha":643,"x_min":100,"x_max":614,"o":"m 100 0 l 100 956 l 276 956 l 276 158 l 614 158 l 614 0 l 100 0 m 246 -329 q 312 -317 296 -329 q 328 -267 328 -304 l 328 -244 l 258 -244 l 258 -86 l 435 -86 l 435 -199 q 422 -327 435 -286 q 370 -385 410 -368 q 246 -401 331 -401 l 246 -329 z "},"Ŀ":{"ha":649,"x_min":100,"x_max":614,"o":"m 100 0 l 100 956 l 276 956 l 276 158 l 614 158 l 614 0 l 100 0 m 428 421 l 428 594 l 613 594 l 613 421 l 428 421 z "},"ǈ":{"ha":983,"x_min":100,"x_max":899,"o":"m 100 0 l 100 956 l 276 956 l 276 158 l 614 158 l 614 0 l 100 0 m 728 874 l 728 1032 l 899 1032 l 899 874 l 728 874 m 624 -146 q 694 -139 672 -146 q 723 -117 717 -132 q 729 -72 729 -103 l 729 708 l 897 708 l 897 -22 q 874 -190 897 -139 q 797 -258 851 -242 q 624 -274 742 -274 l 624 -146 z "},"Ł":{"ha":640,"x_min":26,"x_max":614,"o":"m 276 158 l 614 158 l 614 0 l 100 0 l 100 372 l 26 344 l 26 482 l 100 510 l 100 956 l 276 956 l 276 575 l 474 649 l 474 511 l 276 438 l 276 158 z "},"M":{"ha":1111,"x_min":99,"x_max":1011,"o":"m 840 0 l 840 699 l 833 699 l 625 0 l 481 0 l 274 699 l 267 699 l 267 0 l 99 0 l 99 956 l 356 956 l 553 289 l 561 289 l 758 956 l 1011 956 l 1011 0 l 840 0 z "},"N":{"ha":872,"x_min":99,"x_max":774,"o":"m 606 0 l 275 604 l 269 604 l 269 0 l 99 0 l 99 956 l 279 956 l 597 382 l 603 382 l 603 956 l 774 956 l 774 0 l 606 0 z "},"Ǌ":{"ha":1340,"x_min":99,"x_max":1246,"o":"m 606 0 l 275 604 l 269 604 l 269 0 l 99 0 l 99 956 l 279 956 l 597 382 l 603 382 l 603 956 l 774 956 l 774 0 l 606 0 m 900 144 q 1021 157 989 146 q 1060 205 1053 168 q 1068 349 1068 242 l 1068 956 l 1246 956 l 1246 411 q 1228 119 1246 196 q 1146 22 1210 43 q 900 0 1082 1 l 900 144 z "},"Ń":{"ha":872,"x_min":99,"x_max":774,"o":"m 606 0 l 275 604 l 269 604 l 269 0 l 99 0 l 99 956 l 279 956 l 597 382 l 603 382 l 603 956 l 774 956 l 774 0 l 606 0 m 363 1033 l 363 1040 l 467 1233 l 636 1233 l 636 1226 l 490 1033 l 363 1033 z "},"Ň":{"ha":872,"x_min":99,"x_max":774,"o":"m 606 0 l 275 604 l 269 604 l 269 0 l 99 0 l 99 956 l 279 956 l 597 382 l 603 382 l 603 956 l 774 956 l 774 0 l 606 0 m 351 1040 l 232 1224 l 232 1233 l 344 1233 l 435 1119 l 526 1233 l 640 1233 l 640 1224 l 518 1040 l 351 1040 z "},"Ņ":{"ha":872,"x_min":99,"x_max":774,"o":"m 606 0 l 275 604 l 269 604 l 269 0 l 99 0 l 99 956 l 279 956 l 597 382 l 603 382 l 603 956 l 774 956 l 774 0 l 606 0 m 342 -329 q 408 -317 392 -329 q 424 -267 424 -304 l 424 -244 l 354 -244 l 354 -86 l 531 -86 l 531 -199 q 518 -327 531 -286 q 466 -385 506 -368 q 342 -401 426 -401 l 342 -329 z "},"Ṅ":{"ha":872,"x_min":99,"x_max":774,"o":"m 606 0 l 275 604 l 269 604 l 269 0 l 99 0 l 99 956 l 279 956 l 597 382 l 603 382 l 603 956 l 774 956 l 774 0 l 606 0 m 364 1079 l 364 1215 l 508 1215 l 508 1079 l 364 1079 z "},"Ŋ":{"ha":872,"x_min":99,"x_max":774,"o":"m 774 956 l 774 -26 q 749 -192 772 -142 q 672 -258 726 -243 q 497 -274 617 -274 l 497 -146 q 568 -139 546 -146 q 597 -117 590 -132 q 603 -72 603 -103 l 603 10 l 275 604 l 269 604 l 269 0 l 99 0 l 99 956 l 279 956 l 597 382 l 603 382 l 603 956 l 774 956 z "},"Ɲ":{"ha":872,"x_min":-7,"x_max":774,"o":"m 774 956 l 774 0 l 606 0 l 275 604 l 269 604 l 269 -22 q 247 -191 269 -139 q 168 -258 224 -243 q -7 -274 113 -274 l -7 -146 q 64 -139 42 -146 q 92 -117 86 -132 q 99 -72 99 -103 l 99 956 l 279 956 l 597 382 l 603 382 l 603 956 l 774 956 z "},"ǋ":{"ha":1213,"x_min":99,"x_max":1128,"o":"m 606 0 l 275 604 l 269 604 l 269 0 l 99 0 l 99 956 l 279 956 l 597 382 l 603 382 l 603 956 l 774 956 l 774 0 l 606 0 m 957 874 l 957 1032 l 1128 1032 l 1128 874 l 957 874 m 853 -146 q 924 -139 901 -146 q 952 -117 946 -132 q 958 -72 958 -103 l 958 708 l 1126 708 l 1126 -22 q 1103 -190 1126 -139 q 1026 -258 1081 -242 q 853 -274 971 -274 l 853 -146 z "},"Ñ":{"ha":872,"x_min":99,"x_max":774,"o":"m 606 0 l 275 604 l 269 604 l 269 0 l 99 0 l 99 956 l 279 956 l 597 382 l 603 382 l 603 956 l 774 956 l 774 0 l 606 0 m 672 1238 q 666 1134 672 1169 q 637 1079 660 1099 q 564 1060 614 1060 q 499 1067 532 1060 q 421 1086 467 1074 q 376 1098 408 1089 q 324 1107 344 1107 q 295 1095 300 1107 q 290 1044 290 1083 l 196 1044 q 202 1148 196 1113 q 232 1203 208 1183 q 306 1222 256 1222 q 450 1196 356 1222 q 503 1183 476 1189 q 547 1176 529 1176 q 574 1188 569 1176 q 579 1238 579 1200 l 672 1238 z "},"O":{"ha":851,"x_min":75,"x_max":776,"o":"m 425 -11 q 185 30 257 -11 q 94 165 113 71 q 75 478 75 260 q 94 790 75 696 q 185 926 113 885 q 425 967 257 967 q 666 926 593 967 q 758 790 739 885 q 776 478 776 696 q 758 165 776 260 q 666 30 739 71 q 425 -11 593 -11 m 425 142 q 548 158 515 142 q 590 238 581 175 q 599 478 599 301 q 590 717 599 654 q 548 797 581 781 q 425 814 515 814 q 303 797 335 814 q 262 718 271 781 q 253 478 253 656 q 262 238 253 300 q 303 158 271 175 q 425 142 335 142 z "},"Ó":{"ha":850,"x_min":75,"x_max":776,"o":"m 425 -11 q 185 30 257 -11 q 94 165 113 71 q 75 478 75 260 q 94 790 75 696 q 185 926 113 885 q 425 967 257 967 q 666 926 593 967 q 758 790 739 885 q 776 478 776 696 q 758 165 776 260 q 666 30 739 71 q 425 -11 593 -11 m 425 142 q 548 158 515 142 q 590 238 581 175 q 599 478 599 301 q 590 717 599 654 q 548 797 581 781 q 425 814 515 814 q 303 797 335 814 q 262 718 271 781 q 253 478 253 656 q 262 238 253 300 q 303 158 271 175 q 425 142 335 142 m 344 1042 l 344 1049 l 449 1242 l 618 1242 l 618 1235 l 472 1042 l 344 1042 z "},"Ŏ":{"ha":851,"x_min":75,"x_max":776,"o":"m 425 -11 q 185 30 257 -11 q 94 165 113 71 q 75 478 75 260 q 94 790 75 696 q 185 926 113 885 q 425 967 257 967 q 666 926 593 967 q 758 790 739 885 q 776 478 776 696 q 758 165 776 260 q 666 30 739 71 q 425 -11 593 -11 m 425 142 q 548 158 515 142 q 590 238 581 175 q 599 478 599 301 q 590 717 599 654 q 548 797 581 781 q 425 814 515 814 q 303 797 335 814 q 262 718 271 781 q 253 478 253 656 q 262 238 253 300 q 303 158 271 175 q 425 142 335 142 m 617 1233 q 603 1126 617 1167 q 549 1060 590 1085 q 425 1036 507 1036 q 302 1060 343 1036 q 249 1126 261 1085 q 236 1233 236 1167 l 338 1233 q 342 1176 338 1194 q 365 1146 346 1157 q 425 1135 383 1135 q 485 1146 467 1135 q 509 1176 504 1157 q 514 1233 514 1196 l 617 1233 z "},"Ǒ":{"ha":851,"x_min":75,"x_max":776,"o":"m 425 -11 q 185 30 257 -11 q 94 165 113 71 q 75 478 75 260 q 94 790 75 696 q 185 926 113 885 q 425 967 257 967 q 666 926 593 967 q 758 790 739 885 q 776 478 776 696 q 758 165 776 260 q 666 30 739 71 q 425 -11 593 -11 m 425 142 q 548 158 515 142 q 590 238 581 175 q 599 478 599 301 q 590 717 599 654 q 548 797 581 781 q 425 814 515 814 q 303 797 335 814 q 262 718 271 781 q 253 478 253 656 q 262 238 253 300 q 303 158 271 175 q 425 142 335 142 m 342 1040 l 222 1224 l 222 1233 l 335 1233 l 425 1119 l 517 1233 l 631 1233 l 631 1224 l 508 1040 l 342 1040 z "},"Ô":{"ha":850,"x_min":75,"x_max":776,"o":"m 425 -11 q 185 30 257 -11 q 94 165 113 71 q 75 478 75 260 q 94 790 75 696 q 185 926 113 885 q 425 967 257 967 q 666 926 593 967 q 758 790 739 885 q 776 478 776 696 q 758 165 776 260 q 666 30 739 71 q 425 -11 593 -11 m 425 142 q 548 158 515 142 q 590 238 581 175 q 599 478 599 301 q 590 717 599 654 q 548 797 581 781 q 425 814 515 814 q 303 797 335 814 q 262 718 271 781 q 253 478 253 656 q 262 238 253 300 q 303 158 271 175 q 425 142 335 142 m 219 1042 l 219 1053 l 339 1235 l 507 1235 l 628 1053 l 628 1042 l 514 1042 l 422 1157 l 332 1042 l 219 1042 z "},"Ố":{"ha":851,"x_min":75,"x_max":776,"o":"m 425 -11 q 185 30 257 -11 q 94 165 113 71 q 75 478 75 260 q 94 790 75 696 q 185 926 113 885 q 425 967 257 967 q 666 926 593 967 q 758 790 739 885 q 776 478 776 696 q 758 165 776 260 q 666 30 739 71 q 425 -11 593 -11 m 425 142 q 548 158 515 142 q 590 238 581 175 q 599 478 599 301 q 590 717 599 654 q 548 797 581 781 q 425 814 515 814 q 303 797 335 814 q 262 718 271 781 q 253 478 253 656 q 262 238 253 300 q 303 158 271 175 q 425 142 335 142 m 221 1029 l 221 1040 l 340 1222 l 508 1222 l 629 1040 l 629 1029 l 515 1029 l 424 1144 l 333 1029 l 221 1029 m 456 1263 l 456 1269 l 560 1463 l 729 1463 l 729 1456 l 583 1263 l 456 1263 z "},"Ộ":{"ha":851,"x_min":75,"x_max":776,"o":"m 425 -11 q 185 30 257 -11 q 94 165 113 71 q 75 478 75 260 q 94 790 75 696 q 185 926 113 885 q 425 967 257 967 q 666 926 593 967 q 758 790 739 885 q 776 478 776 696 q 758 165 776 260 q 666 30 739 71 q 425 -11 593 -11 m 425 142 q 548 158 515 142 q 590 238 581 175 q 599 478 599 301 q 590 717 599 654 q 548 797 581 781 q 425 814 515 814 q 303 797 335 814 q 262 718 271 781 q 253 478 253 656 q 262 238 253 300 q 303 158 271 175 q 425 142 335 142 m 333 -260 l 333 -86 l 518 -86 l 518 -260 l 333 -260 m 222 1040 l 222 1051 l 342 1233 l 510 1233 l 631 1051 l 631 1040 l 517 1040 l 425 1156 l 335 1040 l 222 1040 z "},"Ồ":{"ha":851,"x_min":75,"x_max":776,"o":"m 425 -11 q 185 30 257 -11 q 94 165 113 71 q 75 478 75 260 q 94 790 75 696 q 185 926 113 885 q 425 967 257 967 q 666 926 593 967 q 758 790 739 885 q 776 478 776 696 q 758 165 776 260 q 666 30 739 71 q 425 -11 593 -11 m 425 142 q 548 158 515 142 q 590 238 581 175 q 599 478 599 301 q 590 717 599 654 q 548 797 581 781 q 425 814 515 814 q 303 797 335 814 q 262 718 271 781 q 253 478 253 656 q 262 238 253 300 q 303 158 271 175 q 425 142 335 142 m 218 1019 l 218 1031 l 338 1213 l 506 1213 l 626 1031 l 626 1019 l 513 1019 l 421 1135 l 331 1019 l 218 1019 m 503 1253 l 357 1446 l 357 1453 l 526 1453 l 631 1260 l 631 1253 l 503 1253 z "},"Ổ":{"ha":851,"x_min":75,"x_max":776,"o":"m 425 -11 q 185 30 257 -11 q 94 165 113 71 q 75 478 75 260 q 94 790 75 696 q 185 926 113 885 q 425 967 257 967 q 666 926 593 967 q 758 790 739 885 q 776 478 776 696 q 758 165 776 260 q 666 30 739 71 q 425 -11 593 -11 m 425 142 q 548 158 515 142 q 590 238 581 175 q 599 478 599 301 q 590 717 599 654 q 548 797 581 781 q 425 814 515 814 q 303 797 335 814 q 262 718 271 781 q 253 478 253 656 q 262 238 253 300 q 303 158 271 175 q 425 142 335 142 m 222 1019 l 222 1031 l 342 1213 l 510 1213 l 631 1031 l 631 1019 l 517 1019 l 425 1135 l 335 1019 l 222 1019 m 471 1257 q 483 1313 471 1297 q 532 1342 496 1329 l 556 1350 q 598 1369 588 1360 q 608 1394 608 1378 q 593 1424 608 1418 q 529 1431 578 1431 q 390 1422 454 1431 l 390 1515 q 546 1529 474 1529 q 680 1504 636 1529 q 724 1407 724 1479 q 707 1337 724 1360 q 644 1296 690 1314 l 618 1286 q 578 1266 585 1274 q 571 1239 571 1258 l 471 1239 l 471 1257 z "},"Ỗ":{"ha":851,"x_min":75,"x_max":776,"o":"m 425 -11 q 185 30 257 -11 q 94 165 113 71 q 75 478 75 260 q 94 790 75 696 q 185 926 113 885 q 425 967 257 967 q 666 926 593 967 q 758 790 739 885 q 776 478 776 696 q 758 165 776 260 q 666 30 739 71 q 425 -11 593 -11 m 425 142 q 548 158 515 142 q 590 238 581 175 q 599 478 599 301 q 590 717 599 654 q 548 797 581 781 q 425 814 515 814 q 303 797 335 814 q 262 718 271 781 q 253 478 253 656 q 262 238 253 300 q 303 158 271 175 q 425 142 335 142 m 219 1019 l 219 1031 l 339 1213 l 507 1213 l 628 1031 l 628 1019 l 514 1019 l 422 1135 l 332 1019 l 219 1019 m 664 1453 q 658 1349 664 1385 q 628 1294 651 1314 q 556 1275 606 1275 q 491 1282 524 1275 q 413 1301 458 1289 q 368 1313 400 1304 q 315 1322 336 1322 q 287 1310 292 1322 q 282 1260 282 1299 l 188 1260 q 194 1363 188 1328 q 224 1418 200 1399 q 297 1438 247 1438 q 442 1411 347 1438 q 494 1398 468 1404 q 539 1392 521 1392 q 566 1403 561 1392 q 571 1453 571 1415 l 664 1453 z "},"Ȍ":{"ha":851,"x_min":75,"x_max":776,"o":"m 425 -11 q 185 30 257 -11 q 94 165 113 71 q 75 478 75 260 q 94 790 75 696 q 185 926 113 885 q 425 967 257 967 q 666 926 593 967 q 758 790 739 885 q 776 478 776 696 q 758 165 776 260 q 666 30 739 71 q 425 -11 593 -11 m 425 142 q 548 158 515 142 q 590 238 581 175 q 599 478 599 301 q 590 717 599 654 q 548 797 581 781 q 425 814 515 814 q 303 797 335 814 q 262 718 271 781 q 253 478 253 656 q 262 238 253 300 q 303 158 271 175 q 425 142 335 142 m 375 1047 l 268 1047 l 142 1214 l 142 1221 l 282 1221 l 375 1053 l 375 1047 m 608 1047 l 503 1047 l 375 1214 l 375 1221 l 517 1221 l 608 1053 l 608 1047 z "},"Ö":{"ha":850,"x_min":75,"x_max":776,"o":"m 425 -11 q 185 30 257 -11 q 94 165 113 71 q 75 478 75 260 q 94 790 75 696 q 185 926 113 885 q 425 967 257 967 q 666 926 593 967 q 758 790 739 885 q 776 478 776 696 q 758 165 776 260 q 666 30 739 71 q 425 -11 593 -11 m 425 142 q 548 158 515 142 q 590 238 581 175 q 599 478 599 301 q 590 717 599 654 q 548 797 581 781 q 425 814 515 814 q 303 797 335 814 q 262 718 271 781 q 253 478 253 656 q 262 238 253 300 q 303 158 271 175 q 425 142 335 142 m 224 1082 l 224 1218 l 369 1218 l 369 1082 l 224 1082 m 483 1082 l 483 1218 l 628 1218 l 628 1082 l 483 1082 z "},"Ọ":{"ha":851,"x_min":75,"x_max":776,"o":"m 425 -11 q 185 30 257 -11 q 94 165 113 71 q 75 478 75 260 q 94 790 75 696 q 185 926 113 885 q 425 967 257 967 q 666 926 593 967 q 758 790 739 885 q 776 478 776 696 q 758 165 776 260 q 666 30 739 71 q 425 -11 593 -11 m 425 142 q 548 158 515 142 q 590 238 581 175 q 599 478 599 301 q 590 717 599 654 q 548 797 581 781 q 425 814 515 814 q 303 797 335 814 q 262 718 271 781 q 253 478 253 656 q 262 238 253 300 q 303 158 271 175 q 425 142 335 142 m 333 -260 l 333 -86 l 518 -86 l 518 -260 l 333 -260 z "},"Ò":{"ha":850,"x_min":75,"x_max":776,"o":"m 425 -11 q 185 30 257 -11 q 94 165 113 71 q 75 478 75 260 q 94 790 75 696 q 185 926 113 885 q 425 967 257 967 q 666 926 593 967 q 758 790 739 885 q 776 478 776 696 q 758 165 776 260 q 666 30 739 71 q 425 -11 593 -11 m 425 142 q 548 158 515 142 q 590 238 581 175 q 599 478 599 301 q 590 717 599 654 q 548 797 581 781 q 425 814 515 814 q 303 797 335 814 q 262 718 271 781 q 253 478 253 656 q 262 238 253 300 q 303 158 271 175 q 425 142 335 142 m 369 1042 l 224 1235 l 224 1242 l 393 1242 l 497 1049 l 497 1042 l 369 1042 z "},"Ỏ":{"ha":851,"x_min":75,"x_max":776,"o":"m 425 -11 q 185 30 257 -11 q 94 165 113 71 q 75 478 75 260 q 94 790 75 696 q 185 926 113 885 q 425 967 257 967 q 666 926 593 967 q 758 790 739 885 q 776 478 776 696 q 758 165 776 260 q 666 30 739 71 q 425 -11 593 -11 m 425 142 q 548 158 515 142 q 590 238 581 175 q 599 478 599 301 q 590 717 599 654 q 548 797 581 781 q 425 814 515 814 q 303 797 335 814 q 262 718 271 781 q 253 478 253 656 q 262 238 253 300 q 303 158 271 175 q 425 142 335 142 m 340 1029 q 353 1084 340 1068 q 401 1113 365 1100 l 425 1121 q 468 1140 458 1132 q 478 1167 478 1149 q 463 1195 478 1189 q 399 1201 447 1201 q 260 1194 332 1201 l 260 1286 q 415 1300 343 1300 q 550 1276 507 1300 q 593 1178 593 1251 q 576 1108 593 1131 q 514 1068 560 1085 l 488 1057 q 447 1038 454 1044 q 440 1010 440 1031 l 340 1010 l 340 1029 z "},"Ơ":{"ha":851,"x_min":75,"x_max":856,"o":"m 856 1086 l 856 1047 q 845 955 856 988 q 804 906 835 922 q 713 886 774 890 q 765 749 754 838 q 776 478 776 660 q 758 165 776 260 q 666 30 739 71 q 425 -11 593 -11 q 185 30 257 -11 q 94 165 113 71 q 75 478 75 260 q 94 790 75 696 q 185 926 113 885 q 425 967 257 967 q 578 956 522 967 l 654 956 q 713 962 693 956 q 738 983 732 968 q 744 1026 744 997 l 744 1086 l 856 1086 m 425 142 q 548 158 515 142 q 590 238 581 175 q 599 478 599 301 q 590 717 599 654 q 548 797 581 781 q 425 814 515 814 q 303 797 335 814 q 262 718 271 781 q 253 478 253 656 q 262 238 253 300 q 303 158 271 175 q 425 142 335 142 z "},"Ớ":{"ha":851,"x_min":75,"x_max":856,"o":"m 856 1086 l 856 1047 q 845 955 856 988 q 804 906 835 922 q 713 886 774 890 q 765 749 754 838 q 776 478 776 660 q 758 165 776 260 q 666 30 739 71 q 425 -11 593 -11 q 185 30 257 -11 q 94 165 113 71 q 75 478 75 260 q 94 790 75 696 q 185 926 113 885 q 425 967 257 967 q 578 956 522 967 l 654 956 q 713 962 693 956 q 738 983 732 968 q 744 1026 744 997 l 744 1086 l 856 1086 m 425 142 q 548 158 515 142 q 590 238 581 175 q 599 478 599 301 q 590 717 599 654 q 548 797 581 781 q 425 814 515 814 q 303 797 335 814 q 262 718 271 781 q 253 478 253 656 q 262 238 253 300 q 303 158 271 175 q 425 142 335 142 m 353 1033 l 353 1040 l 457 1233 l 626 1233 l 626 1226 l 481 1033 l 353 1033 z "},"Ợ":{"ha":851,"x_min":75,"x_max":856,"o":"m 856 1086 l 856 1047 q 845 955 856 988 q 804 906 835 922 q 713 886 774 890 q 765 749 754 838 q 776 478 776 660 q 758 165 776 260 q 666 30 739 71 q 425 -11 593 -11 q 185 30 257 -11 q 94 165 113 71 q 75 478 75 260 q 94 790 75 696 q 185 926 113 885 q 425 967 257 967 q 578 956 522 967 l 654 956 q 713 962 693 956 q 738 983 732 968 q 744 1026 744 997 l 744 1086 l 856 1086 m 425 142 q 548 158 515 142 q 590 238 581 175 q 599 478 599 301 q 590 717 599 654 q 548 797 581 781 q 425 814 515 814 q 303 797 335 814 q 262 718 271 781 q 253 478 253 656 q 262 238 253 300 q 303 158 271 175 q 425 142 335 142 m 333 -260 l 333 -86 l 518 -86 l 518 -260 l 333 -260 z "},"Ờ":{"ha":851,"x_min":75,"x_max":856,"o":"m 856 1086 l 856 1047 q 845 955 856 988 q 804 906 835 922 q 713 886 774 890 q 765 749 754 838 q 776 478 776 660 q 758 165 776 260 q 666 30 739 71 q 425 -11 593 -11 q 185 30 257 -11 q 94 165 113 71 q 75 478 75 260 q 94 790 75 696 q 185 926 113 885 q 425 967 257 967 q 578 956 522 967 l 654 956 q 713 962 693 956 q 738 983 732 968 q 744 1026 744 997 l 744 1086 l 856 1086 m 425 142 q 548 158 515 142 q 590 238 581 175 q 599 478 599 301 q 590 717 599 654 q 548 797 581 781 q 425 814 515 814 q 303 797 335 814 q 262 718 271 781 q 253 478 253 656 q 262 238 253 300 q 303 158 271 175 q 425 142 335 142 m 369 1033 l 224 1226 l 224 1233 l 393 1233 l 497 1040 l 497 1033 l 369 1033 z "},"Ở":{"ha":851,"x_min":75,"x_max":856,"o":"m 856 1086 l 856 1047 q 845 955 856 988 q 804 906 835 922 q 713 886 774 890 q 765 749 754 838 q 776 478 776 660 q 758 165 776 260 q 666 30 739 71 q 425 -11 593 -11 q 185 30 257 -11 q 94 165 113 71 q 75 478 75 260 q 94 790 75 696 q 185 926 113 885 q 425 967 257 967 q 578 956 522 967 l 654 956 q 713 962 693 956 q 738 983 732 968 q 744 1026 744 997 l 744 1086 l 856 1086 m 425 142 q 548 158 515 142 q 590 238 581 175 q 599 478 599 301 q 590 717 599 654 q 548 797 581 781 q 425 814 515 814 q 303 797 335 814 q 262 718 271 781 q 253 478 253 656 q 262 238 253 300 q 303 158 271 175 q 425 142 335 142 m 340 1029 q 353 1084 340 1068 q 401 1113 365 1100 l 425 1121 q 468 1140 458 1132 q 478 1167 478 1149 q 463 1195 478 1189 q 399 1201 447 1201 q 260 1194 332 1201 l 260 1286 q 415 1300 343 1300 q 550 1276 507 1300 q 593 1178 593 1251 q 576 1108 593 1131 q 514 1068 560 1085 l 488 1057 q 447 1038 454 1044 q 440 1010 440 1031 l 340 1010 l 340 1029 z "},"Ỡ":{"ha":851,"x_min":75,"x_max":856,"o":"m 856 1086 l 856 1047 q 845 955 856 988 q 804 906 835 922 q 713 886 774 890 q 765 749 754 838 q 776 478 776 660 q 758 165 776 260 q 666 30 739 71 q 425 -11 593 -11 q 185 30 257 -11 q 94 165 113 71 q 75 478 75 260 q 94 790 75 696 q 185 926 113 885 q 425 967 257 967 q 578 956 522 967 l 654 956 q 713 962 693 956 q 738 983 732 968 q 744 1026 744 997 l 744 1086 l 856 1086 m 425 142 q 548 158 515 142 q 590 238 581 175 q 599 478 599 301 q 590 717 599 654 q 548 797 581 781 q 425 814 515 814 q 303 797 335 814 q 262 718 271 781 q 253 478 253 656 q 262 238 253 300 q 303 158 271 175 q 425 142 335 142 m 664 1233 q 658 1130 664 1165 q 628 1075 651 1094 q 556 1056 606 1056 q 491 1063 524 1056 q 413 1082 458 1069 q 368 1094 400 1085 q 315 1103 336 1103 q 287 1091 292 1103 q 282 1040 282 1079 l 188 1040 q 194 1144 188 1108 q 224 1199 200 1179 q 297 1218 247 1218 q 442 1192 347 1218 q 494 1178 468 1185 q 539 1172 521 1172 q 566 1184 561 1172 q 571 1233 571 1196 l 664 1233 z "},"Ő":{"ha":851,"x_min":75,"x_max":776,"o":"m 425 -11 q 185 30 257 -11 q 94 165 113 71 q 75 478 75 260 q 94 790 75 696 q 185 926 113 885 q 425 967 257 967 q 666 926 593 967 q 758 790 739 885 q 776 478 776 696 q 758 165 776 260 q 666 30 739 71 q 425 -11 593 -11 m 425 142 q 548 158 515 142 q 590 238 581 175 q 599 478 599 301 q 590 717 599 654 q 548 797 581 781 q 425 814 515 814 q 303 797 335 814 q 262 718 271 781 q 253 478 253 656 q 262 238 253 300 q 303 158 271 175 q 425 142 335 142 m 254 1047 l 254 1053 l 346 1221 l 488 1221 l 488 1214 l 360 1047 l 254 1047 m 488 1047 l 488 1053 l 581 1221 l 721 1221 l 721 1214 l 594 1047 l 488 1047 z "},"Ȏ":{"ha":851,"x_min":75,"x_max":776,"o":"m 425 -11 q 185 30 257 -11 q 94 165 113 71 q 75 478 75 260 q 94 790 75 696 q 185 926 113 885 q 425 967 257 967 q 666 926 593 967 q 758 790 739 885 q 776 478 776 696 q 758 165 776 260 q 666 30 739 71 q 425 -11 593 -11 m 425 142 q 548 158 515 142 q 590 238 581 175 q 599 478 599 301 q 590 717 599 654 q 548 797 581 781 q 425 814 515 814 q 303 797 335 814 q 262 718 271 781 q 253 478 253 656 q 262 238 253 300 q 303 158 271 175 q 425 142 335 142 m 236 1044 q 249 1152 236 1111 q 304 1217 263 1193 q 428 1242 346 1242 q 551 1217 510 1242 q 604 1152 592 1193 q 617 1044 617 1111 l 515 1044 q 511 1102 515 1083 q 488 1132 507 1121 q 428 1143 469 1143 q 367 1132 386 1143 q 344 1101 349 1121 q 339 1044 339 1082 l 236 1044 z "},"Ō":{"ha":851,"x_min":75,"x_max":776,"o":"m 425 -11 q 185 30 257 -11 q 94 165 113 71 q 75 478 75 260 q 94 790 75 696 q 185 926 113 885 q 425 967 257 967 q 666 926 593 967 q 758 790 739 885 q 776 478 776 696 q 758 165 776 260 q 666 30 739 71 q 425 -11 593 -11 m 425 142 q 548 158 515 142 q 590 238 581 175 q 599 478 599 301 q 590 717 599 654 q 548 797 581 781 q 425 814 515 814 q 303 797 335 814 q 262 718 271 781 q 253 478 253 656 q 262 238 253 300 q 303 158 271 175 q 425 142 335 142 m 265 1085 l 265 1233 l 586 1233 l 586 1085 l 265 1085 z "},"Ǫ":{"ha":850,"x_min":75,"x_max":775,"o":"m 578 -272 q 431 -160 431 -272 q 496 -10 431 -86 q 425 -11 474 -11 q 184 30 256 -11 q 94 165 113 71 q 75 478 75 258 q 94 791 75 697 q 184 926 113 885 q 425 967 256 967 q 665 926 593 967 q 756 790 738 885 q 775 478 775 696 q 769 251 775 331 q 740 117 763 171 q 671 33 718 63 q 595 -38 624 4 q 567 -125 567 -81 q 625 -175 567 -175 l 649 -174 l 649 -268 q 578 -272 606 -272 m 425 142 q 547 158 515 142 q 588 238 579 175 q 597 478 597 300 q 588 718 597 656 q 547 797 579 781 q 425 814 515 814 q 302 797 333 814 q 262 718 271 781 q 253 478 253 656 q 262 238 253 300 q 302 158 271 175 q 425 142 333 142 z "},"Ø":{"ha":849,"x_min":75,"x_max":776,"o":"m 706 894 q 764 756 751 846 q 776 478 776 665 q 758 165 776 260 q 666 30 739 71 q 425 -11 593 -11 q 261 3 325 -11 l 222 -76 l 75 -76 l 144 63 q 88 201 100 111 q 75 478 75 290 q 94 790 75 696 q 185 926 113 885 q 425 967 257 967 q 588 954 524 967 l 626 1032 l 775 1032 l 706 894 m 253 478 q 257 288 253 335 l 515 808 q 425 814 492 814 q 303 797 335 814 q 262 718 271 781 q 253 478 253 656 m 425 142 q 548 158 515 142 q 590 238 581 175 q 599 478 599 301 q 594 671 599 624 l 333 147 q 425 142 357 142 z "},"Ǿ":{"ha":849,"x_min":75,"x_max":776,"o":"m 706 894 q 764 756 751 846 q 776 478 776 665 q 758 165 776 260 q 666 30 739 71 q 425 -11 593 -11 q 261 3 325 -11 l 222 -76 l 75 -76 l 144 63 q 88 201 100 111 q 75 478 75 290 q 94 790 75 696 q 185 926 113 885 q 425 967 257 967 q 588 954 524 967 l 626 1032 l 775 1032 l 706 894 m 253 478 q 257 288 253 335 l 515 808 q 425 814 492 814 q 303 797 335 814 q 262 718 271 781 q 253 478 253 656 m 425 142 q 548 158 515 142 q 590 238 581 175 q 599 478 599 301 q 594 671 599 624 l 333 147 q 425 142 357 142 m 346 1033 l 346 1040 l 450 1233 l 619 1233 l 619 1226 l 474 1033 l 346 1033 z "},"Õ":{"ha":850,"x_min":75,"x_max":776,"o":"m 425 -11 q 185 30 257 -11 q 94 165 113 71 q 75 478 75 260 q 94 790 75 696 q 185 926 113 885 q 425 967 257 967 q 666 926 593 967 q 758 790 739 885 q 776 478 776 696 q 758 165 776 260 q 666 30 739 71 q 425 -11 593 -11 m 425 142 q 548 158 515 142 q 590 238 581 175 q 599 478 599 301 q 590 717 599 654 q 548 797 581 781 q 425 814 515 814 q 303 797 335 814 q 262 718 271 781 q 253 478 253 656 q 262 238 253 300 q 303 158 271 175 q 425 142 335 142 m 663 1236 q 656 1133 663 1168 q 627 1078 650 1097 q 554 1058 604 1058 q 490 1065 522 1058 q 411 1085 457 1072 q 367 1097 399 1088 q 314 1106 335 1106 q 285 1094 290 1106 q 281 1043 281 1082 l 186 1043 q 192 1147 186 1111 q 222 1201 199 1182 q 296 1221 246 1221 q 440 1194 346 1221 q 493 1181 467 1188 q 538 1175 519 1175 q 565 1187 560 1175 q 569 1236 569 1199 l 663 1236 z "},"Œ":{"ha":1217,"x_min":74,"x_max":1151,"o":"m 425 0 q 183 40 256 0 q 92 172 111 81 q 74 478 74 264 q 92 783 74 690 q 183 915 111 875 q 425 956 256 956 l 1151 956 l 1151 803 l 828 803 q 739 811 776 803 q 776 558 774 731 l 1099 558 l 1099 406 l 776 406 q 767 250 775 313 q 738 143 758 188 q 828 153 786 153 l 1151 153 l 1151 0 l 425 0 m 425 153 q 547 169 515 153 q 588 245 579 185 q 597 478 597 306 q 588 710 597 650 q 547 787 579 771 q 425 803 515 803 q 303 787 335 803 q 262 710 271 771 q 253 478 253 650 q 262 245 253 306 q 303 169 271 185 q 425 153 335 153 z "},"P":{"ha":783,"x_min":100,"x_max":736,"o":"m 100 956 l 472 956 q 638 919 581 956 q 716 815 696 882 q 736 639 736 747 q 717 467 736 535 q 639 360 697 400 q 469 321 581 321 l 276 321 l 276 0 l 100 0 l 100 956 m 411 474 q 510 487 481 474 q 549 533 540 500 q 558 639 558 565 q 549 745 558 713 q 511 790 540 778 q 414 803 482 803 l 276 803 l 276 474 l 411 474 z "},"Þ":{"ha":783,"x_min":100,"x_max":736,"o":"m 100 956 l 276 956 l 276 804 l 472 804 q 639 767 582 804 q 716 663 696 731 q 736 488 736 596 q 717 316 736 383 q 639 209 697 249 q 469 169 581 169 l 276 169 l 276 0 l 100 0 l 100 956 m 411 324 q 510 336 481 324 q 549 381 540 349 q 558 488 558 414 q 550 594 558 561 q 512 639 542 626 q 414 651 482 651 l 276 651 l 276 324 l 411 324 z "},"Q":{"ha":851,"x_min":75,"x_max":814,"o":"m 814 -154 l 814 -160 l 621 -160 l 525 -7 q 425 -11 482 -11 q 185 30 257 -11 q 94 165 113 71 q 75 478 75 260 q 94 790 75 696 q 185 926 113 885 q 425 967 257 967 q 666 926 593 967 q 758 790 739 885 q 776 478 776 696 q 771 262 776 340 q 745 128 765 183 q 683 43 725 74 l 814 -154 m 432 142 l 331 303 l 511 303 l 581 197 q 595 290 592 229 q 599 478 599 350 q 590 717 599 654 q 548 797 581 781 q 425 814 515 814 q 303 797 335 814 q 262 718 271 781 q 253 478 253 656 q 262 238 253 300 q 303 158 271 175 q 425 142 335 142 l 432 142 z "},"R":{"ha":818,"x_min":100,"x_max":767,"o":"m 579 0 l 460 349 l 276 349 l 276 0 l 100 0 l 100 956 l 483 956 q 652 920 594 956 q 729 821 710 885 q 749 653 749 757 q 724 483 749 556 q 629 378 700 410 l 767 0 l 579 0 m 425 501 q 522 514 492 501 q 562 557 553 526 q 571 653 571 588 q 562 749 571 719 q 524 790 553 778 q 426 803 494 803 l 276 803 l 276 501 l 425 501 z "},"Ŕ":{"ha":818,"x_min":100,"x_max":767,"o":"m 579 0 l 460 349 l 276 349 l 276 0 l 100 0 l 100 956 l 483 956 q 652 920 594 956 q 729 821 710 885 q 749 653 749 757 q 724 483 749 556 q 629 378 700 410 l 767 0 l 579 0 m 425 501 q 522 514 492 501 q 562 557 553 526 q 571 653 571 588 q 562 749 571 719 q 524 790 553 778 q 426 803 494 803 l 276 803 l 276 501 l 425 501 m 335 1033 l 335 1040 l 439 1233 l 608 1233 l 608 1226 l 463 1033 l 335 1033 z "},"Ř":{"ha":818,"x_min":100,"x_max":767,"o":"m 579 0 l 460 349 l 276 349 l 276 0 l 100 0 l 100 956 l 483 956 q 652 920 594 956 q 729 821 710 885 q 749 653 749 757 q 724 483 749 556 q 629 378 700 410 l 767 0 l 579 0 m 425 501 q 522 514 492 501 q 562 557 553 526 q 571 653 571 588 q 562 749 571 719 q 524 790 553 778 q 426 803 494 803 l 276 803 l 276 501 l 425 501 m 324 1040 l 204 1224 l 204 1233 l 317 1233 l 407 1119 l 499 1233 l 613 1233 l 613 1224 l 490 1040 l 324 1040 z "},"Ŗ":{"ha":818,"x_min":100,"x_max":767,"o":"m 579 0 l 460 349 l 276 349 l 276 0 l 100 0 l 100 956 l 483 956 q 652 920 594 956 q 729 821 710 885 q 749 653 749 757 q 724 483 749 556 q 629 378 700 410 l 767 0 l 579 0 m 425 501 q 522 514 492 501 q 562 557 553 526 q 571 653 571 588 q 562 749 571 719 q 524 790 553 778 q 426 803 494 803 l 276 803 l 276 501 l 425 501 m 314 -329 q 380 -317 364 -329 q 396 -267 396 -304 l 396 -244 l 326 -244 l 326 -86 l 503 -86 l 503 -199 q 490 -327 503 -286 q 438 -385 478 -368 q 314 -401 399 -401 l 314 -329 z "},"Ȑ":{"ha":818,"x_min":100,"x_max":767,"o":"m 579 0 l 460 349 l 276 349 l 276 0 l 100 0 l 100 956 l 483 956 q 652 920 594 956 q 729 821 710 885 q 749 653 749 757 q 724 483 749 556 q 629 378 700 410 l 767 0 l 579 0 m 425 501 q 522 514 492 501 q 562 557 553 526 q 571 653 571 588 q 562 749 571 719 q 524 790 553 778 q 426 803 494 803 l 276 803 l 276 501 l 425 501 m 357 1047 l 250 1047 l 124 1214 l 124 1221 l 264 1221 l 357 1053 l 357 1047 m 590 1047 l 485 1047 l 357 1214 l 357 1221 l 499 1221 l 590 1053 l 590 1047 z "},"Ṛ":{"ha":818,"x_min":100,"x_max":767,"o":"m 579 0 l 460 349 l 276 349 l 276 0 l 100 0 l 100 956 l 483 956 q 652 920 594 956 q 729 821 710 885 q 749 653 749 757 q 724 483 749 556 q 629 378 700 410 l 767 0 l 579 0 m 425 501 q 522 514 492 501 q 562 557 553 526 q 571 653 571 588 q 562 749 571 719 q 524 790 553 778 q 426 803 494 803 l 276 803 l 276 501 l 425 501 m 315 -260 l 315 -86 l 500 -86 l 500 -260 l 315 -260 z "},"Ȓ":{"ha":818,"x_min":100,"x_max":767,"o":"m 579 0 l 460 349 l 276 349 l 276 0 l 100 0 l 100 956 l 483 956 q 652 920 594 956 q 729 821 710 885 q 749 653 749 757 q 724 483 749 556 q 629 378 700 410 l 767 0 l 579 0 m 425 501 q 522 514 492 501 q 562 557 553 526 q 571 653 571 588 q 562 749 571 719 q 524 790 553 778 q 426 803 494 803 l 276 803 l 276 501 l 425 501 m 218 1044 q 231 1152 218 1111 q 286 1217 244 1193 q 410 1242 328 1242 q 533 1217 492 1242 q 586 1152 574 1193 q 599 1044 599 1111 l 497 1044 q 493 1102 497 1083 q 470 1132 489 1121 q 410 1143 451 1143 q 349 1132 368 1143 q 326 1101 331 1121 q 321 1044 321 1082 l 218 1044 z "},"S":{"ha":744,"x_min":61,"x_max":682,"o":"m 382 -11 q 228 -5 310 -11 q 83 11 146 1 l 83 157 q 331 142 239 142 q 428 149 393 142 q 479 171 463 156 q 500 207 496 185 q 504 271 504 229 q 498 344 504 322 q 474 377 492 367 q 413 394 456 388 l 236 419 q 99 497 136 432 q 61 683 61 561 q 99 862 61 800 q 205 945 138 924 q 376 967 272 967 q 519 959 447 967 q 640 940 592 951 l 640 797 q 419 814 540 814 q 323 808 358 814 q 269 790 288 803 q 244 756 250 778 q 239 692 239 735 q 244 624 239 644 q 267 594 250 603 q 324 581 283 586 l 501 557 q 598 526 560 549 q 658 451 636 503 q 682 288 682 393 q 647 96 682 161 q 548 10 611 31 q 382 -11 485 -11 z "},"Ś":{"ha":744,"x_min":61,"x_max":682,"o":"m 382 -11 q 228 -5 310 -11 q 83 11 146 1 l 83 157 q 331 142 239 142 q 428 149 393 142 q 479 171 463 156 q 500 207 496 185 q 504 271 504 229 q 498 344 504 322 q 474 377 492 367 q 413 394 456 388 l 236 419 q 99 497 136 432 q 61 683 61 561 q 99 862 61 800 q 205 945 138 924 q 376 967 272 967 q 519 959 447 967 q 640 940 592 951 l 640 797 q 419 814 540 814 q 323 808 358 814 q 269 790 288 803 q 244 756 250 778 q 239 692 239 735 q 244 624 239 644 q 267 594 250 603 q 324 581 283 586 l 501 557 q 598 526 560 549 q 658 451 636 503 q 682 288 682 393 q 647 96 682 161 q 548 10 611 31 q 382 -11 485 -11 m 299 1033 l 299 1040 l 403 1233 l 572 1233 l 572 1226 l 426 1033 l 299 1033 z "},"Ꞌ":{"ha":236,"x_min":39,"x_max":196,"o":"m 39 379 l 39 956 l 196 956 l 196 717 l 157 379 l 39 379 z "},"Š":{"ha":743,"x_min":61,"x_max":682,"o":"m 382 -11 q 228 -5 310 -11 q 83 11 146 1 l 83 157 q 331 142 239 142 q 428 149 393 142 q 479 171 463 156 q 500 207 496 185 q 504 271 504 229 q 498 344 504 322 q 474 377 492 367 q 413 394 456 388 l 236 419 q 99 497 136 432 q 61 683 61 561 q 99 862 61 800 q 205 945 138 924 q 376 967 272 967 q 519 959 447 967 q 640 940 592 951 l 640 797 q 419 814 540 814 q 323 808 358 814 q 269 790 288 803 q 244 756 250 778 q 239 692 239 735 q 244 624 239 644 q 267 594 250 603 q 324 581 283 586 l 501 557 q 598 526 560 549 q 658 451 636 503 q 682 288 682 393 q 647 96 682 161 q 548 10 611 31 q 382 -11 485 -11 m 296 1042 l 176 1225 l 176 1235 l 289 1235 l 379 1121 l 471 1235 l 585 1235 l 585 1225 l 463 1042 l 296 1042 z "},"Ş":{"ha":744,"x_min":61,"x_max":682,"o":"m 682 288 q 651 107 682 171 q 567 18 621 43 q 428 -10 513 -7 l 379 -264 l 225 -264 l 225 -257 l 311 -10 q 83 11 176 -6 l 83 157 q 331 142 239 142 q 428 149 393 142 q 479 171 463 156 q 500 207 496 185 q 504 271 504 229 q 498 344 504 322 q 474 377 492 367 q 413 394 456 388 l 236 419 q 99 497 136 432 q 61 683 61 561 q 99 862 61 800 q 205 945 138 924 q 376 967 272 967 q 519 959 447 967 q 640 940 592 951 l 640 797 q 419 814 540 814 q 323 808 358 814 q 269 790 288 803 q 244 756 250 778 q 239 692 239 735 q 244 624 239 644 q 267 594 250 603 q 324 581 283 586 l 501 557 q 598 526 560 549 q 658 451 636 503 q 682 288 682 393 z "},"Ŝ":{"ha":744,"x_min":61,"x_max":682,"o":"m 382 -11 q 228 -5 310 -11 q 83 11 146 1 l 83 157 q 331 142 239 142 q 428 149 393 142 q 479 171 463 156 q 500 207 496 185 q 504 271 504 229 q 498 344 504 322 q 474 377 492 367 q 413 394 456 388 l 236 419 q 99 497 136 432 q 61 683 61 561 q 99 862 61 800 q 205 945 138 924 q 376 967 272 967 q 519 959 447 967 q 640 940 592 951 l 640 797 q 419 814 540 814 q 323 808 358 814 q 269 790 288 803 q 244 756 250 778 q 239 692 239 735 q 244 624 239 644 q 267 594 250 603 q 324 581 283 586 l 501 557 q 598 526 560 549 q 658 451 636 503 q 682 288 682 393 q 647 96 682 161 q 548 10 611 31 q 382 -11 485 -11 m 168 1040 l 168 1051 l 288 1233 l 456 1233 l 576 1051 l 576 1040 l 463 1040 l 371 1156 l 281 1040 l 168 1040 z "},"Ș":{"ha":744,"x_min":61,"x_max":682,"o":"m 382 -11 q 228 -5 310 -11 q 83 11 146 1 l 83 157 q 331 142 239 142 q 428 149 393 142 q 479 171 463 156 q 500 207 496 185 q 504 271 504 229 q 498 344 504 322 q 474 377 492 367 q 413 394 456 388 l 236 419 q 99 497 136 432 q 61 683 61 561 q 99 862 61 800 q 205 945 138 924 q 376 967 272 967 q 519 959 447 967 q 640 940 592 951 l 640 797 q 419 814 540 814 q 323 808 358 814 q 269 790 288 803 q 244 756 250 778 q 239 692 239 735 q 244 624 239 644 q 267 594 250 603 q 324 581 283 586 l 501 557 q 598 526 560 549 q 658 451 636 503 q 682 288 682 393 q 647 96 682 161 q 548 10 611 31 q 382 -11 485 -11 m 278 -329 q 344 -317 328 -329 q 360 -267 360 -304 l 360 -244 l 290 -244 l 290 -86 l 467 -86 l 467 -199 q 454 -327 467 -286 q 402 -385 442 -368 q 278 -401 363 -401 l 278 -329 z "},"Ṣ":{"ha":744,"x_min":61,"x_max":682,"o":"m 382 -11 q 228 -5 310 -11 q 83 11 146 1 l 83 157 q 331 142 239 142 q 428 149 393 142 q 479 171 463 156 q 500 207 496 185 q 504 271 504 229 q 498 344 504 322 q 474 377 492 367 q 413 394 456 388 l 236 419 q 99 497 136 432 q 61 683 61 561 q 99 862 61 800 q 205 945 138 924 q 376 967 272 967 q 519 959 447 967 q 640 940 592 951 l 640 797 q 419 814 540 814 q 323 808 358 814 q 269 790 288 803 q 244 756 250 778 q 239 692 239 735 q 244 624 239 644 q 267 594 250 603 q 324 581 283 586 l 501 557 q 598 526 560 549 q 658 451 636 503 q 682 288 682 393 q 647 96 682 161 q 548 10 611 31 q 382 -11 485 -11 m 279 -260 l 279 -86 l 464 -86 l 464 -260 l 279 -260 z "},"ẞ":{"ha":899,"x_min":92,"x_max":832,"o":"m 593 532 q 729 501 678 528 q 806 415 781 474 q 832 254 832 356 q 763 52 832 115 q 531 -11 694 -11 q 439 -3 490 -11 q 351 15 388 4 l 351 156 q 500 142 435 142 q 595 151 564 142 q 640 187 626 160 q 653 271 653 214 q 642 356 653 326 q 605 396 631 385 q 532 407 579 407 l 399 407 l 399 538 l 589 807 q 475 814 536 814 q 333 794 372 814 q 281 711 293 774 q 269 488 269 649 l 269 0 l 92 0 l 92 488 q 119 788 92 689 q 220 926 146 886 q 449 967 294 967 q 623 956 532 967 q 781 929 714 944 l 781 799 l 593 532 z "},"Ə":{"ha":835,"x_min":75,"x_max":760,"o":"m 396 967 q 634 924 558 967 q 735 783 710 882 q 760 478 760 683 q 742 165 760 258 q 653 30 724 71 q 417 -11 582 -11 q 181 30 251 -11 q 93 165 111 71 q 75 478 75 258 l 75 560 l 582 560 q 563 731 579 681 q 503 798 547 782 q 354 814 458 814 q 171 801 264 814 l 171 944 q 277 960 214 954 q 396 967 340 967 m 417 142 q 530 155 499 142 q 572 219 561 168 q 583 406 582 271 l 251 406 q 264 219 253 271 q 305 155 275 168 q 417 142 335 142 z "},"T":{"ha":696,"x_min":22,"x_max":674,"o":"m 260 0 l 260 797 l 22 797 l 22 956 l 674 956 l 674 797 l 436 797 l 436 0 l 260 0 z "},"Ŧ":{"ha":696,"x_min":22,"x_max":674,"o":"m 674 797 l 436 797 l 436 532 l 646 532 l 646 394 l 436 394 l 436 0 l 260 0 l 260 394 l 50 394 l 50 532 l 260 532 l 260 797 l 22 797 l 22 956 l 674 956 l 674 797 z "},"Ť":{"ha":696,"x_min":22,"x_max":674,"o":"m 260 0 l 260 797 l 22 797 l 22 956 l 674 956 l 674 797 l 436 797 l 436 0 l 260 0 m 264 1040 l 144 1224 l 144 1233 l 257 1233 l 347 1119 l 439 1233 l 553 1233 l 553 1224 l 431 1040 l 264 1040 z "},"Ţ":{"ha":696,"x_min":22,"x_max":674,"o":"m 22 956 l 674 956 l 674 797 l 436 797 l 436 0 l 406 0 l 356 -264 l 201 -264 l 201 -257 l 290 0 l 260 0 l 260 797 l 22 797 l 22 956 z "},"Ț":{"ha":696,"x_min":22,"x_max":674,"o":"m 260 0 l 260 797 l 22 797 l 22 956 l 674 956 l 674 797 l 436 797 l 436 0 l 260 0 m 254 -329 q 320 -317 304 -329 q 336 -267 336 -304 l 336 -244 l 267 -244 l 267 -86 l 443 -86 l 443 -199 q 431 -327 443 -286 q 378 -385 418 -368 q 254 -401 339 -401 l 254 -329 z "},"Ṭ":{"ha":696,"x_min":22,"x_max":674,"o":"m 260 0 l 260 797 l 22 797 l 22 956 l 674 956 l 674 797 l 436 797 l 436 0 l 260 0 m 256 -260 l 256 -86 l 440 -86 l 440 -260 l 256 -260 z "},"U":{"ha":843,"x_min":92,"x_max":751,"o":"m 751 956 l 751 424 q 731 148 751 235 q 642 25 710 61 q 422 -11 574 -11 q 202 25 271 -11 q 113 149 133 61 q 92 424 92 236 l 92 956 l 269 956 l 269 368 q 278 215 269 258 q 316 157 286 172 q 422 142 346 142 q 528 157 499 142 q 566 215 558 172 q 574 368 574 257 l 574 956 l 751 956 z "},"Ú":{"ha":843,"x_min":92,"x_max":751,"o":"m 751 956 l 751 424 q 731 148 751 235 q 642 25 710 61 q 422 -11 574 -11 q 202 25 271 -11 q 113 149 133 61 q 92 424 92 236 l 92 956 l 269 956 l 269 368 q 278 215 269 258 q 316 157 286 172 q 422 142 346 142 q 528 157 499 142 q 566 215 558 172 q 574 368 574 257 l 574 956 l 751 956 m 357 1042 l 357 1049 l 461 1242 l 631 1242 l 631 1235 l 485 1042 l 357 1042 z "},"Ŭ":{"ha":843,"x_min":92,"x_max":751,"o":"m 751 956 l 751 424 q 731 148 751 235 q 642 25 710 61 q 422 -11 574 -11 q 202 25 271 -11 q 113 149 133 61 q 92 424 92 236 l 92 956 l 269 956 l 269 368 q 278 215 269 258 q 316 157 286 172 q 422 142 346 142 q 528 157 499 142 q 566 215 558 172 q 574 368 574 257 l 574 956 l 751 956 m 613 1233 q 599 1126 613 1167 q 544 1060 586 1085 q 421 1036 503 1036 q 298 1060 339 1036 q 244 1126 257 1085 q 232 1233 232 1167 l 333 1233 q 338 1176 333 1194 q 360 1146 342 1157 q 421 1135 379 1135 q 481 1146 463 1135 q 505 1176 500 1157 q 510 1233 510 1196 l 613 1233 z "},"Ǔ":{"ha":843,"x_min":92,"x_max":751,"o":"m 751 956 l 751 424 q 731 148 751 235 q 642 25 710 61 q 422 -11 574 -11 q 202 25 271 -11 q 113 149 133 61 q 92 424 92 236 l 92 956 l 269 956 l 269 368 q 278 215 269 258 q 316 157 286 172 q 422 142 346 142 q 528 157 499 142 q 566 215 558 172 q 574 368 574 257 l 574 956 l 751 956 m 338 1040 l 218 1224 l 218 1233 l 331 1233 l 421 1119 l 513 1233 l 626 1233 l 626 1224 l 504 1040 l 338 1040 z "},"Û":{"ha":843,"x_min":92,"x_max":751,"o":"m 751 956 l 751 424 q 731 148 751 235 q 642 25 710 61 q 422 -11 574 -11 q 202 25 271 -11 q 113 149 133 61 q 92 424 92 236 l 92 956 l 269 956 l 269 368 q 278 215 269 258 q 316 157 286 172 q 422 142 346 142 q 528 157 499 142 q 566 215 558 172 q 574 368 574 257 l 574 956 l 751 956 m 221 1042 l 221 1053 l 340 1235 l 508 1235 l 629 1053 l 629 1042 l 515 1042 l 424 1157 l 333 1042 l 221 1042 z "},"Ȕ":{"ha":843,"x_min":92,"x_max":751,"o":"m 751 956 l 751 424 q 731 148 751 235 q 642 25 710 61 q 422 -11 574 -11 q 202 25 271 -11 q 113 149 133 61 q 92 424 92 236 l 92 956 l 269 956 l 269 368 q 278 215 269 258 q 316 157 286 172 q 422 142 346 142 q 528 157 499 142 q 566 215 558 172 q 574 368 574 257 l 574 956 l 751 956 m 371 1047 l 264 1047 l 138 1214 l 138 1221 l 278 1221 l 371 1053 l 371 1047 m 604 1047 l 499 1047 l 371 1214 l 371 1221 l 513 1221 l 604 1053 l 604 1047 z "},"Ü":{"ha":843,"x_min":92,"x_max":751,"o":"m 751 956 l 751 424 q 731 148 751 235 q 642 25 710 61 q 422 -11 574 -11 q 202 25 271 -11 q 113 149 133 61 q 92 424 92 236 l 92 956 l 269 956 l 269 368 q 278 215 269 258 q 316 157 286 172 q 422 142 346 142 q 528 157 499 142 q 566 215 558 172 q 574 368 574 257 l 574 956 l 751 956 m 219 1082 l 219 1218 l 365 1218 l 365 1082 l 219 1082 m 479 1082 l 479 1218 l 624 1218 l 624 1082 l 479 1082 z "},"Ǘ":{"ha":843,"x_min":92,"x_max":751,"o":"m 365 1210 l 365 1079 l 219 1079 l 219 1215 l 351 1215 l 351 1217 l 456 1410 l 625 1410 l 625 1403 l 483 1215 l 624 1215 l 624 1079 l 479 1079 l 479 1210 l 365 1210 m 751 956 l 751 424 q 731 148 751 235 q 642 25 710 61 q 422 -11 574 -11 q 202 25 271 -11 q 113 149 133 61 q 92 424 92 236 l 92 956 l 269 956 l 269 368 q 278 215 269 258 q 316 157 286 172 q 422 142 346 142 q 528 157 499 142 q 566 215 558 172 q 574 368 574 257 l 574 956 l 751 956 z "},"Ǚ":{"ha":843,"x_min":92,"x_max":751,"o":"m 751 956 l 751 424 q 731 148 751 235 q 642 25 710 61 q 422 -11 574 -11 q 202 25 271 -11 q 113 149 133 61 q 92 424 92 236 l 92 956 l 269 956 l 269 368 q 278 215 269 258 q 316 157 286 172 q 422 142 346 142 q 528 157 499 142 q 566 215 558 172 q 574 368 574 257 l 574 956 l 751 956 m 219 1079 l 219 1215 l 365 1215 l 365 1079 l 219 1079 m 479 1079 l 479 1215 l 624 1215 l 624 1079 l 479 1079 m 340 1217 l 221 1400 l 221 1410 l 333 1410 l 424 1296 l 515 1410 l 629 1410 l 629 1400 l 507 1217 l 340 1217 z "},"Ǜ":{"ha":843,"x_min":92,"x_max":751,"o":"m 365 1214 l 365 1079 l 219 1079 l 219 1215 l 364 1215 l 222 1403 l 222 1410 l 392 1410 l 496 1217 l 496 1215 l 624 1215 l 624 1079 l 479 1079 l 479 1210 l 368 1210 l 365 1214 m 751 956 l 751 424 q 731 148 751 235 q 642 25 710 61 q 422 -11 574 -11 q 202 25 271 -11 q 113 149 133 61 q 92 424 92 236 l 92 956 l 269 956 l 269 368 q 278 215 269 258 q 316 157 286 172 q 422 142 346 142 q 528 157 499 142 q 566 215 558 172 q 574 368 574 257 l 574 956 l 751 956 z "},"Ǖ":{"ha":843,"x_min":92,"x_max":751,"o":"m 264 1258 l 264 1403 l 585 1403 l 585 1258 l 264 1258 m 219 1079 l 219 1215 l 365 1215 l 365 1079 l 219 1079 m 479 1079 l 479 1215 l 624 1215 l 624 1079 l 479 1079 m 751 956 l 751 424 q 731 148 751 235 q 642 25 710 61 q 422 -11 574 -11 q 202 25 271 -11 q 113 149 133 61 q 92 424 92 236 l 92 956 l 269 956 l 269 368 q 278 215 269 258 q 316 157 286 172 q 422 142 346 142 q 528 157 499 142 q 566 215 558 172 q 574 368 574 257 l 574 956 l 751 956 z "},"Ụ":{"ha":843,"x_min":92,"x_max":751,"o":"m 751 956 l 751 424 q 731 148 751 235 q 642 25 710 61 q 422 -11 574 -11 q 202 25 271 -11 q 113 149 133 61 q 92 424 92 236 l 92 956 l 269 956 l 269 368 q 278 215 269 258 q 316 157 286 172 q 422 142 346 142 q 528 157 499 142 q 566 215 558 172 q 574 368 574 257 l 574 956 l 751 956 m 329 -260 l 329 -86 l 514 -86 l 514 -260 l 329 -260 z "},"Ù":{"ha":843,"x_min":92,"x_max":751,"o":"m 751 956 l 751 424 q 731 148 751 235 q 642 25 710 61 q 422 -11 574 -11 q 202 25 271 -11 q 113 149 133 61 q 92 424 92 236 l 92 956 l 269 956 l 269 368 q 278 215 269 258 q 316 157 286 172 q 422 142 346 142 q 528 157 499 142 q 566 215 558 172 q 574 368 574 257 l 574 956 l 751 956 m 375 1042 l 229 1235 l 229 1242 l 399 1242 l 503 1049 l 503 1042 l 375 1042 z "},"Ủ":{"ha":843,"x_min":92,"x_max":751,"o":"m 751 956 l 751 424 q 731 148 751 235 q 642 25 710 61 q 422 -11 574 -11 q 202 25 271 -11 q 113 149 133 61 q 92 424 92 236 l 92 956 l 269 956 l 269 368 q 278 215 269 258 q 316 157 286 172 q 422 142 346 142 q 528 157 499 142 q 566 215 558 172 q 574 368 574 257 l 574 956 l 751 956 m 336 1029 q 349 1084 336 1068 q 397 1113 361 1100 l 421 1121 q 464 1140 454 1132 q 474 1167 474 1149 q 458 1195 474 1189 q 394 1201 443 1201 q 256 1194 328 1201 l 256 1286 q 411 1300 339 1300 q 546 1276 503 1300 q 589 1178 589 1251 q 572 1108 589 1131 q 510 1068 556 1085 l 483 1057 q 443 1038 450 1044 q 436 1010 436 1031 l 336 1010 l 336 1029 z "},"Ư":{"ha":843,"x_min":92,"x_max":878,"o":"m 878 1086 l 878 1047 q 868 958 878 990 q 832 910 858 926 q 751 888 806 893 l 751 424 q 731 148 751 235 q 642 25 710 61 q 422 -11 574 -11 q 202 25 271 -11 q 113 149 133 61 q 92 424 92 236 l 92 956 l 269 956 l 269 368 q 278 215 269 258 q 316 157 286 172 q 422 142 346 142 q 528 157 499 142 q 566 215 558 172 q 574 368 574 257 l 574 956 l 676 956 q 735 962 715 956 q 760 983 754 968 q 767 1026 767 997 l 767 1086 l 878 1086 z "},"Ứ":{"ha":843,"x_min":92,"x_max":878,"o":"m 878 1086 l 878 1047 q 868 958 878 990 q 832 910 858 926 q 751 888 806 893 l 751 424 q 731 148 751 235 q 642 25 710 61 q 422 -11 574 -11 q 202 25 271 -11 q 113 149 133 61 q 92 424 92 236 l 92 956 l 269 956 l 269 368 q 278 215 269 258 q 316 157 286 172 q 422 142 346 142 q 528 157 499 142 q 566 215 558 172 q 574 368 574 257 l 574 956 l 676 956 q 735 962 715 956 q 760 983 754 968 q 767 1026 767 997 l 767 1086 l 878 1086 m 349 1033 l 349 1040 l 453 1233 l 622 1233 l 622 1226 l 476 1033 l 349 1033 z "},"Ự":{"ha":843,"x_min":92,"x_max":878,"o":"m 878 1086 l 878 1047 q 868 958 878 990 q 832 910 858 926 q 751 888 806 893 l 751 424 q 731 148 751 235 q 642 25 710 61 q 422 -11 574 -11 q 202 25 271 -11 q 113 149 133 61 q 92 424 92 236 l 92 956 l 269 956 l 269 368 q 278 215 269 258 q 316 157 286 172 q 422 142 346 142 q 528 157 499 142 q 566 215 558 172 q 574 368 574 257 l 574 956 l 676 956 q 735 962 715 956 q 760 983 754 968 q 767 1026 767 997 l 767 1086 l 878 1086 m 329 -260 l 329 -86 l 514 -86 l 514 -260 l 329 -260 z "},"Ừ":{"ha":843,"x_min":92,"x_max":878,"o":"m 878 1086 l 878 1047 q 868 958 878 990 q 832 910 858 926 q 751 888 806 893 l 751 424 q 731 148 751 235 q 642 25 710 61 q 422 -11 574 -11 q 202 25 271 -11 q 113 149 133 61 q 92 424 92 236 l 92 956 l 269 956 l 269 368 q 278 215 269 258 q 316 157 286 172 q 422 142 346 142 q 528 157 499 142 q 566 215 558 172 q 574 368 574 257 l 574 956 l 676 956 q 735 962 715 956 q 760 983 754 968 q 767 1026 767 997 l 767 1086 l 878 1086 m 365 1033 l 219 1226 l 219 1233 l 389 1233 l 493 1040 l 493 1033 l 365 1033 z "},"Ử":{"ha":843,"x_min":92,"x_max":878,"o":"m 878 1086 l 878 1047 q 868 958 878 990 q 832 910 858 926 q 751 888 806 893 l 751 424 q 731 148 751 235 q 642 25 710 61 q 422 -11 574 -11 q 202 25 271 -11 q 113 149 133 61 q 92 424 92 236 l 92 956 l 269 956 l 269 368 q 278 215 269 258 q 316 157 286 172 q 422 142 346 142 q 528 157 499 142 q 566 215 558 172 q 574 368 574 257 l 574 956 l 676 956 q 735 962 715 956 q 760 983 754 968 q 767 1026 767 997 l 767 1086 l 878 1086 m 336 1029 q 349 1084 336 1068 q 397 1113 361 1100 l 421 1121 q 464 1140 454 1132 q 474 1167 474 1149 q 458 1195 474 1189 q 394 1201 443 1201 q 256 1194 328 1201 l 256 1286 q 411 1300 339 1300 q 546 1276 503 1300 q 589 1178 589 1251 q 572 1108 589 1131 q 510 1068 556 1085 l 483 1057 q 443 1038 450 1044 q 436 1010 436 1031 l 336 1010 l 336 1029 z "},"Ữ":{"ha":843,"x_min":92,"x_max":878,"o":"m 878 1086 l 878 1047 q 868 958 878 990 q 832 910 858 926 q 751 888 806 893 l 751 424 q 731 148 751 235 q 642 25 710 61 q 422 -11 574 -11 q 202 25 271 -11 q 113 149 133 61 q 92 424 92 236 l 92 956 l 269 956 l 269 368 q 278 215 269 258 q 316 157 286 172 q 422 142 346 142 q 528 157 499 142 q 566 215 558 172 q 574 368 574 257 l 574 956 l 676 956 q 735 962 715 956 q 760 983 754 968 q 767 1026 767 997 l 767 1086 l 878 1086 m 660 1233 q 653 1130 660 1165 q 624 1075 647 1094 q 551 1056 601 1056 q 487 1063 519 1056 q 408 1082 454 1069 q 364 1094 396 1085 q 311 1103 332 1103 q 283 1091 288 1103 q 278 1040 278 1079 l 183 1040 q 190 1144 183 1108 q 219 1199 196 1179 q 293 1218 243 1218 q 438 1192 343 1218 q 490 1178 464 1185 q 535 1172 517 1172 q 562 1184 557 1172 q 567 1233 567 1196 l 660 1233 z "},"Ű":{"ha":843,"x_min":92,"x_max":751,"o":"m 751 956 l 751 424 q 731 148 751 235 q 642 25 710 61 q 422 -11 574 -11 q 202 25 271 -11 q 113 149 133 61 q 92 424 92 236 l 92 956 l 269 956 l 269 368 q 278 215 269 258 q 316 157 286 172 q 422 142 346 142 q 528 157 499 142 q 566 215 558 172 q 574 368 574 257 l 574 956 l 751 956 m 250 1047 l 250 1053 l 342 1221 l 483 1221 l 483 1214 l 356 1047 l 250 1047 m 483 1047 l 483 1053 l 576 1221 l 717 1221 l 717 1214 l 590 1047 l 483 1047 z "},"Ȗ":{"ha":843,"x_min":92,"x_max":751,"o":"m 751 956 l 751 424 q 731 148 751 235 q 642 25 710 61 q 422 -11 574 -11 q 202 25 271 -11 q 113 149 133 61 q 92 424 92 236 l 92 956 l 269 956 l 269 368 q 278 215 269 258 q 316 157 286 172 q 422 142 346 142 q 528 157 499 142 q 566 215 558 172 q 574 368 574 257 l 574 956 l 751 956 m 232 1044 q 245 1152 232 1111 q 300 1217 258 1193 q 424 1242 342 1242 q 547 1217 506 1242 q 600 1152 588 1193 q 613 1044 613 1111 l 511 1044 q 507 1102 511 1083 q 484 1132 503 1121 q 424 1143 465 1143 q 363 1132 382 1143 q 340 1101 344 1121 q 335 1044 335 1082 l 232 1044 z "},"Ū":{"ha":843,"x_min":92,"x_max":751,"o":"m 751 956 l 751 424 q 731 148 751 235 q 642 25 710 61 q 422 -11 574 -11 q 202 25 271 -11 q 113 149 133 61 q 92 424 92 236 l 92 956 l 269 956 l 269 368 q 278 215 269 258 q 316 157 286 172 q 422 142 346 142 q 528 157 499 142 q 566 215 558 172 q 574 368 574 257 l 574 956 l 751 956 m 261 1085 l 261 1233 l 582 1233 l 582 1085 l 261 1085 z "},"Ų":{"ha":843,"x_min":92,"x_max":751,"o":"m 751 956 l 751 424 q 744 226 751 300 q 715 104 736 153 q 649 29 693 56 q 569 -39 597 -3 q 542 -124 542 -75 q 556 -162 542 -149 q 603 -175 569 -175 l 624 -174 l 624 -268 q 551 -272 581 -272 q 404 -158 404 -272 q 474 -10 404 -89 q 422 -11 457 -11 q 202 25 271 -11 q 113 149 133 61 q 92 424 92 236 l 92 956 l 269 956 l 269 368 q 278 215 269 258 q 316 157 286 172 q 422 142 346 142 q 528 157 499 142 q 566 215 558 172 q 574 368 574 257 l 574 956 l 751 956 z "},"Ů":{"ha":843,"x_min":92,"x_max":751,"o":"m 751 956 l 751 424 q 731 148 751 235 q 642 25 710 61 q 422 -11 574 -11 q 202 25 271 -11 q 113 149 133 61 q 92 424 92 236 l 92 956 l 269 956 l 269 368 q 278 215 269 258 q 316 157 286 172 q 422 142 346 142 q 528 157 499 142 q 566 215 558 172 q 574 368 574 257 l 574 956 l 751 956 m 419 996 q 298 1011 336 996 q 249 1057 260 1026 q 239 1149 239 1088 q 249 1241 239 1210 q 298 1288 260 1272 q 419 1304 336 1304 q 544 1288 506 1304 q 594 1241 583 1272 q 604 1149 604 1210 q 594 1057 604 1088 q 544 1011 583 1026 q 419 996 506 996 m 419 1075 q 478 1081 461 1075 q 499 1101 494 1088 q 503 1149 503 1115 q 499 1197 503 1183 q 478 1217 494 1211 q 419 1224 461 1224 q 365 1217 381 1224 q 344 1197 349 1211 q 340 1149 340 1182 q 344 1101 340 1115 q 365 1081 349 1088 q 419 1075 381 1075 z "},"Ũ":{"ha":843,"x_min":92,"x_max":751,"o":"m 751 956 l 751 424 q 731 148 751 235 q 642 25 710 61 q 422 -11 574 -11 q 202 25 271 -11 q 113 149 133 61 q 92 424 92 236 l 92 956 l 269 956 l 269 368 q 278 215 269 258 q 316 157 286 172 q 422 142 346 142 q 528 157 499 142 q 566 215 558 172 q 574 368 574 257 l 574 956 l 751 956 m 660 1233 q 653 1130 660 1165 q 624 1075 647 1094 q 551 1056 601 1056 q 487 1063 519 1056 q 408 1082 454 1069 q 364 1094 396 1085 q 311 1103 332 1103 q 283 1091 288 1103 q 278 1040 278 1079 l 183 1040 q 190 1144 183 1108 q 219 1199 196 1179 q 293 1218 243 1218 q 438 1192 343 1218 q 490 1178 464 1185 q 535 1172 517 1172 q 562 1184 557 1172 q 567 1233 567 1196 l 660 1233 z "},"V":{"ha":797,"x_min":21,"x_max":776,"o":"m 275 0 l 21 956 l 203 956 l 397 192 l 406 192 l 597 956 l 776 956 l 521 0 l 275 0 z "},"W":{"ha":1208,"x_min":31,"x_max":1182,"o":"m 756 0 l 608 688 l 603 688 l 456 0 l 224 0 l 31 956 l 210 956 l 346 206 l 354 206 l 511 956 l 708 956 l 867 206 l 875 206 l 1006 956 l 1182 956 l 988 0 l 756 0 z "},"Ẃ":{"ha":1208,"x_min":31,"x_max":1182,"o":"m 756 0 l 608 688 l 603 688 l 456 0 l 224 0 l 31 956 l 210 956 l 346 206 l 354 206 l 511 956 l 708 956 l 867 206 l 875 206 l 1006 956 l 1182 956 l 988 0 l 756 0 m 531 1033 l 531 1040 l 635 1233 l 804 1233 l 804 1226 l 658 1033 l 531 1033 z "},"Ŵ":{"ha":1208,"x_min":31,"x_max":1182,"o":"m 756 0 l 608 688 l 603 688 l 456 0 l 224 0 l 31 956 l 210 956 l 346 206 l 354 206 l 511 956 l 708 956 l 867 206 l 875 206 l 1006 956 l 1182 956 l 988 0 l 756 0 m 400 1040 l 400 1051 l 519 1233 l 688 1233 l 808 1051 l 808 1040 l 694 1040 l 603 1156 l 513 1040 l 400 1040 z "},"Ẅ":{"ha":1208,"x_min":31,"x_max":1182,"o":"m 756 0 l 608 688 l 603 688 l 456 0 l 224 0 l 31 956 l 210 956 l 346 206 l 354 206 l 511 956 l 708 956 l 867 206 l 875 206 l 1006 956 l 1182 956 l 988 0 l 756 0 m 401 1079 l 401 1215 l 547 1215 l 547 1079 l 401 1079 m 661 1079 l 661 1215 l 806 1215 l 806 1079 l 661 1079 z "},"Ẁ":{"ha":1208,"x_min":31,"x_max":1182,"o":"m 756 0 l 608 688 l 603 688 l 456 0 l 224 0 l 31 956 l 210 956 l 346 206 l 354 206 l 511 956 l 708 956 l 867 206 l 875 206 l 1006 956 l 1182 956 l 988 0 l 756 0 m 547 1033 l 401 1226 l 401 1233 l 571 1233 l 675 1040 l 675 1033 l 547 1033 z "},"X":{"ha":819,"x_min":22,"x_max":797,"o":"m 596 0 l 411 344 l 401 344 l 217 0 l 22 0 l 296 481 l 28 956 l 226 956 l 407 622 l 418 622 l 599 956 l 793 956 l 525 485 l 797 0 l 596 0 z "},"Y":{"ha":751,"x_min":4,"x_max":747,"o":"m 286 0 l 286 339 l 4 956 l 189 956 l 375 529 l 385 529 l 568 956 l 747 956 l 464 339 l 464 0 l 286 0 z "},"Ý":{"ha":751,"x_min":4,"x_max":747,"o":"m 286 0 l 286 339 l 4 956 l 189 956 l 375 529 l 385 529 l 568 956 l 747 956 l 464 339 l 464 0 l 286 0 m 315 1042 l 315 1049 l 419 1242 l 589 1242 l 589 1235 l 443 1042 l 315 1042 z "},"Ŷ":{"ha":751,"x_min":4,"x_max":747,"o":"m 286 0 l 286 339 l 4 956 l 189 956 l 375 529 l 385 529 l 568 956 l 747 956 l 464 339 l 464 0 l 286 0 m 172 1040 l 172 1051 l 292 1233 l 460 1233 l 581 1051 l 581 1040 l 467 1040 l 375 1156 l 285 1040 l 172 1040 z "},"Ÿ":{"ha":751,"x_min":4,"x_max":747,"o":"m 286 0 l 286 339 l 4 956 l 189 956 l 375 529 l 385 529 l 568 956 l 747 956 l 464 339 l 464 0 l 286 0 m 179 1082 l 179 1218 l 325 1218 l 325 1082 l 179 1082 m 439 1082 l 439 1218 l 583 1218 l 583 1082 l 439 1082 z "},"Ỵ":{"ha":751,"x_min":4,"x_max":747,"o":"m 286 0 l 286 339 l 4 956 l 189 956 l 375 529 l 385 529 l 568 956 l 747 956 l 464 339 l 464 0 l 286 0 m 283 -260 l 283 -86 l 468 -86 l 468 -260 l 283 -260 z "},"Ỳ":{"ha":751,"x_min":4,"x_max":747,"o":"m 286 0 l 286 339 l 4 956 l 189 956 l 375 529 l 385 529 l 568 956 l 747 956 l 464 339 l 464 0 l 286 0 m 319 1033 l 174 1226 l 174 1233 l 343 1233 l 447 1040 l 447 1033 l 319 1033 z "},"Ỷ":{"ha":751,"x_min":4,"x_max":747,"o":"m 286 0 l 286 339 l 4 956 l 189 956 l 375 529 l 385 529 l 568 956 l 747 956 l 464 339 l 464 0 l 286 0 m 290 1029 q 303 1084 290 1068 q 351 1113 315 1100 l 375 1121 q 418 1140 408 1132 q 428 1167 428 1149 q 413 1195 428 1189 q 349 1201 397 1201 q 210 1194 282 1201 l 210 1286 q 365 1300 293 1300 q 500 1276 457 1300 q 543 1178 543 1251 q 526 1108 543 1131 q 464 1068 510 1085 l 438 1057 q 397 1038 404 1044 q 390 1010 390 1031 l 290 1010 l 290 1029 z "},"Ȳ":{"ha":751,"x_min":4,"x_max":747,"o":"m 286 0 l 286 339 l 4 956 l 189 956 l 375 529 l 385 529 l 568 956 l 747 956 l 464 339 l 464 0 l 286 0 m 215 1085 l 215 1233 l 536 1233 l 536 1085 l 215 1085 z "},"Ỹ":{"ha":751,"x_min":4,"x_max":747,"o":"m 286 0 l 286 339 l 4 956 l 189 956 l 375 529 l 385 529 l 568 956 l 747 956 l 464 339 l 464 0 l 286 0 m 614 1233 q 608 1130 614 1165 q 578 1075 601 1094 q 506 1056 556 1056 q 441 1063 474 1056 q 363 1082 408 1069 q 318 1094 350 1085 q 265 1103 286 1103 q 237 1091 242 1103 q 232 1040 232 1079 l 138 1040 q 144 1144 138 1108 q 174 1199 150 1179 q 247 1218 197 1218 q 392 1192 297 1218 q 444 1178 418 1185 q 489 1172 471 1172 q 516 1184 511 1172 q 521 1233 521 1196 l 614 1233 z "},"Z":{"ha":731,"x_min":54,"x_max":678,"o":"m 54 0 l 54 146 l 460 803 l 68 803 l 68 956 l 674 956 l 674 813 l 265 153 l 678 153 l 678 0 l 54 0 z "},"Ź":{"ha":731,"x_min":54,"x_max":678,"o":"m 54 0 l 54 146 l 460 803 l 68 803 l 68 956 l 674 956 l 674 813 l 265 153 l 678 153 l 678 0 l 54 0 m 292 1033 l 292 1040 l 396 1233 l 565 1233 l 565 1226 l 419 1033 l 292 1033 z "},"Ž":{"ha":731,"x_min":54,"x_max":678,"o":"m 54 0 l 54 146 l 460 803 l 68 803 l 68 956 l 674 956 l 674 813 l 265 153 l 678 153 l 678 0 l 54 0 m 293 1042 l 174 1225 l 174 1235 l 286 1235 l 376 1121 l 468 1235 l 582 1235 l 582 1225 l 460 1042 l 293 1042 z "},"Ż":{"ha":731,"x_min":54,"x_max":678,"o":"m 54 0 l 54 146 l 460 803 l 68 803 l 68 956 l 674 956 l 674 813 l 265 153 l 678 153 l 678 0 l 54 0 m 293 1079 l 293 1215 l 438 1215 l 438 1079 l 293 1079 z "},"Ẓ":{"ha":731,"x_min":54,"x_max":678,"o":"m 54 0 l 54 146 l 460 803 l 68 803 l 68 956 l 674 956 l 674 813 l 265 153 l 678 153 l 678 0 l 54 0 m 272 -260 l 272 -86 l 457 -86 l 457 -260 l 272 -260 z "},"a":{"ha":690,"x_min":51,"x_max":604,"o":"m 240 -11 q 97 39 143 -11 q 51 200 51 89 q 69 330 51 283 q 131 398 88 376 q 253 419 175 419 q 438 414 315 419 l 438 444 q 426 537 438 510 q 383 572 414 564 q 275 579 351 579 q 182 576 239 579 q 90 568 125 572 l 90 699 q 328 719 211 719 q 505 692 446 719 q 584 605 564 664 q 604 436 604 546 l 604 0 l 449 0 l 443 86 l 433 86 q 240 -11 390 -11 m 317 129 q 378 137 356 129 q 417 167 401 144 q 438 278 438 199 l 438 306 l 299 306 q 245 299 263 306 q 221 274 228 293 q 214 215 214 256 q 222 160 214 178 q 250 135 229 142 q 317 129 271 129 z "},"á":{"ha":690,"x_min":51,"x_max":604,"o":"m 240 -11 q 97 39 143 -11 q 51 200 51 89 q 69 330 51 283 q 131 398 88 376 q 253 419 175 419 q 438 414 315 419 l 438 444 q 426 537 438 510 q 383 572 414 564 q 275 579 351 579 q 182 576 239 579 q 90 568 125 572 l 90 699 q 328 719 211 719 q 505 692 446 719 q 584 605 564 664 q 604 436 604 546 l 604 0 l 449 0 l 443 86 l 433 86 q 240 -11 390 -11 m 317 129 q 378 137 356 129 q 417 167 401 144 q 438 278 438 199 l 438 306 l 299 306 q 245 299 263 306 q 221 274 228 293 q 214 215 214 256 q 222 160 214 178 q 250 135 229 142 q 317 129 271 129 m 269 832 l 269 839 l 374 1032 l 543 1032 l 543 1025 l 397 832 l 269 832 z "},"ă":{"ha":690,"x_min":51,"x_max":604,"o":"m 240 -11 q 97 39 143 -11 q 51 200 51 89 q 69 330 51 283 q 131 398 88 376 q 253 419 175 419 q 438 414 315 419 l 438 444 q 426 537 438 510 q 383 572 414 564 q 275 579 351 579 q 182 576 239 579 q 90 568 125 572 l 90 699 q 328 719 211 719 q 505 692 446 719 q 584 605 564 664 q 604 436 604 546 l 604 0 l 449 0 l 443 86 l 433 86 q 240 -11 390 -11 m 317 129 q 378 137 356 129 q 417 167 401 144 q 438 278 438 199 l 438 306 l 299 306 q 245 299 263 306 q 221 274 228 293 q 214 215 214 256 q 222 160 214 178 q 250 135 229 142 q 317 129 271 129 m 536 1032 q 523 924 536 965 q 468 859 510 883 q 344 835 426 835 q 222 859 263 835 q 168 924 181 883 q 156 1032 156 965 l 257 1032 q 261 974 257 993 q 284 944 265 956 q 344 933 303 933 q 405 944 386 933 q 428 975 424 956 q 433 1032 433 994 l 536 1032 z "},"ắ":{"ha":690,"x_min":51,"x_max":604,"o":"m 240 -11 q 97 39 143 -11 q 51 200 51 89 q 69 330 51 283 q 131 398 88 376 q 253 419 175 419 q 438 414 315 419 l 438 444 q 426 537 438 510 q 383 572 414 564 q 275 579 351 579 q 182 576 239 579 q 90 568 125 572 l 90 699 q 328 719 211 719 q 505 692 446 719 q 584 605 564 664 q 604 436 604 546 l 604 0 l 449 0 l 443 86 l 433 86 q 240 -11 390 -11 m 317 129 q 378 137 356 129 q 417 167 401 144 q 438 278 438 199 l 438 306 l 299 306 q 245 299 263 306 q 221 274 228 293 q 214 215 214 256 q 222 160 214 178 q 250 135 229 142 q 317 129 271 129 m 528 1032 q 515 924 528 965 q 460 859 501 883 q 336 835 418 835 q 213 859 254 835 q 160 924 172 883 q 147 1032 147 965 l 249 1032 q 253 974 249 993 q 276 944 257 956 q 336 933 294 933 q 397 944 378 933 q 420 975 415 956 q 425 1032 425 994 l 528 1032 m 265 1072 l 265 1079 l 369 1272 l 539 1272 l 539 1265 l 393 1072 l 265 1072 z "},"ặ":{"ha":690,"x_min":51,"x_max":604,"o":"m 240 -11 q 97 39 143 -11 q 51 200 51 89 q 69 330 51 283 q 131 398 88 376 q 253 419 175 419 q 438 414 315 419 l 438 444 q 426 537 438 510 q 383 572 414 564 q 275 579 351 579 q 182 576 239 579 q 90 568 125 572 l 90 699 q 328 719 211 719 q 505 692 446 719 q 584 605 564 664 q 604 436 604 546 l 604 0 l 449 0 l 443 86 l 433 86 q 240 -11 390 -11 m 317 129 q 378 137 356 129 q 417 167 401 144 q 438 278 438 199 l 438 306 l 299 306 q 245 299 263 306 q 221 274 228 293 q 214 215 214 256 q 222 160 214 178 q 250 135 229 142 q 317 129 271 129 m 253 -260 l 253 -86 l 438 -86 l 438 -260 l 253 -260 m 536 1032 q 523 924 536 965 q 468 859 510 883 q 344 835 426 835 q 222 859 263 835 q 168 924 181 883 q 156 1032 156 965 l 257 1032 q 261 974 257 993 q 284 944 265 956 q 344 933 303 933 q 405 944 386 933 q 428 975 424 956 q 433 1032 433 994 l 536 1032 z "},"ằ":{"ha":690,"x_min":51,"x_max":604,"o":"m 240 -11 q 97 39 143 -11 q 51 200 51 89 q 69 330 51 283 q 131 398 88 376 q 253 419 175 419 q 438 414 315 419 l 438 444 q 426 537 438 510 q 383 572 414 564 q 275 579 351 579 q 182 576 239 579 q 90 568 125 572 l 90 699 q 328 719 211 719 q 505 692 446 719 q 584 605 564 664 q 604 436 604 546 l 604 0 l 449 0 l 443 86 l 433 86 q 240 -11 390 -11 m 317 129 q 378 137 356 129 q 417 167 401 144 q 438 278 438 199 l 438 306 l 299 306 q 245 299 263 306 q 221 274 228 293 q 214 215 214 256 q 222 160 214 178 q 250 135 229 142 q 317 129 271 129 m 543 1032 q 530 924 543 965 q 475 859 517 883 q 351 835 433 835 q 228 859 269 835 q 175 924 188 883 q 163 1032 163 965 l 264 1032 q 268 974 264 993 q 291 944 272 956 q 351 933 310 933 q 412 944 393 933 q 435 975 431 956 q 440 1032 440 994 l 543 1032 m 297 1072 l 151 1265 l 151 1272 l 321 1272 l 425 1079 l 425 1072 l 297 1072 z "},"ẳ":{"ha":690,"x_min":51,"x_max":604,"o":"m 240 -11 q 97 39 143 -11 q 51 200 51 89 q 69 330 51 283 q 131 398 88 376 q 253 419 175 419 q 438 414 315 419 l 438 444 q 426 537 438 510 q 383 572 414 564 q 275 579 351 579 q 182 576 239 579 q 90 568 125 572 l 90 699 q 328 719 211 719 q 505 692 446 719 q 584 605 564 664 q 604 436 604 546 l 604 0 l 449 0 l 443 86 l 433 86 q 240 -11 390 -11 m 317 129 q 378 137 356 129 q 417 167 401 144 q 438 278 438 199 l 438 306 l 299 306 q 245 299 263 306 q 221 274 228 293 q 214 215 214 256 q 222 160 214 178 q 250 135 229 142 q 317 129 271 129 m 533 1032 q 520 924 533 965 q 465 859 507 883 q 342 835 424 835 q 219 859 260 835 q 165 924 178 883 q 153 1032 153 965 l 254 1032 q 258 974 254 993 q 281 944 263 956 q 342 933 300 933 q 402 944 383 933 q 426 975 421 956 q 431 1032 431 994 l 533 1032 m 274 1051 q 286 1108 274 1092 q 335 1136 299 1124 l 358 1144 q 401 1163 390 1154 q 411 1189 411 1172 q 396 1219 411 1213 q 332 1225 381 1225 q 193 1217 257 1225 l 193 1310 q 349 1324 276 1324 q 483 1299 439 1324 q 526 1201 526 1274 q 510 1131 526 1154 q 447 1090 493 1108 l 421 1081 q 381 1060 388 1068 q 374 1033 374 1053 l 274 1033 l 274 1051 z "},"ẵ":{"ha":690,"x_min":51,"x_max":604,"o":"m 240 -11 q 97 39 143 -11 q 51 200 51 89 q 69 330 51 283 q 131 398 88 376 q 253 419 175 419 q 438 414 315 419 l 438 444 q 426 537 438 510 q 383 572 414 564 q 275 579 351 579 q 182 576 239 579 q 90 568 125 572 l 90 699 q 328 719 211 719 q 505 692 446 719 q 584 605 564 664 q 604 436 604 546 l 604 0 l 449 0 l 443 86 l 433 86 q 240 -11 390 -11 m 317 129 q 378 137 356 129 q 417 167 401 144 q 438 278 438 199 l 438 306 l 299 306 q 245 299 263 306 q 221 274 228 293 q 214 215 214 256 q 222 160 214 178 q 250 135 229 142 q 317 129 271 129 m 533 1032 q 520 924 533 965 q 465 859 507 883 q 342 835 424 835 q 219 859 260 835 q 165 924 178 883 q 153 1032 153 965 l 254 1032 q 258 974 254 993 q 281 944 263 956 q 342 933 300 933 q 402 944 383 933 q 426 975 421 956 q 431 1032 431 994 l 533 1032 m 583 1288 q 577 1184 583 1219 q 548 1129 571 1149 q 475 1110 525 1110 q 410 1117 443 1110 q 332 1136 378 1124 q 288 1148 319 1139 q 235 1157 256 1157 q 206 1145 211 1157 q 201 1094 201 1133 l 107 1094 q 113 1198 107 1163 q 143 1253 119 1233 q 217 1272 167 1272 q 361 1246 267 1272 q 414 1233 388 1239 q 458 1226 440 1226 q 485 1238 481 1226 q 490 1288 490 1250 l 583 1288 z "},"ǎ":{"ha":690,"x_min":51,"x_max":604,"o":"m 240 -11 q 97 39 143 -11 q 51 200 51 89 q 69 330 51 283 q 131 398 88 376 q 253 419 175 419 q 438 414 315 419 l 438 444 q 426 537 438 510 q 383 572 414 564 q 275 579 351 579 q 182 576 239 579 q 90 568 125 572 l 90 699 q 328 719 211 719 q 505 692 446 719 q 584 605 564 664 q 604 436 604 546 l 604 0 l 449 0 l 443 86 l 433 86 q 240 -11 390 -11 m 317 129 q 378 137 356 129 q 417 167 401 144 q 438 278 438 199 l 438 306 l 299 306 q 245 299 263 306 q 221 274 228 293 q 214 215 214 256 q 222 160 214 178 q 250 135 229 142 q 317 129 271 129 m 261 839 l 142 1022 l 142 1032 l 254 1032 l 344 918 l 436 1032 l 550 1032 l 550 1022 l 428 839 l 261 839 z "},"â":{"ha":690,"x_min":51,"x_max":604,"o":"m 240 -11 q 97 39 143 -11 q 51 200 51 89 q 69 330 51 283 q 131 398 88 376 q 253 419 175 419 q 438 414 315 419 l 438 444 q 426 537 438 510 q 383 572 414 564 q 275 579 351 579 q 182 576 239 579 q 90 568 125 572 l 90 699 q 328 719 211 719 q 505 692 446 719 q 584 605 564 664 q 604 436 604 546 l 604 0 l 449 0 l 443 86 l 433 86 q 240 -11 390 -11 m 317 129 q 378 137 356 129 q 417 167 401 144 q 438 278 438 199 l 438 306 l 299 306 q 245 299 263 306 q 221 274 228 293 q 214 215 214 256 q 222 160 214 178 q 250 135 229 142 q 317 129 271 129 m 142 839 l 142 850 l 261 1032 l 429 1032 l 550 850 l 550 839 l 436 839 l 344 954 l 254 839 l 142 839 z "},"ấ":{"ha":690,"x_min":51,"x_max":649,"o":"m 240 -11 q 97 39 143 -11 q 51 200 51 89 q 69 330 51 283 q 131 398 88 376 q 253 419 175 419 q 438 414 315 419 l 438 444 q 426 537 438 510 q 383 572 414 564 q 275 579 351 579 q 182 576 239 579 q 90 568 125 572 l 90 699 q 328 719 211 719 q 505 692 446 719 q 584 605 564 664 q 604 436 604 546 l 604 0 l 449 0 l 443 86 l 433 86 q 240 -11 390 -11 m 317 129 q 378 137 356 129 q 417 167 401 144 q 438 278 438 199 l 438 306 l 299 306 q 245 299 263 306 q 221 274 228 293 q 214 215 214 256 q 222 160 214 178 q 250 135 229 142 q 317 129 271 129 m 140 839 l 140 850 l 260 1032 l 428 1032 l 549 850 l 549 839 l 435 839 l 343 954 l 253 839 l 140 839 m 375 1072 l 375 1079 l 479 1272 l 649 1272 l 649 1265 l 503 1072 l 375 1072 z "},"ậ":{"ha":690,"x_min":51,"x_max":604,"o":"m 240 -11 q 97 39 143 -11 q 51 200 51 89 q 69 330 51 283 q 131 398 88 376 q 253 419 175 419 q 438 414 315 419 l 438 444 q 426 537 438 510 q 383 572 414 564 q 275 579 351 579 q 182 576 239 579 q 90 568 125 572 l 90 699 q 328 719 211 719 q 505 692 446 719 q 584 605 564 664 q 604 436 604 546 l 604 0 l 449 0 l 443 86 l 433 86 q 240 -11 390 -11 m 317 129 q 378 137 356 129 q 417 167 401 144 q 438 278 438 199 l 438 306 l 299 306 q 245 299 263 306 q 221 274 228 293 q 214 215 214 256 q 222 160 214 178 q 250 135 229 142 q 317 129 271 129 m 253 -260 l 253 -86 l 438 -86 l 438 -260 l 253 -260 m 142 839 l 142 850 l 261 1032 l 429 1032 l 550 850 l 550 839 l 436 839 l 344 954 l 254 839 l 142 839 z "},"ầ":{"ha":690,"x_min":51,"x_max":604,"o":"m 240 -11 q 97 39 143 -11 q 51 200 51 89 q 69 330 51 283 q 131 398 88 376 q 253 419 175 419 q 438 414 315 419 l 438 444 q 426 537 438 510 q 383 572 414 564 q 275 579 351 579 q 182 576 239 579 q 90 568 125 572 l 90 699 q 328 719 211 719 q 505 692 446 719 q 584 605 564 664 q 604 436 604 546 l 604 0 l 449 0 l 443 86 l 433 86 q 240 -11 390 -11 m 317 129 q 378 137 356 129 q 417 167 401 144 q 438 278 438 199 l 438 306 l 299 306 q 245 299 263 306 q 221 274 228 293 q 214 215 214 256 q 222 160 214 178 q 250 135 229 142 q 317 129 271 129 m 138 839 l 138 850 l 257 1032 l 425 1032 l 546 850 l 546 839 l 432 839 l 340 954 l 250 839 l 138 839 m 422 1072 l 276 1265 l 276 1272 l 446 1272 l 550 1079 l 550 1072 l 422 1072 z "},"ẩ":{"ha":690,"x_min":51,"x_max":643,"o":"m 240 -11 q 97 39 143 -11 q 51 200 51 89 q 69 330 51 283 q 131 398 88 376 q 253 419 175 419 q 438 414 315 419 l 438 444 q 426 537 438 510 q 383 572 414 564 q 275 579 351 579 q 182 576 239 579 q 90 568 125 572 l 90 699 q 328 719 211 719 q 505 692 446 719 q 584 605 564 664 q 604 436 604 546 l 604 0 l 449 0 l 443 86 l 433 86 q 240 -11 390 -11 m 317 129 q 378 137 356 129 q 417 167 401 144 q 438 278 438 199 l 438 306 l 299 306 q 245 299 263 306 q 221 274 228 293 q 214 215 214 256 q 222 160 214 178 q 250 135 229 142 q 317 129 271 129 m 142 839 l 142 850 l 261 1032 l 429 1032 l 550 850 l 550 839 l 436 839 l 344 954 l 254 839 l 142 839 m 390 1076 q 403 1133 390 1117 q 451 1161 415 1149 l 475 1169 q 517 1188 507 1179 q 528 1214 528 1197 q 513 1244 528 1238 q 449 1250 497 1250 q 310 1242 374 1250 l 310 1335 q 465 1349 393 1349 q 599 1324 556 1349 q 643 1226 643 1299 q 626 1156 643 1179 q 564 1115 610 1133 l 538 1106 q 497 1085 504 1093 q 490 1058 490 1078 l 390 1058 l 390 1076 z "},"ẫ":{"ha":690,"x_min":51,"x_max":604,"o":"m 240 -11 q 97 39 143 -11 q 51 200 51 89 q 69 330 51 283 q 131 398 88 376 q 253 419 175 419 q 438 414 315 419 l 438 444 q 426 537 438 510 q 383 572 414 564 q 275 579 351 579 q 182 576 239 579 q 90 568 125 572 l 90 699 q 328 719 211 719 q 505 692 446 719 q 584 605 564 664 q 604 436 604 546 l 604 0 l 449 0 l 443 86 l 433 86 q 240 -11 390 -11 m 317 129 q 378 137 356 129 q 417 167 401 144 q 438 278 438 199 l 438 306 l 299 306 q 245 299 263 306 q 221 274 228 293 q 214 215 214 256 q 222 160 214 178 q 250 135 229 142 q 317 129 271 129 m 139 839 l 139 850 l 258 1032 l 426 1032 l 547 850 l 547 839 l 433 839 l 342 954 l 251 839 l 139 839 m 583 1272 q 577 1169 583 1204 q 548 1114 571 1133 q 475 1094 525 1094 q 410 1101 443 1094 q 332 1121 378 1108 q 288 1133 319 1124 q 235 1142 256 1142 q 206 1130 211 1142 q 201 1079 201 1118 l 107 1079 q 113 1183 107 1147 q 143 1238 119 1218 q 217 1257 167 1257 q 361 1231 267 1257 q 414 1217 388 1224 q 458 1211 440 1211 q 485 1223 481 1211 q 490 1272 490 1235 l 583 1272 z "},"ȁ":{"ha":690,"x_min":51,"x_max":604,"o":"m 240 -11 q 97 39 143 -11 q 51 200 51 89 q 69 330 51 283 q 131 398 88 376 q 253 419 175 419 q 438 414 315 419 l 438 444 q 426 537 438 510 q 383 572 414 564 q 275 579 351 579 q 182 576 239 579 q 90 568 125 572 l 90 699 q 328 719 211 719 q 505 692 446 719 q 584 605 564 664 q 604 436 604 546 l 604 0 l 449 0 l 443 86 l 433 86 q 240 -11 390 -11 m 317 129 q 378 137 356 129 q 417 167 401 144 q 438 278 438 199 l 438 306 l 299 306 q 245 299 263 306 q 221 274 228 293 q 214 215 214 256 q 222 160 214 178 q 250 135 229 142 q 317 129 271 129 m 294 846 l 188 846 l 61 1013 l 61 1019 l 201 1019 l 294 851 l 294 846 m 528 846 l 422 846 l 294 1013 l 294 1019 l 436 1019 l 528 851 l 528 846 z "},"ä":{"ha":690,"x_min":51,"x_max":604,"o":"m 240 -11 q 97 39 143 -11 q 51 200 51 89 q 69 330 51 283 q 131 398 88 376 q 253 419 175 419 q 438 414 315 419 l 438 444 q 426 537 438 510 q 383 572 414 564 q 275 579 351 579 q 182 576 239 579 q 90 568 125 572 l 90 699 q 328 719 211 719 q 505 692 446 719 q 584 605 564 664 q 604 436 604 546 l 604 0 l 449 0 l 443 86 l 433 86 q 240 -11 390 -11 m 317 129 q 378 137 356 129 q 417 167 401 144 q 438 278 438 199 l 438 306 l 299 306 q 245 299 263 306 q 221 274 228 293 q 214 215 214 256 q 222 160 214 178 q 250 135 229 142 q 317 129 271 129 m 143 874 l 143 1010 l 289 1010 l 289 874 l 143 874 m 403 874 l 403 1010 l 547 1010 l 547 874 l 403 874 z "},"ạ":{"ha":690,"x_min":51,"x_max":604,"o":"m 240 -11 q 97 39 143 -11 q 51 200 51 89 q 69 330 51 283 q 131 398 88 376 q 253 419 175 419 q 438 414 315 419 l 438 444 q 426 537 438 510 q 383 572 414 564 q 275 579 351 579 q 182 576 239 579 q 90 568 125 572 l 90 699 q 328 719 211 719 q 505 692 446 719 q 584 605 564 664 q 604 436 604 546 l 604 0 l 449 0 l 443 86 l 433 86 q 240 -11 390 -11 m 317 129 q 378 137 356 129 q 417 167 401 144 q 438 278 438 199 l 438 306 l 299 306 q 245 299 263 306 q 221 274 228 293 q 214 215 214 256 q 222 160 214 178 q 250 135 229 142 q 317 129 271 129 m 253 -260 l 253 -86 l 438 -86 l 438 -260 l 253 -260 z "},"à":{"ha":690,"x_min":51,"x_max":604,"o":"m 240 -11 q 97 39 143 -11 q 51 200 51 89 q 69 330 51 283 q 131 398 88 376 q 253 419 175 419 q 438 414 315 419 l 438 444 q 426 537 438 510 q 383 572 414 564 q 275 579 351 579 q 182 576 239 579 q 90 568 125 572 l 90 699 q 328 719 211 719 q 505 692 446 719 q 584 605 564 664 q 604 436 604 546 l 604 0 l 449 0 l 443 86 l 433 86 q 240 -11 390 -11 m 317 129 q 378 137 356 129 q 417 167 401 144 q 438 278 438 199 l 438 306 l 299 306 q 245 299 263 306 q 221 274 228 293 q 214 215 214 256 q 222 160 214 178 q 250 135 229 142 q 317 129 271 129 m 293 832 l 147 1025 l 147 1032 l 317 1032 l 421 839 l 421 832 l 293 832 z "},"ả":{"ha":690,"x_min":51,"x_max":604,"o":"m 240 -11 q 97 39 143 -11 q 51 200 51 89 q 69 330 51 283 q 131 398 88 376 q 253 419 175 419 q 438 414 315 419 l 438 444 q 426 537 438 510 q 383 572 414 564 q 275 579 351 579 q 182 576 239 579 q 90 568 125 572 l 90 699 q 328 719 211 719 q 505 692 446 719 q 584 605 564 664 q 604 436 604 546 l 604 0 l 449 0 l 443 86 l 433 86 q 240 -11 390 -11 m 317 129 q 378 137 356 129 q 417 167 401 144 q 438 278 438 199 l 438 306 l 299 306 q 245 299 263 306 q 221 274 228 293 q 214 215 214 256 q 222 160 214 178 q 250 135 229 142 q 317 129 271 129 m 260 864 q 272 920 260 904 q 321 949 285 936 l 344 957 q 387 976 376 967 q 397 1001 397 985 q 382 1031 397 1025 q 318 1038 367 1038 q 179 1029 243 1038 l 179 1122 q 335 1136 263 1136 q 469 1111 425 1136 q 513 1014 513 1086 q 496 944 513 967 q 433 903 479 921 l 407 893 q 367 873 374 881 q 360 846 360 865 l 260 846 l 260 864 z "},"ȃ":{"ha":690,"x_min":51,"x_max":604,"o":"m 240 -11 q 97 39 143 -11 q 51 200 51 89 q 69 330 51 283 q 131 398 88 376 q 253 419 175 419 q 438 414 315 419 l 438 444 q 426 537 438 510 q 383 572 414 564 q 275 579 351 579 q 182 576 239 579 q 90 568 125 572 l 90 699 q 328 719 211 719 q 505 692 446 719 q 584 605 564 664 q 604 436 604 546 l 604 0 l 449 0 l 443 86 l 433 86 q 240 -11 390 -11 m 317 129 q 378 137 356 129 q 417 167 401 144 q 438 278 438 199 l 438 306 l 299 306 q 245 299 263 306 q 221 274 228 293 q 214 215 214 256 q 222 160 214 178 q 250 135 229 142 q 317 129 271 129 m 156 843 q 169 951 156 910 q 224 1016 182 992 q 347 1040 265 1040 q 470 1016 429 1040 q 524 951 511 992 q 536 843 536 910 l 435 843 q 431 901 435 882 q 408 931 426 919 q 347 942 389 942 q 287 931 306 942 q 263 900 268 919 q 258 843 258 881 l 156 843 z "},"ā":{"ha":690,"x_min":51,"x_max":604,"o":"m 240 -11 q 97 39 143 -11 q 51 200 51 89 q 69 330 51 283 q 131 398 88 376 q 253 419 175 419 q 438 414 315 419 l 438 444 q 426 537 438 510 q 383 572 414 564 q 275 579 351 579 q 182 576 239 579 q 90 568 125 572 l 90 699 q 328 719 211 719 q 505 692 446 719 q 584 605 564 664 q 604 436 604 546 l 604 0 l 449 0 l 443 86 l 433 86 q 240 -11 390 -11 m 317 129 q 378 137 356 129 q 417 167 401 144 q 438 278 438 199 l 438 306 l 299 306 q 245 299 263 306 q 221 274 228 293 q 214 215 214 256 q 222 160 214 178 q 250 135 229 142 q 317 129 271 129 m 185 883 l 185 1032 l 506 1032 l 506 883 l 185 883 z "},"ą":{"ha":690,"x_min":51,"x_max":606,"o":"m 606 -174 l 606 -268 q 535 -272 561 -272 q 420 -241 454 -272 q 386 -161 386 -210 q 408 -78 386 -119 q 468 0 431 -36 l 449 0 l 443 86 l 433 86 q 240 -11 390 -11 q 97 39 143 -11 q 51 200 51 89 q 69 330 51 283 q 131 398 88 376 q 253 419 175 419 q 438 414 315 419 l 438 444 q 426 537 438 510 q 383 572 414 564 q 275 579 351 579 q 180 576 239 579 q 90 568 121 572 l 90 699 q 328 719 211 719 q 505 692 446 719 q 584 605 564 664 q 604 436 604 546 l 604 0 q 549 -56 574 -19 q 524 -126 524 -93 q 538 -161 524 -147 q 583 -175 551 -175 l 606 -174 m 438 306 l 299 306 q 245 299 263 306 q 221 274 228 293 q 214 215 214 256 q 222 160 214 178 q 250 135 229 142 q 317 129 271 129 q 378 137 356 129 q 417 167 401 144 q 438 278 438 199 l 438 306 z "},"å":{"ha":690,"x_min":51,"x_max":604,"o":"m 240 -11 q 97 39 143 -11 q 51 200 51 89 q 69 330 51 283 q 131 398 88 376 q 253 419 175 419 q 438 414 315 419 l 438 444 q 426 537 438 510 q 383 572 414 564 q 275 579 351 579 q 182 576 239 579 q 90 568 125 572 l 90 699 q 328 719 211 719 q 505 692 446 719 q 584 605 564 664 q 604 436 604 546 l 604 0 l 449 0 l 443 86 l 433 86 q 240 -11 390 -11 m 317 129 q 378 137 356 129 q 417 167 401 144 q 438 278 438 199 l 438 306 l 299 306 q 245 299 263 306 q 221 274 228 293 q 214 215 214 256 q 222 160 214 178 q 250 135 229 142 q 317 129 271 129 m 343 808 q 222 824 260 808 q 173 869 183 839 q 163 961 163 900 q 173 1053 163 1022 q 222 1101 183 1085 q 343 1117 260 1117 q 468 1101 429 1117 q 517 1053 507 1085 q 528 961 528 1022 q 517 869 528 900 q 468 824 507 839 q 343 808 429 808 m 343 888 q 401 894 385 888 q 422 914 418 900 q 426 961 426 928 q 422 1010 426 996 q 401 1030 418 1024 q 343 1036 385 1036 q 288 1030 304 1036 q 268 1009 272 1024 q 264 961 264 994 q 268 914 264 928 q 288 894 272 900 q 343 888 304 888 z "},"ǻ":{"ha":690,"x_min":51,"x_max":604,"o":"m 240 -11 q 97 39 143 -11 q 51 200 51 89 q 69 330 51 283 q 131 398 88 376 q 253 419 175 419 q 438 414 315 419 l 438 444 q 426 537 438 510 q 383 572 414 564 q 275 579 351 579 q 182 576 239 579 q 90 568 125 572 l 90 699 q 328 719 211 719 q 505 692 446 719 q 584 605 564 664 q 604 436 604 546 l 604 0 l 449 0 l 443 86 l 433 86 q 240 -11 390 -11 m 317 129 q 378 137 356 129 q 417 167 401 144 q 438 278 438 199 l 438 306 l 299 306 q 245 299 263 306 q 221 274 228 293 q 214 215 214 256 q 222 160 214 178 q 250 135 229 142 q 317 129 271 129 m 343 836 q 222 851 260 836 q 173 897 183 867 q 163 989 163 928 q 173 1081 163 1050 q 222 1128 183 1113 q 343 1144 260 1144 q 468 1128 429 1144 q 517 1081 507 1113 q 528 989 528 1050 q 517 897 528 928 q 468 851 507 867 q 343 836 429 836 m 343 915 q 401 922 385 915 q 422 942 418 928 q 426 989 426 956 q 422 1038 426 1024 q 401 1058 418 1051 q 343 1064 385 1064 q 288 1058 304 1064 q 268 1037 272 1051 q 264 989 264 1022 q 268 942 264 956 q 288 922 272 928 q 343 915 304 915 m 274 1185 l 274 1192 l 378 1385 l 547 1385 l 547 1378 l 401 1185 l 274 1185 z "},"ã":{"ha":690,"x_min":51,"x_max":604,"o":"m 240 -11 q 97 39 143 -11 q 51 200 51 89 q 69 330 51 283 q 131 398 88 376 q 253 419 175 419 q 438 414 315 419 l 438 444 q 426 537 438 510 q 383 572 414 564 q 275 579 351 579 q 182 576 239 579 q 90 568 125 572 l 90 699 q 328 719 211 719 q 505 692 446 719 q 584 605 564 664 q 604 436 604 546 l 604 0 l 449 0 l 443 86 l 433 86 q 240 -11 390 -11 m 317 129 q 378 137 356 129 q 417 167 401 144 q 438 278 438 199 l 438 306 l 299 306 q 245 299 263 306 q 221 274 228 293 q 214 215 214 256 q 222 160 214 178 q 250 135 229 142 q 317 129 271 129 m 582 1032 q 576 928 582 964 q 547 874 569 893 q 474 854 524 854 q 409 861 442 854 q 331 881 376 868 q 286 892 318 883 q 233 901 254 901 q 205 890 210 901 q 200 839 200 878 l 106 839 q 112 942 106 907 q 142 997 118 978 q 215 1017 165 1017 q 360 990 265 1017 q 413 977 386 983 q 457 971 439 971 q 484 983 479 971 q 489 1032 489 994 l 582 1032 z "},"æ":{"ha":1060,"x_min":51,"x_max":993,"o":"m 993 301 l 604 301 q 614 185 604 218 q 658 140 624 151 q 776 128 692 128 q 969 139 867 128 l 969 10 q 863 -6 928 0 q 739 -11 799 -11 q 590 6 646 -11 q 503 63 535 24 q 405 3 464 18 q 272 -11 346 -11 q 103 38 156 -11 q 51 199 51 88 q 69 329 51 282 q 131 398 88 376 q 253 419 175 419 q 351 417 297 419 q 436 414 406 415 l 436 444 q 425 537 436 510 q 383 572 414 564 q 274 579 351 579 q 180 576 238 579 q 90 568 122 572 l 90 699 q 326 719 221 719 q 526 664 467 719 q 726 719 590 719 q 909 683 853 719 q 979 574 965 646 q 993 353 993 503 l 993 301 m 722 582 q 645 569 669 582 q 613 524 621 557 q 604 414 606 490 l 833 414 q 824 525 833 490 q 792 571 815 560 q 722 582 769 582 m 436 303 l 296 303 q 243 297 260 303 q 219 272 226 290 q 213 214 213 254 q 220 158 213 176 q 249 133 228 140 q 315 126 269 126 q 385 138 360 126 q 422 178 410 149 q 436 276 436 211 l 436 303 z "},"ǽ":{"ha":1060,"x_min":51,"x_max":993,"o":"m 993 301 l 604 301 q 614 185 604 218 q 658 140 624 151 q 776 128 692 128 q 969 139 867 128 l 969 10 q 863 -6 928 0 q 739 -11 799 -11 q 590 6 646 -11 q 503 63 535 24 q 405 3 464 18 q 272 -11 346 -11 q 103 38 156 -11 q 51 199 51 88 q 69 329 51 282 q 131 398 88 376 q 253 419 175 419 q 351 417 297 419 q 436 414 406 415 l 436 444 q 425 537 436 510 q 383 572 414 564 q 274 579 351 579 q 180 576 238 579 q 90 568 122 572 l 90 699 q 326 719 221 719 q 526 664 467 719 q 726 719 590 719 q 909 683 853 719 q 979 574 965 646 q 993 353 993 503 l 993 301 m 722 582 q 645 569 669 582 q 613 524 621 557 q 604 414 606 490 l 833 414 q 824 525 833 490 q 792 571 815 560 q 722 582 769 582 m 436 303 l 296 303 q 243 297 260 303 q 219 272 226 290 q 213 214 213 254 q 220 158 213 176 q 249 133 228 140 q 315 126 269 126 q 385 138 360 126 q 422 178 410 149 q 436 276 436 211 l 436 303 m 456 832 l 456 839 l 560 1032 l 729 1032 l 729 1025 l 583 832 l 456 832 z "},"b":{"ha":719,"x_min":86,"x_max":654,"o":"m 439 -11 q 328 10 376 -11 q 257 88 281 32 l 247 88 l 242 0 l 86 0 l 86 1032 l 253 1032 l 253 631 l 263 631 q 333 699 288 679 q 443 719 378 719 q 569 686 524 719 q 634 574 614 653 q 654 354 654 496 q 633 133 654 211 q 567 22 613 54 q 439 -11 521 -11 m 369 138 q 449 151 426 138 q 480 206 472 164 q 488 354 488 249 q 480 501 488 458 q 449 556 472 543 q 369 569 426 569 q 307 560 329 569 q 274 525 285 550 q 257 461 261 501 q 253 354 253 421 q 257 249 253 288 q 272 188 261 211 q 306 149 283 160 q 369 138 328 138 z "},"c":{"ha":561,"x_min":64,"x_max":510,"o":"m 510 10 q 425 -6 475 0 q 331 -11 375 -11 q 154 28 211 -11 q 81 141 97 67 q 64 354 64 215 q 83 567 64 490 q 158 681 101 643 q 328 719 214 719 q 424 714 375 719 q 504 699 474 708 l 504 568 q 372 579 444 579 q 278 563 307 579 q 241 502 250 547 q 232 354 232 457 q 242 205 232 250 q 280 144 251 160 q 374 129 308 129 q 510 139 446 129 l 510 10 z "},"ć":{"ha":561,"x_min":64,"x_max":510,"o":"m 510 10 q 425 -6 475 0 q 331 -11 375 -11 q 154 28 211 -11 q 81 141 97 67 q 64 354 64 215 q 83 567 64 490 q 158 681 101 643 q 328 719 214 719 q 424 714 375 719 q 504 699 474 708 l 504 568 q 372 579 444 579 q 278 563 307 579 q 241 502 250 547 q 232 354 232 457 q 242 205 232 250 q 280 144 251 160 q 374 129 308 129 q 510 139 446 129 l 510 10 m 206 832 l 206 839 l 310 1032 l 479 1032 l 479 1025 l 333 832 l 206 832 z "},"č":{"ha":561,"x_min":64,"x_max":510,"o":"m 510 10 q 425 -6 475 0 q 331 -11 375 -11 q 154 28 211 -11 q 81 141 97 67 q 64 354 64 215 q 83 567 64 490 q 158 681 101 643 q 328 719 214 719 q 424 714 375 719 q 504 699 474 708 l 504 568 q 372 579 444 579 q 278 563 307 579 q 241 502 250 547 q 232 354 232 457 q 242 205 232 250 q 280 144 251 160 q 374 129 308 129 q 510 139 446 129 l 510 10 m 196 839 l 76 1022 l 76 1032 l 189 1032 l 279 918 l 371 1032 l 485 1032 l 485 1022 l 363 839 l 196 839 z "},"ç":{"ha":561,"x_min":64,"x_max":510,"o":"m 510 10 q 428 -6 475 0 q 336 -11 381 -11 l 288 -264 l 133 -264 l 133 -257 l 222 0 q 119 60 153 17 q 74 171 85 103 q 64 354 64 239 q 83 567 64 490 q 158 681 101 643 q 328 719 214 719 q 424 714 375 719 q 504 699 474 708 l 504 568 q 372 579 444 579 q 278 563 307 579 q 241 502 250 547 q 232 354 232 457 q 242 205 232 250 q 280 144 251 160 q 374 129 308 129 q 510 139 446 129 l 510 10 z "},"ĉ":{"ha":561,"x_min":64,"x_max":510,"o":"m 510 10 q 425 -6 475 0 q 331 -11 375 -11 q 154 28 211 -11 q 81 141 97 67 q 64 354 64 215 q 83 567 64 490 q 158 681 101 643 q 328 719 214 719 q 424 714 375 719 q 504 699 474 708 l 504 568 q 372 579 444 579 q 278 563 307 579 q 241 502 250 547 q 232 354 232 457 q 242 205 232 250 q 280 144 251 160 q 374 129 308 129 q 510 139 446 129 l 510 10 m 76 839 l 76 850 l 196 1032 l 364 1032 l 485 850 l 485 839 l 371 839 l 279 954 l 189 839 l 76 839 z "},"ċ":{"ha":561,"x_min":64,"x_max":510,"o":"m 510 10 q 425 -6 475 0 q 331 -11 375 -11 q 154 28 211 -11 q 81 141 97 67 q 64 354 64 215 q 83 567 64 490 q 158 681 101 643 q 328 719 214 719 q 424 714 375 719 q 504 699 474 708 l 504 568 q 372 579 444 579 q 278 563 307 579 q 241 502 250 547 q 232 354 232 457 q 242 205 232 250 q 280 144 251 160 q 374 129 308 129 q 510 139 446 129 l 510 10 m 208 878 l 208 1014 l 353 1014 l 353 878 l 208 878 z "},"d":{"ha":719,"x_min":64,"x_max":632,"o":"m 279 -11 q 151 21 197 -11 q 85 131 106 53 q 64 353 64 210 q 84 573 64 494 q 149 685 104 651 q 275 719 194 719 q 386 699 342 719 q 456 631 431 679 l 465 631 l 465 1032 l 632 1032 l 632 0 l 476 0 l 471 88 l 461 88 q 279 -11 421 -11 m 350 138 q 416 150 393 138 q 450 192 439 163 q 462 255 458 217 q 465 354 465 293 q 463 445 465 411 q 453 503 461 479 q 419 554 443 539 q 350 569 396 569 q 270 556 293 569 q 240 501 247 543 q 232 354 232 458 q 240 206 232 249 q 270 151 247 164 q 350 138 293 138 z "},"ð":{"ha":710,"x_min":64,"x_max":639,"o":"m 353 -11 q 158 22 218 -11 q 81 126 97 54 q 64 353 64 197 q 78 567 64 493 q 144 680 93 642 q 300 718 194 718 q 431 696 379 718 l 435 700 q 376 838 407 783 l 233 815 l 233 918 l 319 931 q 236 1026 286 974 l 236 1032 l 413 1032 q 478 956 440 1003 l 618 978 l 618 875 l 538 863 q 615 638 588 771 q 639 365 639 522 q 623 128 639 201 q 547 22 607 54 q 353 -11 488 -11 m 353 128 q 439 142 415 128 q 468 197 463 156 q 474 353 474 238 q 468 503 474 463 q 438 562 463 544 q 353 579 414 579 q 266 565 289 579 q 238 510 243 551 q 232 353 232 469 q 238 197 232 238 q 267 142 243 156 q 353 128 290 128 z "},"ď":{"ha":761,"x_min":64,"x_max":853,"o":"m 279 -11 q 151 21 197 -11 q 85 131 106 53 q 64 353 64 210 q 84 573 64 494 q 149 685 104 651 q 275 719 194 719 q 386 699 342 719 q 456 631 431 679 l 465 631 l 465 1032 l 632 1032 l 632 0 l 476 0 l 471 88 l 461 88 q 279 -11 421 -11 m 350 138 q 416 150 393 138 q 450 192 439 163 q 462 255 458 217 q 465 354 465 293 q 463 445 465 411 q 453 503 461 479 q 419 554 443 539 q 350 569 396 569 q 270 556 293 569 q 240 501 247 543 q 232 354 232 458 q 240 206 232 249 q 270 151 247 164 q 350 138 293 138 m 674 601 l 696 871 l 696 956 l 853 956 l 853 871 l 792 601 l 674 601 z "},"đ":{"ha":719,"x_min":64,"x_max":708,"o":"m 708 818 l 632 818 l 632 0 l 476 0 l 471 88 l 461 88 q 279 -11 421 -11 q 151 21 197 -11 q 85 131 106 53 q 64 353 64 210 q 84 573 64 494 q 149 685 104 651 q 275 719 194 719 q 386 699 342 719 q 456 631 431 679 l 465 631 l 465 818 l 313 818 l 313 956 l 465 956 l 465 1032 l 632 1032 l 632 956 l 708 956 l 708 818 m 450 192 q 462 255 458 217 q 465 354 465 293 q 463 445 465 411 q 453 503 461 479 q 419 554 443 539 q 350 569 396 569 q 270 556 293 569 q 240 501 247 543 q 232 354 232 458 q 240 206 232 249 q 270 151 247 164 q 350 138 293 138 q 416 150 393 138 q 450 192 439 163 z "},"ḍ":{"ha":719,"x_min":64,"x_max":632,"o":"m 279 -11 q 151 21 197 -11 q 85 131 106 53 q 64 353 64 210 q 84 573 64 494 q 149 685 104 651 q 275 719 194 719 q 386 699 342 719 q 456 631 431 679 l 465 631 l 465 1032 l 632 1032 l 632 0 l 476 0 l 471 88 l 461 88 q 279 -11 421 -11 m 350 138 q 416 150 393 138 q 450 192 439 163 q 462 255 458 217 q 465 354 465 293 q 463 445 465 411 q 453 503 461 479 q 419 554 443 539 q 350 569 396 569 q 270 556 293 569 q 240 501 247 543 q 232 354 232 458 q 240 206 232 249 q 270 151 247 164 q 350 138 293 138 m 267 -260 l 267 -86 l 451 -86 l 451 -260 l 267 -260 z "},"ǳ":{"ha":1353,"x_min":64,"x_max":1296,"o":"m 279 -11 q 151 21 197 -11 q 85 131 106 53 q 64 353 64 210 q 84 573 64 494 q 149 685 104 651 q 275 719 194 719 q 386 699 342 719 q 456 631 431 679 l 465 631 l 465 1032 l 632 1032 l 632 0 l 476 0 l 471 88 l 461 88 q 279 -11 421 -11 m 350 138 q 416 150 393 138 q 450 192 439 163 q 462 255 458 217 q 465 354 465 293 q 463 445 465 411 q 453 503 461 479 q 419 554 443 539 q 350 569 396 569 q 270 556 293 569 q 240 501 247 543 q 232 354 232 458 q 240 206 232 249 q 270 151 247 164 q 350 138 293 138 m 778 0 l 778 131 l 1088 568 l 790 568 l 790 708 l 1293 708 l 1293 579 l 982 140 l 1296 140 l 1296 0 l 778 0 z "},"ǆ":{"ha":1353,"x_min":64,"x_max":1296,"o":"m 279 -11 q 151 21 197 -11 q 85 131 106 53 q 64 353 64 210 q 84 573 64 494 q 149 685 104 651 q 275 719 194 719 q 386 699 342 719 q 456 631 431 679 l 465 631 l 465 1032 l 632 1032 l 632 0 l 476 0 l 471 88 l 461 88 q 279 -11 421 -11 m 350 138 q 416 150 393 138 q 450 192 439 163 q 462 255 458 217 q 465 354 465 293 q 463 445 465 411 q 453 503 461 479 q 419 554 443 539 q 350 569 396 569 q 270 556 293 569 q 240 501 247 543 q 232 354 232 458 q 240 206 232 249 q 270 151 247 164 q 350 138 293 138 m 778 0 l 778 131 l 1088 568 l 790 568 l 790 708 l 1293 708 l 1293 579 l 982 140 l 1296 140 l 1296 0 l 778 0 m 949 839 l 829 1022 l 829 1032 l 942 1032 l 1032 918 l 1124 1032 l 1238 1032 l 1238 1022 l 1115 839 l 949 839 z "},"e":{"ha":685,"x_min":64,"x_max":619,"o":"m 619 300 l 232 300 q 241 184 232 217 q 284 140 250 151 q 403 128 318 128 q 597 139 493 128 l 597 10 q 492 -6 557 0 q 365 -11 426 -11 q 165 24 228 -11 q 83 133 101 60 q 64 353 64 206 q 83 570 64 496 q 163 682 101 644 q 353 719 224 719 q 535 683 479 719 q 606 576 592 647 q 619 353 619 504 l 619 300 m 350 582 q 272 569 296 582 q 241 524 249 557 q 232 414 233 490 l 461 414 q 452 525 461 490 q 420 571 443 560 q 350 582 397 582 z "},"é":{"ha":685,"x_min":64,"x_max":619,"o":"m 619 300 l 232 300 q 241 184 232 217 q 284 140 250 151 q 403 128 318 128 q 597 139 493 128 l 597 10 q 492 -6 557 0 q 365 -11 426 -11 q 165 24 228 -11 q 83 133 101 60 q 64 353 64 206 q 83 570 64 496 q 163 682 101 644 q 353 719 224 719 q 535 683 479 719 q 606 576 592 647 q 619 353 619 504 l 619 300 m 350 582 q 272 569 296 582 q 241 524 249 557 q 232 414 233 490 l 461 414 q 452 525 461 490 q 420 571 443 560 q 350 582 397 582 m 278 832 l 278 839 l 382 1032 l 551 1032 l 551 1025 l 406 832 l 278 832 z "},"ĕ":{"ha":685,"x_min":64,"x_max":619,"o":"m 619 300 l 232 300 q 241 184 232 217 q 284 140 250 151 q 403 128 318 128 q 597 139 493 128 l 597 10 q 492 -6 557 0 q 365 -11 426 -11 q 165 24 228 -11 q 83 133 101 60 q 64 353 64 206 q 83 570 64 496 q 163 682 101 644 q 353 719 224 719 q 535 683 479 719 q 606 576 592 647 q 619 353 619 504 l 619 300 m 350 582 q 272 569 296 582 q 241 524 249 557 q 232 414 233 490 l 461 414 q 452 525 461 490 q 420 571 443 560 q 350 582 397 582 m 533 1032 q 520 924 533 965 q 465 859 507 883 q 342 835 424 835 q 219 859 260 835 q 165 924 178 883 q 153 1032 153 965 l 254 1032 q 258 974 254 993 q 281 944 263 956 q 342 933 300 933 q 402 944 383 933 q 426 975 421 956 q 431 1032 431 994 l 533 1032 z "},"ě":{"ha":685,"x_min":64,"x_max":619,"o":"m 619 300 l 232 300 q 241 184 232 217 q 284 140 250 151 q 403 128 318 128 q 597 139 493 128 l 597 10 q 492 -6 557 0 q 365 -11 426 -11 q 165 24 228 -11 q 83 133 101 60 q 64 353 64 206 q 83 570 64 496 q 163 682 101 644 q 353 719 224 719 q 535 683 479 719 q 606 576 592 647 q 619 353 619 504 l 619 300 m 350 582 q 272 569 296 582 q 241 524 249 557 q 232 414 233 490 l 461 414 q 452 525 461 490 q 420 571 443 560 q 350 582 397 582 m 258 839 l 139 1022 l 139 1032 l 251 1032 l 342 918 l 433 1032 l 547 1032 l 547 1022 l 425 839 l 258 839 z "},"ê":{"ha":685,"x_min":64,"x_max":619,"o":"m 619 300 l 232 300 q 241 184 232 217 q 284 140 250 151 q 403 128 318 128 q 597 139 493 128 l 597 10 q 492 -6 557 0 q 365 -11 426 -11 q 165 24 228 -11 q 83 133 101 60 q 64 353 64 206 q 83 570 64 496 q 163 682 101 644 q 353 719 224 719 q 535 683 479 719 q 606 576 592 647 q 619 353 619 504 l 619 300 m 350 582 q 272 569 296 582 q 241 524 249 557 q 232 414 233 490 l 461 414 q 452 525 461 490 q 420 571 443 560 q 350 582 397 582 m 146 839 l 146 850 l 265 1032 l 433 1032 l 554 850 l 554 839 l 440 839 l 349 954 l 258 839 l 146 839 z "},"ế":{"ha":685,"x_min":64,"x_max":646,"o":"m 619 300 l 232 300 q 241 184 232 217 q 284 140 250 151 q 403 128 318 128 q 597 139 493 128 l 597 10 q 492 -6 557 0 q 365 -11 426 -11 q 165 24 228 -11 q 83 133 101 60 q 64 353 64 206 q 83 570 64 496 q 163 682 101 644 q 353 719 224 719 q 535 683 479 719 q 606 576 592 647 q 619 353 619 504 l 619 300 m 350 582 q 272 569 296 582 q 241 524 249 557 q 232 414 233 490 l 461 414 q 452 525 461 490 q 420 571 443 560 q 350 582 397 582 m 138 839 l 138 850 l 257 1032 l 425 1032 l 546 850 l 546 839 l 432 839 l 340 954 l 250 839 l 138 839 m 372 1072 l 372 1079 l 476 1272 l 646 1272 l 646 1265 l 500 1072 l 372 1072 z "},"ệ":{"ha":685,"x_min":64,"x_max":619,"o":"m 619 300 l 232 300 q 241 184 232 217 q 284 140 250 151 q 403 128 318 128 q 597 139 493 128 l 597 10 q 492 -6 557 0 q 365 -11 426 -11 q 165 24 228 -11 q 83 133 101 60 q 64 353 64 206 q 83 570 64 496 q 163 682 101 644 q 353 719 224 719 q 535 683 479 719 q 606 576 592 647 q 619 353 619 504 l 619 300 m 350 582 q 272 569 296 582 q 241 524 249 557 q 232 414 233 490 l 461 414 q 452 525 461 490 q 420 571 443 560 q 350 582 397 582 m 250 -260 l 250 -86 l 435 -86 l 435 -260 l 250 -260 m 139 839 l 139 850 l 258 1032 l 426 1032 l 547 850 l 547 839 l 433 839 l 342 954 l 251 839 l 139 839 z "},"ề":{"ha":685,"x_min":64,"x_max":619,"o":"m 619 300 l 232 300 q 241 184 232 217 q 284 140 250 151 q 403 128 318 128 q 597 139 493 128 l 597 10 q 492 -6 557 0 q 365 -11 426 -11 q 165 24 228 -11 q 83 133 101 60 q 64 353 64 206 q 83 570 64 496 q 163 682 101 644 q 353 719 224 719 q 535 683 479 719 q 606 576 592 647 q 619 353 619 504 l 619 300 m 350 582 q 272 569 296 582 q 241 524 249 557 q 232 414 233 490 l 461 414 q 452 525 461 490 q 420 571 443 560 q 350 582 397 582 m 135 839 l 135 850 l 254 1032 l 422 1032 l 543 850 l 543 839 l 429 839 l 338 954 l 247 839 l 135 839 m 419 1072 l 274 1265 l 274 1272 l 443 1272 l 547 1079 l 547 1072 l 419 1072 z "},"ể":{"ha":685,"x_min":64,"x_max":640,"o":"m 619 300 l 232 300 q 241 184 232 217 q 284 140 250 151 q 403 128 318 128 q 597 139 493 128 l 597 10 q 492 -6 557 0 q 365 -11 426 -11 q 165 24 228 -11 q 83 133 101 60 q 64 353 64 206 q 83 570 64 496 q 163 682 101 644 q 353 719 224 719 q 535 683 479 719 q 606 576 592 647 q 619 353 619 504 l 619 300 m 350 582 q 272 569 296 582 q 241 524 249 557 q 232 414 233 490 l 461 414 q 452 525 461 490 q 420 571 443 560 q 350 582 397 582 m 139 839 l 139 850 l 258 1032 l 426 1032 l 547 850 l 547 839 l 433 839 l 342 954 l 251 839 l 139 839 m 388 1076 q 400 1133 388 1117 q 449 1161 413 1149 l 472 1169 q 515 1188 504 1179 q 525 1214 525 1197 q 510 1244 525 1238 q 446 1250 494 1250 q 307 1242 371 1250 l 307 1335 q 463 1349 390 1349 q 597 1324 553 1349 q 640 1226 640 1299 q 624 1156 640 1179 q 561 1115 607 1133 l 535 1106 q 494 1085 501 1093 q 488 1058 488 1078 l 388 1058 l 388 1076 z "},"ễ":{"ha":685,"x_min":64,"x_max":619,"o":"m 619 300 l 232 300 q 241 184 232 217 q 284 140 250 151 q 403 128 318 128 q 597 139 493 128 l 597 10 q 492 -6 557 0 q 365 -11 426 -11 q 165 24 228 -11 q 83 133 101 60 q 64 353 64 206 q 83 570 64 496 q 163 682 101 644 q 353 719 224 719 q 535 683 479 719 q 606 576 592 647 q 619 353 619 504 l 619 300 m 350 582 q 272 569 296 582 q 241 524 249 557 q 232 414 233 490 l 461 414 q 452 525 461 490 q 420 571 443 560 q 350 582 397 582 m 136 839 l 136 850 l 256 1032 l 424 1032 l 544 850 l 544 839 l 431 839 l 339 954 l 249 839 l 136 839 m 581 1272 q 574 1169 581 1204 q 545 1114 568 1133 q 472 1094 522 1094 q 408 1101 440 1094 q 329 1121 375 1108 q 285 1133 317 1124 q 232 1142 253 1142 q 203 1130 208 1142 q 199 1079 199 1118 l 104 1079 q 110 1183 104 1147 q 140 1238 117 1218 q 214 1257 164 1257 q 358 1231 264 1257 q 411 1217 385 1224 q 456 1211 438 1211 q 483 1223 478 1211 q 488 1272 488 1235 l 581 1272 z "},"ȅ":{"ha":685,"x_min":58,"x_max":619,"o":"m 619 300 l 232 300 q 241 184 232 217 q 284 140 250 151 q 403 128 318 128 q 597 139 493 128 l 597 10 q 492 -6 557 0 q 365 -11 426 -11 q 165 24 228 -11 q 83 133 101 60 q 64 353 64 206 q 83 570 64 496 q 163 682 101 644 q 353 719 224 719 q 535 683 479 719 q 606 576 592 647 q 619 353 619 504 l 619 300 m 350 582 q 272 569 296 582 q 241 524 249 557 q 232 414 233 490 l 461 414 q 452 525 461 490 q 420 571 443 560 q 350 582 397 582 m 292 846 l 185 846 l 58 1013 l 58 1019 l 199 1019 l 292 851 l 292 846 m 525 846 l 419 846 l 292 1013 l 292 1019 l 433 1019 l 525 851 l 525 846 z "},"ë":{"ha":685,"x_min":64,"x_max":619,"o":"m 619 300 l 232 300 q 241 184 232 217 q 284 140 250 151 q 403 128 318 128 q 597 139 493 128 l 597 10 q 492 -6 557 0 q 365 -11 426 -11 q 165 24 228 -11 q 83 133 101 60 q 64 353 64 206 q 83 570 64 496 q 163 682 101 644 q 353 719 224 719 q 535 683 479 719 q 606 576 592 647 q 619 353 619 504 l 619 300 m 350 582 q 272 569 296 582 q 241 524 249 557 q 232 414 233 490 l 461 414 q 452 525 461 490 q 420 571 443 560 q 350 582 397 582 m 149 874 l 149 1010 l 294 1010 l 294 874 l 149 874 m 408 874 l 408 1010 l 553 1010 l 553 874 l 408 874 z "},"ė":{"ha":685,"x_min":64,"x_max":619,"o":"m 619 300 l 232 300 q 241 184 232 217 q 284 140 250 151 q 403 128 318 128 q 597 139 493 128 l 597 10 q 492 -6 557 0 q 365 -11 426 -11 q 165 24 228 -11 q 83 133 101 60 q 64 353 64 206 q 83 570 64 496 q 163 682 101 644 q 353 719 224 719 q 535 683 479 719 q 606 576 592 647 q 619 353 619 504 l 619 300 m 350 582 q 272 569 296 582 q 241 524 249 557 q 232 414 233 490 l 461 414 q 452 525 461 490 q 420 571 443 560 q 350 582 397 582 m 271 878 l 271 1014 l 415 1014 l 415 878 l 271 878 z "},"ẹ":{"ha":685,"x_min":64,"x_max":619,"o":"m 619 300 l 232 300 q 241 184 232 217 q 284 140 250 151 q 403 128 318 128 q 597 139 493 128 l 597 10 q 492 -6 557 0 q 365 -11 426 -11 q 165 24 228 -11 q 83 133 101 60 q 64 353 64 206 q 83 570 64 496 q 163 682 101 644 q 353 719 224 719 q 535 683 479 719 q 606 576 592 647 q 619 353 619 504 l 619 300 m 350 582 q 272 569 296 582 q 241 524 249 557 q 232 414 233 490 l 461 414 q 452 525 461 490 q 420 571 443 560 q 350 582 397 582 m 250 -260 l 250 -86 l 435 -86 l 435 -260 l 250 -260 z "},"è":{"ha":685,"x_min":64,"x_max":619,"o":"m 619 300 l 232 300 q 241 184 232 217 q 284 140 250 151 q 403 128 318 128 q 597 139 493 128 l 597 10 q 492 -6 557 0 q 365 -11 426 -11 q 165 24 228 -11 q 83 133 101 60 q 64 353 64 206 q 83 570 64 496 q 163 682 101 644 q 353 719 224 719 q 535 683 479 719 q 606 576 592 647 q 619 353 619 504 l 619 300 m 350 582 q 272 569 296 582 q 241 524 249 557 q 232 414 233 490 l 461 414 q 452 525 461 490 q 420 571 443 560 q 350 582 397 582 m 300 832 l 154 1025 l 154 1032 l 324 1032 l 428 839 l 428 832 l 300 832 z "},"ẻ":{"ha":685,"x_min":64,"x_max":619,"o":"m 619 300 l 232 300 q 241 184 232 217 q 284 140 250 151 q 403 128 318 128 q 597 139 493 128 l 597 10 q 492 -6 557 0 q 365 -11 426 -11 q 165 24 228 -11 q 83 133 101 60 q 64 353 64 206 q 83 570 64 496 q 163 682 101 644 q 353 719 224 719 q 535 683 479 719 q 606 576 592 647 q 619 353 619 504 l 619 300 m 350 582 q 272 569 296 582 q 241 524 249 557 q 232 414 233 490 l 461 414 q 452 525 461 490 q 420 571 443 560 q 350 582 397 582 m 257 864 q 269 920 257 904 q 318 949 282 936 l 342 957 q 384 976 374 967 q 394 1001 394 985 q 379 1031 394 1025 q 315 1038 364 1038 q 176 1029 240 1038 l 176 1122 q 332 1136 260 1136 q 466 1111 422 1136 q 510 1014 510 1086 q 493 944 510 967 q 431 903 476 921 l 404 893 q 364 873 371 881 q 357 846 357 865 l 257 846 l 257 864 z "},"ȇ":{"ha":685,"x_min":64,"x_max":619,"o":"m 619 300 l 232 300 q 241 184 232 217 q 284 140 250 151 q 403 128 318 128 q 597 139 493 128 l 597 10 q 492 -6 557 0 q 365 -11 426 -11 q 165 24 228 -11 q 83 133 101 60 q 64 353 64 206 q 83 570 64 496 q 163 682 101 644 q 353 719 224 719 q 535 683 479 719 q 606 576 592 647 q 619 353 619 504 l 619 300 m 350 582 q 272 569 296 582 q 241 524 249 557 q 232 414 233 490 l 461 414 q 452 525 461 490 q 420 571 443 560 q 350 582 397 582 m 153 843 q 166 951 153 910 q 221 1016 179 992 q 344 1040 263 1040 q 467 1016 426 1040 q 521 951 508 992 q 533 843 533 910 l 432 843 q 428 901 432 882 q 405 931 424 919 q 344 942 386 942 q 284 931 303 942 q 260 900 265 919 q 256 843 256 881 l 153 843 z "},"ē":{"ha":685,"x_min":64,"x_max":619,"o":"m 619 300 l 232 300 q 241 184 232 217 q 284 140 250 151 q 403 128 318 128 q 597 139 493 128 l 597 10 q 492 -6 557 0 q 365 -11 426 -11 q 165 24 228 -11 q 83 133 101 60 q 64 353 64 206 q 83 570 64 496 q 163 682 101 644 q 353 719 224 719 q 535 683 479 719 q 606 576 592 647 q 619 353 619 504 l 619 300 m 350 582 q 272 569 296 582 q 241 524 249 557 q 232 414 233 490 l 461 414 q 452 525 461 490 q 420 571 443 560 q 350 582 397 582 m 182 883 l 182 1032 l 503 1032 l 503 883 l 182 883 z "},"ę":{"ha":685,"x_min":64,"x_max":619,"o":"m 619 300 l 232 300 q 241 184 232 217 q 284 140 250 151 q 403 128 318 128 q 597 139 493 128 l 597 10 q 523 -52 557 -14 q 489 -126 489 -90 q 502 -161 489 -147 q 547 -175 515 -175 l 571 -174 l 571 -268 q 499 -272 533 -272 q 385 -241 419 -272 q 351 -162 351 -210 q 439 -8 351 -86 q 365 -11 389 -11 q 165 24 228 -11 q 83 133 101 60 q 64 353 64 206 q 83 570 64 496 q 163 682 101 644 q 353 719 224 719 q 535 683 479 719 q 606 576 592 647 q 619 353 619 504 l 619 300 m 350 582 q 272 569 296 582 q 241 524 249 557 q 232 414 233 490 l 461 414 q 452 525 461 490 q 420 571 443 560 q 350 582 397 582 z "},"ẽ":{"ha":685,"x_min":64,"x_max":619,"o":"m 619 300 l 232 300 q 241 184 232 217 q 284 140 250 151 q 403 128 318 128 q 597 139 493 128 l 597 10 q 492 -6 557 0 q 365 -11 426 -11 q 165 24 228 -11 q 83 133 101 60 q 64 353 64 206 q 83 570 64 496 q 163 682 101 644 q 353 719 224 719 q 535 683 479 719 q 606 576 592 647 q 619 353 619 504 l 619 300 m 350 582 q 272 569 296 582 q 241 524 249 557 q 232 414 233 490 l 461 414 q 452 525 461 490 q 420 571 443 560 q 350 582 397 582 m 581 1032 q 574 928 581 964 q 545 874 568 893 q 472 854 522 854 q 408 861 440 854 q 329 881 375 868 q 285 892 317 883 q 232 901 253 901 q 203 890 208 901 q 199 839 199 878 l 104 839 q 110 942 104 907 q 140 997 117 978 q 214 1017 164 1017 q 358 990 264 1017 q 411 977 385 983 q 456 971 438 971 q 483 983 478 971 q 488 1032 488 994 l 581 1032 z "},"ə":{"ha":685,"x_min":65,"x_max":621,"o":"m 319 719 q 520 684 457 719 q 602 576 583 649 q 621 356 621 503 q 602 138 621 213 q 522 26 583 64 q 332 -11 461 -11 q 149 25 206 -11 q 79 133 93 61 q 65 356 65 204 l 65 408 l 453 408 q 444 524 453 492 q 401 569 435 557 q 282 581 367 581 q 88 569 192 581 l 88 699 q 193 714 128 708 q 319 719 258 719 m 335 126 q 413 139 389 126 q 444 185 436 151 q 453 294 451 218 l 224 294 q 233 183 224 218 q 265 138 242 149 q 335 126 288 126 z "},"f":{"ha":489,"x_min":28,"x_max":458,"o":"m 142 568 l 28 568 l 28 708 l 142 708 l 142 772 q 168 949 142 896 q 256 1016 194 1001 q 458 1031 317 1031 l 458 906 q 360 899 389 906 q 320 873 331 893 q 310 804 310 853 l 310 708 l 458 708 l 458 568 l 310 568 l 310 0 l 142 0 l 142 568 z "},"g":{"ha":718,"x_min":64,"x_max":632,"o":"m 329 -282 q 210 -278 272 -282 q 111 -267 149 -274 l 111 -137 q 290 -142 208 -142 q 410 -128 375 -142 q 455 -78 444 -115 q 465 47 465 -42 l 465 88 l 456 88 q 389 19 433 39 q 279 -1 344 -1 q 150 31 196 -1 q 84 139 104 63 q 64 356 64 215 q 85 576 64 499 q 152 687 106 654 q 281 719 199 719 q 461 619 418 719 l 471 619 l 476 708 l 632 708 l 632 86 q 613 -133 632 -60 q 531 -244 594 -207 q 329 -282 467 -282 m 350 144 q 415 156 392 144 q 449 197 438 168 q 462 258 458 221 q 465 357 465 296 q 450 510 465 471 q 416 556 439 543 q 350 569 393 569 q 270 557 293 569 q 240 503 247 544 q 232 357 232 461 q 240 213 232 254 q 270 158 247 171 q 350 144 293 144 z "},"ǵ":{"ha":718,"x_min":64,"x_max":632,"o":"m 329 -282 q 210 -278 272 -282 q 111 -267 149 -274 l 111 -137 q 290 -142 208 -142 q 410 -128 375 -142 q 455 -78 444 -115 q 465 47 465 -42 l 465 88 l 456 88 q 389 19 433 39 q 279 -1 344 -1 q 150 31 196 -1 q 84 139 104 63 q 64 356 64 215 q 85 576 64 499 q 152 687 106 654 q 281 719 199 719 q 461 619 418 719 l 471 619 l 476 708 l 632 708 l 632 86 q 613 -133 632 -60 q 531 -244 594 -207 q 329 -282 467 -282 m 350 144 q 415 156 392 144 q 449 197 438 168 q 462 258 458 221 q 465 357 465 296 q 450 510 465 471 q 416 556 439 543 q 350 569 393 569 q 270 557 293 569 q 240 503 247 544 q 232 357 232 461 q 240 213 232 254 q 270 158 247 171 q 350 144 293 144 m 285 832 l 285 839 l 389 1032 l 558 1032 l 558 1025 l 413 832 l 285 832 z "},"ğ":{"ha":718,"x_min":64,"x_max":632,"o":"m 329 -282 q 210 -278 272 -282 q 111 -267 149 -274 l 111 -137 q 290 -142 208 -142 q 410 -128 375 -142 q 455 -78 444 -115 q 465 47 465 -42 l 465 88 l 456 88 q 389 19 433 39 q 279 -1 344 -1 q 150 31 196 -1 q 84 139 104 63 q 64 356 64 215 q 85 576 64 499 q 152 687 106 654 q 281 719 199 719 q 461 619 418 719 l 471 619 l 476 708 l 632 708 l 632 86 q 613 -133 632 -60 q 531 -244 594 -207 q 329 -282 467 -282 m 350 144 q 415 156 392 144 q 449 197 438 168 q 462 258 458 221 q 465 357 465 296 q 450 510 465 471 q 416 556 439 543 q 350 569 393 569 q 270 557 293 569 q 240 503 247 544 q 232 357 232 461 q 240 213 232 254 q 270 158 247 171 q 350 144 293 144 m 550 1032 q 537 924 550 965 q 482 859 524 883 q 358 835 440 835 q 235 859 276 835 q 182 924 194 883 q 169 1032 169 965 l 271 1032 q 275 974 271 993 q 298 944 279 956 q 358 933 317 933 q 419 944 400 933 q 442 975 438 956 q 447 1032 447 994 l 550 1032 z "},"ǧ":{"ha":718,"x_min":64,"x_max":632,"o":"m 329 -282 q 210 -278 272 -282 q 111 -267 149 -274 l 111 -137 q 290 -142 208 -142 q 410 -128 375 -142 q 455 -78 444 -115 q 465 47 465 -42 l 465 88 l 456 88 q 389 19 433 39 q 279 -1 344 -1 q 150 31 196 -1 q 84 139 104 63 q 64 356 64 215 q 85 576 64 499 q 152 687 106 654 q 281 719 199 719 q 461 619 418 719 l 471 619 l 476 708 l 632 708 l 632 86 q 613 -133 632 -60 q 531 -244 594 -207 q 329 -282 467 -282 m 350 144 q 415 156 392 144 q 449 197 438 168 q 462 258 458 221 q 465 357 465 296 q 450 510 465 471 q 416 556 439 543 q 350 569 393 569 q 270 557 293 569 q 240 503 247 544 q 232 357 232 461 q 240 213 232 254 q 270 158 247 171 q 350 144 293 144 m 275 839 l 156 1022 l 156 1032 l 268 1032 l 358 918 l 450 1032 l 564 1032 l 564 1022 l 442 839 l 275 839 z "},"ĝ":{"ha":718,"x_min":64,"x_max":632,"o":"m 329 -282 q 210 -278 272 -282 q 111 -267 149 -274 l 111 -137 q 290 -142 208 -142 q 410 -128 375 -142 q 455 -78 444 -115 q 465 47 465 -42 l 465 88 l 456 88 q 389 19 433 39 q 279 -1 344 -1 q 150 31 196 -1 q 84 139 104 63 q 64 356 64 215 q 85 576 64 499 q 152 687 106 654 q 281 719 199 719 q 461 619 418 719 l 471 619 l 476 708 l 632 708 l 632 86 q 613 -133 632 -60 q 531 -244 594 -207 q 329 -282 467 -282 m 350 144 q 415 156 392 144 q 449 197 438 168 q 462 258 458 221 q 465 357 465 296 q 450 510 465 471 q 416 556 439 543 q 350 569 393 569 q 270 557 293 569 q 240 503 247 544 q 232 357 232 461 q 240 213 232 254 q 270 158 247 171 q 350 144 293 144 m 156 839 l 156 850 l 275 1032 l 443 1032 l 564 850 l 564 839 l 450 839 l 358 954 l 268 839 l 156 839 z "},"ģ":{"ha":718,"x_min":64,"x_max":632,"o":"m 329 -282 q 210 -278 272 -282 q 111 -267 149 -274 l 111 -137 q 290 -142 208 -142 q 410 -128 375 -142 q 455 -78 444 -115 q 465 47 465 -42 l 465 88 l 456 88 q 389 19 433 39 q 279 -1 344 -1 q 150 31 196 -1 q 84 139 104 63 q 64 356 64 215 q 85 576 64 499 q 152 687 106 654 q 281 719 199 719 q 461 619 418 719 l 471 619 l 476 708 l 632 708 l 632 86 q 613 -133 632 -60 q 531 -244 594 -207 q 329 -282 467 -282 m 350 144 q 415 156 392 144 q 449 197 438 168 q 462 258 458 221 q 465 357 465 296 q 450 510 465 471 q 416 556 439 543 q 350 569 393 569 q 270 557 293 569 q 240 503 247 544 q 232 357 232 461 q 240 213 232 254 q 270 158 247 171 q 350 144 293 144 m 461 1076 q 395 1064 411 1076 q 379 1014 379 1051 l 379 992 l 449 992 l 449 833 l 272 833 l 272 946 q 285 1074 272 1033 q 337 1132 297 1115 q 461 1149 376 1149 l 461 1076 z "},"ġ":{"ha":718,"x_min":64,"x_max":632,"o":"m 329 -282 q 210 -278 272 -282 q 111 -267 149 -274 l 111 -137 q 290 -142 208 -142 q 410 -128 375 -142 q 455 -78 444 -115 q 465 47 465 -42 l 465 88 l 456 88 q 389 19 433 39 q 279 -1 344 -1 q 150 31 196 -1 q 84 139 104 63 q 64 356 64 215 q 85 576 64 499 q 152 687 106 654 q 281 719 199 719 q 461 619 418 719 l 471 619 l 476 708 l 632 708 l 632 86 q 613 -133 632 -60 q 531 -244 594 -207 q 329 -282 467 -282 m 350 144 q 415 156 392 144 q 449 197 438 168 q 462 258 458 221 q 465 357 465 296 q 450 510 465 471 q 416 556 439 543 q 350 569 393 569 q 270 557 293 569 q 240 503 247 544 q 232 357 232 461 q 240 213 232 254 q 270 158 247 171 q 350 144 293 144 m 288 878 l 288 1014 l 432 1014 l 432 878 l 288 878 z "},"h":{"ha":728,"x_min":86,"x_max":642,"o":"m 475 382 q 469 511 475 475 q 442 558 463 547 q 369 569 421 569 q 292 551 317 569 q 260 491 268 532 q 253 367 253 450 l 253 0 l 86 0 l 86 1032 l 253 1032 l 253 625 l 263 625 q 331 697 285 674 q 446 719 376 719 q 570 691 528 719 q 627 607 613 663 q 642 454 642 551 l 642 0 l 475 0 l 475 382 z "},"ħ":{"ha":728,"x_min":11,"x_max":642,"o":"m 446 719 q 570 691 528 719 q 627 607 613 663 q 642 454 642 551 l 642 0 l 475 0 l 475 382 q 469 511 475 475 q 442 558 463 547 q 369 569 421 569 q 292 551 317 569 q 260 491 268 532 q 253 367 253 450 l 253 0 l 86 0 l 86 818 l 11 818 l 11 956 l 86 956 l 86 1032 l 253 1032 l 253 956 l 406 956 l 406 818 l 253 818 l 253 625 l 263 625 q 331 697 285 674 q 446 719 376 719 z "},"ĥ":{"ha":728,"x_min":-35,"x_max":642,"o":"m 475 382 q 469 511 475 475 q 442 558 463 547 q 369 569 421 569 q 292 551 317 569 q 260 491 268 532 q 253 367 253 450 l 253 0 l 86 0 l 86 1032 l 253 1032 l 253 625 l 263 625 q 331 697 285 674 q 446 719 376 719 q 570 691 528 719 q 627 607 613 663 q 642 454 642 551 l 642 0 l 475 0 l 475 382 m -35 1086 l -35 1097 l 85 1279 l 253 1279 l 374 1097 l 374 1086 l 260 1086 l 168 1201 l 78 1086 l -35 1086 z "},"ḥ":{"ha":728,"x_min":86,"x_max":642,"o":"m 475 382 q 469 511 475 475 q 442 558 463 547 q 369 569 421 569 q 292 551 317 569 q 260 491 268 532 q 253 367 253 450 l 253 0 l 86 0 l 86 1032 l 253 1032 l 253 625 l 263 625 q 331 697 285 674 q 446 719 376 719 q 570 691 528 719 q 627 607 613 663 q 642 454 642 551 l 642 0 l 475 0 l 475 382 m 271 -260 l 271 -86 l 456 -86 l 456 -260 l 271 -260 z "},"i":{"ha":340,"x_min":85,"x_max":256,"o":"m 85 874 l 85 1032 l 256 1032 l 256 874 l 85 874 m 86 0 l 86 708 l 254 708 l 254 0 l 86 0 z "},"ı":{"ha":340,"x_min":86,"x_max":254,"o":"m 86 0 l 86 708 l 254 708 l 254 0 l 86 0 z "},"í":{"ha":340,"x_min":86,"x_max":363,"o":"m 86 0 l 86 708 l 254 708 l 254 0 l 86 0 m 89 832 l 89 839 l 193 1032 l 363 1032 l 363 1025 l 217 832 l 89 832 z "},"ĭ":{"ha":340,"x_min":-19,"x_max":361,"o":"m 86 0 l 86 708 l 254 708 l 254 0 l 86 0 m 361 1032 q 348 924 361 965 q 293 859 335 883 q 169 835 251 835 q 47 859 88 835 q -7 924 6 883 q -19 1032 -19 965 l 82 1032 q 86 974 82 993 q 109 944 90 956 q 169 933 128 933 q 230 944 211 933 q 253 975 249 956 q 258 1032 258 994 l 361 1032 z "},"ǐ":{"ha":340,"x_min":-33,"x_max":375,"o":"m 86 0 l 86 708 l 254 708 l 254 0 l 86 0 m 86 839 l -33 1022 l -33 1032 l 79 1032 l 169 918 l 261 1032 l 375 1032 l 375 1022 l 253 839 l 86 839 z "},"î":{"ha":340,"x_min":-33,"x_max":375,"o":"m 86 0 l 86 708 l 254 708 l 254 0 l 86 0 m -33 839 l -33 850 l 86 1032 l 254 1032 l 375 850 l 375 839 l 261 839 l 169 954 l 79 839 l -33 839 z "},"ȉ":{"ha":340,"x_min":-114,"x_max":353,"o":"m 86 0 l 86 708 l 254 708 l 254 0 l 86 0 m 119 846 l 13 846 l -114 1013 l -114 1019 l 26 1019 l 119 851 l 119 846 m 353 846 l 247 846 l 119 1013 l 119 1019 l 261 1019 l 353 851 l 353 846 z "},"ï":{"ha":340,"x_min":-31,"x_max":374,"o":"m 86 0 l 86 708 l 254 708 l 254 0 l 86 0 m -31 874 l -31 1010 l 115 1010 l 115 874 l -31 874 m 229 874 l 229 1010 l 374 1010 l 374 874 l 229 874 z "},"ị":{"ha":340,"x_min":81,"x_max":265,"o":"m 85 874 l 85 1032 l 256 1032 l 256 874 l 85 874 m 86 0 l 86 708 l 254 708 l 254 0 l 86 0 m 81 -260 l 81 -86 l 265 -86 l 265 -260 l 81 -260 z "},"ì":{"ha":340,"x_min":-21,"x_max":254,"o":"m 86 0 l 86 708 l 254 708 l 254 0 l 86 0 m 125 832 l -21 1025 l -21 1032 l 149 1032 l 253 839 l 253 832 l 125 832 z "},"ỉ":{"ha":340,"x_min":4,"x_max":338,"o":"m 86 0 l 86 708 l 254 708 l 254 0 l 86 0 m 85 864 q 97 920 85 904 q 146 949 110 936 l 169 957 q 212 976 201 967 q 222 1001 222 985 q 207 1031 222 1025 q 143 1038 192 1038 q 4 1029 68 1038 l 4 1122 q 160 1136 88 1136 q 294 1111 250 1136 q 338 1014 338 1086 q 321 944 338 967 q 258 903 304 921 l 232 893 q 192 873 199 881 q 185 846 185 865 l 85 846 l 85 864 z "},"ȋ":{"ha":340,"x_min":-19,"x_max":361,"o":"m 86 0 l 86 708 l 254 708 l 254 0 l 86 0 m -19 843 q -6 951 -19 910 q 49 1016 7 992 q 172 1040 90 1040 q 295 1016 254 1040 q 349 951 336 992 q 361 843 361 910 l 260 843 q 256 901 260 882 q 233 931 251 919 q 172 942 214 942 q 112 931 131 942 q 88 900 93 919 q 83 843 83 881 l -19 843 z "},"ĳ":{"ha":681,"x_min":85,"x_max":596,"o":"m 85 874 l 85 1032 l 256 1032 l 256 874 l 85 874 m 86 0 l 86 708 l 254 708 l 254 0 l 86 0 m 425 874 l 425 1032 l 596 1032 l 596 874 l 425 874 m 321 -146 q 392 -139 369 -146 q 420 -117 414 -132 q 426 -72 426 -103 l 426 708 l 594 708 l 594 -22 q 572 -190 594 -139 q 494 -258 549 -242 q 321 -274 439 -274 l 321 -146 z "},"ī":{"ha":340,"x_min":10,"x_max":331,"o":"m 86 0 l 86 708 l 254 708 l 254 0 l 86 0 m 10 883 l 10 1032 l 331 1032 l 331 883 l 10 883 z "},"į":{"ha":340,"x_min":36,"x_max":256,"o":"m 242 1014 l 242 878 l 97 878 l 97 1014 l 242 1014 m 256 -174 l 256 -268 q 183 -272 210 -272 q 70 -241 104 -272 q 36 -161 36 -210 q 118 0 36 -79 l 86 0 l 86 708 l 254 708 l 254 0 q 198 -57 224 -21 q 172 -125 172 -93 q 186 -161 172 -147 q 231 -175 200 -175 l 256 -174 z "},"ĩ":{"ha":340,"x_min":-68,"x_max":408,"o":"m 86 0 l 86 708 l 254 708 l 254 0 l 86 0 m 408 1032 q 402 928 408 964 q 373 874 396 893 q 300 854 350 854 q 235 861 268 854 q 157 881 203 868 q 113 892 144 883 q 60 901 81 901 q 31 890 36 901 q 26 839 26 878 l -68 839 q -62 942 -68 907 q -32 997 -56 978 q 42 1017 -8 1017 q 186 990 92 1017 q 239 977 213 983 q 283 971 265 971 q 310 983 306 971 q 315 1032 315 994 l 408 1032 z "},"j":{"ha":340,"x_min":-19,"x_max":256,"o":"m 85 874 l 85 1032 l 256 1032 l 256 874 l 85 874 m -19 -146 q 51 -139 29 -146 q 80 -117 74 -132 q 86 -72 86 -103 l 86 708 l 254 708 l 254 -22 q 231 -190 254 -139 q 153 -258 208 -242 q -19 -274 99 -274 l -19 -146 z "},"ȷ":{"ha":340,"x_min":-19,"x_max":254,"o":"m -19 -146 q 51 -139 29 -146 q 80 -117 74 -132 q 86 -72 86 -103 l 86 708 l 254 708 l 254 -22 q 231 -190 254 -139 q 153 -258 208 -242 q -19 -274 99 -274 l -19 -146 z "},"ĵ":{"ha":340,"x_min":-33,"x_max":375,"o":"m -19 -146 q 51 -139 29 -146 q 80 -117 74 -132 q 86 -72 86 -103 l 86 708 l 254 708 l 254 -22 q 231 -190 254 -139 q 153 -258 208 -242 q -19 -274 99 -274 l -19 -146 m -33 839 l -33 850 l 86 1032 l 254 1032 l 375 850 l 375 839 l 261 839 l 169 954 l 79 839 l -33 839 z "},"k":{"ha":682,"x_min":86,"x_max":658,"o":"m 475 0 l 308 285 l 253 285 l 253 0 l 86 0 l 86 1032 l 253 1032 l 253 424 l 308 424 l 478 708 l 656 708 l 443 368 l 658 0 l 475 0 z "},"ķ":{"ha":682,"x_min":86,"x_max":658,"o":"m 475 0 l 308 285 l 253 285 l 253 0 l 86 0 l 86 1032 l 253 1032 l 253 424 l 308 424 l 478 708 l 656 708 l 443 368 l 658 0 l 475 0 m 247 -329 q 313 -317 297 -329 q 329 -267 329 -304 l 329 -244 l 260 -244 l 260 -86 l 436 -86 l 436 -199 q 424 -327 436 -286 q 372 -385 411 -368 q 247 -401 332 -401 l 247 -329 z "},"ĸ":{"ha":682,"x_min":86,"x_max":658,"o":"m 475 0 l 308 285 l 253 285 l 253 0 l 86 0 l 86 708 l 253 708 l 253 424 l 308 424 l 478 708 l 656 708 l 443 368 l 658 0 l 475 0 z "},"l":{"ha":340,"x_min":86,"x_max":254,"o":"m 86 0 l 86 1032 l 254 1032 l 254 0 l 86 0 z "},"ĺ":{"ha":340,"x_min":86,"x_max":369,"o":"m 86 0 l 86 1032 l 254 1032 l 254 0 l 86 0 m 96 1079 l 96 1086 l 200 1279 l 369 1279 l 369 1272 l 224 1079 l 96 1079 z "},"ľ":{"ha":389,"x_min":86,"x_max":474,"o":"m 86 0 l 86 1032 l 254 1032 l 254 0 l 86 0 m 294 601 l 317 871 l 317 956 l 474 956 l 474 871 l 413 601 l 294 601 z "},"ļ":{"ha":340,"x_min":76,"x_max":265,"o":"m 86 0 l 86 1032 l 254 1032 l 254 0 l 86 0 m 76 -329 q 142 -317 126 -329 q 158 -267 158 -304 l 158 -244 l 89 -244 l 89 -86 l 265 -86 l 265 -199 q 253 -327 265 -286 q 201 -385 240 -368 q 76 -401 161 -401 l 76 -329 z "},"ŀ":{"ha":440,"x_min":86,"x_max":483,"o":"m 86 0 l 86 1032 l 254 1032 l 254 0 l 86 0 m 303 329 l 303 503 l 483 503 l 483 329 l 303 329 z "},"ǉ":{"ha":681,"x_min":86,"x_max":596,"o":"m 86 0 l 86 1032 l 254 1032 l 254 0 l 86 0 m 425 874 l 425 1032 l 596 1032 l 596 874 l 425 874 m 321 -146 q 392 -139 369 -146 q 420 -117 414 -132 q 426 -72 426 -103 l 426 708 l 594 708 l 594 -22 q 572 -190 594 -139 q 494 -258 549 -242 q 321 -274 439 -274 l 321 -146 z "},"ł":{"ha":353,"x_min":25,"x_max":326,"o":"m 92 0 l 92 411 l 25 389 l 25 526 l 92 549 l 92 1032 l 258 1032 l 258 610 l 326 633 l 326 496 l 258 471 l 258 0 l 92 0 z "},"m":{"ha":1076,"x_min":86,"x_max":990,"o":"m 824 382 q 817 510 824 474 q 792 558 811 547 q 726 569 774 569 q 658 551 679 569 q 629 492 636 533 q 622 367 622 451 l 622 0 l 456 0 l 456 382 q 449 510 456 474 q 424 558 443 547 q 358 569 406 569 q 289 551 311 569 q 260 491 267 532 q 253 367 253 450 l 253 0 l 86 0 l 86 708 l 242 708 l 247 619 l 257 619 q 324 695 279 671 q 439 719 368 719 q 553 695 514 719 q 608 619 593 671 l 618 619 q 686 695 640 671 q 804 719 732 719 q 921 691 881 719 q 976 607 961 663 q 990 456 990 551 l 990 0 l 824 0 l 824 382 z "},"n":{"ha":728,"x_min":86,"x_max":642,"o":"m 475 382 q 469 511 475 475 q 442 558 463 547 q 369 569 421 569 q 292 551 317 569 q 260 491 268 532 q 253 367 253 450 l 253 0 l 86 0 l 86 708 l 242 708 l 247 619 l 257 619 q 326 695 279 671 q 447 719 374 719 q 571 691 529 719 q 627 606 613 663 q 642 453 642 550 l 642 0 l 475 0 l 475 382 z "},"ń":{"ha":728,"x_min":86,"x_max":642,"o":"m 475 382 q 469 511 475 475 q 442 558 463 547 q 369 569 421 569 q 292 551 317 569 q 260 491 268 532 q 253 367 253 450 l 253 0 l 86 0 l 86 708 l 242 708 l 247 619 l 257 619 q 326 695 279 671 q 447 719 374 719 q 571 691 529 719 q 627 606 613 663 q 642 453 642 550 l 642 0 l 475 0 l 475 382 m 289 832 l 289 839 l 393 1032 l 563 1032 l 563 1025 l 417 832 l 289 832 z "},"ŉ":{"ha":857,"x_min":18,"x_max":771,"o":"m 18 789 q 83 807 67 789 q 100 879 100 825 l 100 903 l 31 903 l 31 1032 l 207 1032 l 207 949 q 194 802 207 849 q 142 736 182 756 q 18 717 103 717 l 18 789 m 604 382 q 598 511 604 475 q 571 558 592 547 q 499 569 550 569 q 422 551 446 569 q 390 491 397 532 q 382 367 382 450 l 382 0 l 215 0 l 215 708 l 371 708 l 376 619 l 386 619 q 456 695 408 671 q 576 719 503 719 q 700 691 658 719 q 756 606 742 663 q 771 453 771 550 l 771 0 l 604 0 l 604 382 z "},"ň":{"ha":728,"x_min":86,"x_max":642,"o":"m 475 382 q 469 511 475 475 q 442 558 463 547 q 369 569 421 569 q 292 551 317 569 q 260 491 268 532 q 253 367 253 450 l 253 0 l 86 0 l 86 708 l 242 708 l 247 619 l 257 619 q 326 695 279 671 q 447 719 374 719 q 571 691 529 719 q 627 606 613 663 q 642 453 642 550 l 642 0 l 475 0 l 475 382 m 279 839 l 160 1022 l 160 1032 l 272 1032 l 363 918 l 454 1032 l 568 1032 l 568 1022 l 446 839 l 279 839 z "},"ņ":{"ha":728,"x_min":86,"x_max":642,"o":"m 475 382 q 469 511 475 475 q 442 558 463 547 q 369 569 421 569 q 292 551 317 569 q 260 491 268 532 q 253 367 253 450 l 253 0 l 86 0 l 86 708 l 242 708 l 247 619 l 257 619 q 326 695 279 671 q 447 719 374 719 q 571 691 529 719 q 627 606 613 663 q 642 453 642 550 l 642 0 l 475 0 l 475 382 m 269 -329 q 335 -317 319 -329 q 351 -267 351 -304 l 351 -244 l 282 -244 l 282 -86 l 458 -86 l 458 -199 q 446 -327 458 -286 q 394 -385 433 -368 q 269 -401 354 -401 l 269 -329 z "},"ṅ":{"ha":728,"x_min":86,"x_max":642,"o":"m 475 382 q 469 511 475 475 q 442 558 463 547 q 369 569 421 569 q 292 551 317 569 q 260 491 268 532 q 253 367 253 450 l 253 0 l 86 0 l 86 708 l 242 708 l 247 619 l 257 619 q 326 695 279 671 q 447 719 374 719 q 571 691 529 719 q 627 606 613 663 q 642 453 642 550 l 642 0 l 475 0 l 475 382 m 292 878 l 292 1014 l 436 1014 l 436 878 l 292 878 z "},"ŋ":{"ha":728,"x_min":86,"x_max":642,"o":"m 447 719 q 571 691 529 719 q 627 606 613 663 q 642 453 642 550 l 642 -22 q 619 -191 642 -139 q 542 -258 596 -243 q 369 -274 488 -274 l 369 -146 q 440 -139 418 -146 q 469 -117 463 -132 q 475 -72 475 -103 l 475 382 q 469 511 475 475 q 442 558 463 547 q 369 569 421 569 q 292 551 317 569 q 260 491 268 532 q 253 367 253 450 l 253 0 l 86 0 l 86 708 l 242 708 l 247 619 l 257 619 q 326 695 279 671 q 447 719 374 719 z "},"ɲ":{"ha":728,"x_min":-19,"x_max":642,"o":"m -19 -146 q 51 -139 29 -146 q 80 -117 74 -132 q 86 -72 86 -103 l 86 708 l 242 708 l 247 619 l 257 619 q 326 695 279 671 q 447 719 374 719 q 571 691 529 719 q 627 606 613 663 q 642 453 642 550 l 642 0 l 475 0 l 475 382 q 469 511 475 475 q 442 558 463 547 q 369 569 421 569 q 292 551 317 569 q 260 491 268 532 q 253 367 253 450 l 253 -22 q 230 -191 253 -139 q 153 -258 207 -243 q -19 -274 99 -274 l -19 -146 z "},"ǌ":{"ha":1068,"x_min":86,"x_max":983,"o":"m 475 382 q 469 511 475 475 q 442 558 463 547 q 369 569 421 569 q 292 551 317 569 q 260 491 268 532 q 253 367 253 450 l 253 0 l 86 0 l 86 708 l 242 708 l 247 619 l 257 619 q 326 695 279 671 q 447 719 374 719 q 571 691 529 719 q 627 606 613 663 q 642 453 642 550 l 642 0 l 475 0 l 475 382 m 813 874 l 813 1032 l 983 1032 l 983 874 l 813 874 m 708 -146 q 779 -139 757 -146 q 808 -117 801 -132 q 814 -72 814 -103 l 814 708 l 982 708 l 982 -22 q 959 -190 982 -139 q 881 -258 936 -242 q 708 -274 826 -274 l 708 -146 z "},"ñ":{"ha":728,"x_min":86,"x_max":642,"o":"m 475 382 q 469 511 475 475 q 442 558 463 547 q 369 569 421 569 q 292 551 317 569 q 260 491 268 532 q 253 367 253 450 l 253 0 l 86 0 l 86 708 l 242 708 l 247 619 l 257 619 q 326 695 279 671 q 447 719 374 719 q 571 691 529 719 q 627 606 613 663 q 642 453 642 550 l 642 0 l 475 0 l 475 382 m 606 1032 q 599 928 606 964 q 570 874 593 893 q 497 854 547 854 q 433 861 465 854 q 354 881 400 868 q 310 892 342 883 q 257 901 278 901 q 228 890 233 901 q 224 839 224 878 l 129 839 q 135 942 129 907 q 165 997 142 978 q 239 1017 189 1017 q 383 990 289 1017 q 436 977 410 983 q 481 971 463 971 q 508 983 503 971 q 513 1032 513 994 l 606 1032 z "},"o":{"ha":704,"x_min":64,"x_max":640,"o":"m 353 -11 q 157 20 217 -11 q 81 123 97 51 q 64 354 64 194 q 81 587 64 515 q 157 689 97 658 q 353 719 217 719 q 547 689 488 719 q 624 586 607 658 q 640 354 640 514 q 624 123 640 194 q 547 20 607 51 q 353 -11 488 -11 m 353 129 q 438 143 414 129 q 467 199 461 157 q 472 354 472 240 q 467 510 472 469 q 438 565 461 551 q 353 579 415 579 q 267 565 290 579 q 238 510 243 551 q 232 354 232 469 q 238 199 232 240 q 267 143 243 157 q 353 129 290 129 z "},"ó":{"ha":704,"x_min":64,"x_max":640,"o":"m 353 -11 q 157 20 217 -11 q 81 123 97 51 q 64 354 64 194 q 81 587 64 515 q 157 689 97 658 q 353 719 217 719 q 547 689 488 719 q 624 586 607 658 q 640 354 640 514 q 624 123 640 194 q 547 20 607 51 q 353 -11 488 -11 m 353 129 q 438 143 414 129 q 467 199 461 157 q 472 354 472 240 q 467 510 472 469 q 438 565 461 551 q 353 579 415 579 q 267 565 290 579 q 238 510 243 551 q 232 354 232 469 q 238 199 232 240 q 267 143 243 157 q 353 129 290 129 m 279 832 l 279 839 l 383 1032 l 553 1032 l 553 1025 l 407 832 l 279 832 z "},"ŏ":{"ha":704,"x_min":64,"x_max":640,"o":"m 353 -11 q 157 20 217 -11 q 81 123 97 51 q 64 354 64 194 q 81 587 64 515 q 157 689 97 658 q 353 719 217 719 q 547 689 488 719 q 624 586 607 658 q 640 354 640 514 q 624 123 640 194 q 547 20 607 51 q 353 -11 488 -11 m 353 129 q 438 143 414 129 q 467 199 461 157 q 472 354 472 240 q 467 510 472 469 q 438 565 461 551 q 353 579 415 579 q 267 565 290 579 q 238 510 243 551 q 232 354 232 469 q 238 199 232 240 q 267 143 243 157 q 353 129 290 129 m 543 1032 q 530 924 543 965 q 475 859 517 883 q 351 835 433 835 q 228 859 269 835 q 175 924 188 883 q 163 1032 163 965 l 264 1032 q 268 974 264 993 q 291 944 272 956 q 351 933 310 933 q 412 944 393 933 q 435 975 431 956 q 440 1032 440 994 l 543 1032 z "},"ǒ":{"ha":704,"x_min":64,"x_max":640,"o":"m 353 -11 q 157 20 217 -11 q 81 123 97 51 q 64 354 64 194 q 81 587 64 515 q 157 689 97 658 q 353 719 217 719 q 547 689 488 719 q 624 586 607 658 q 640 354 640 514 q 624 123 640 194 q 547 20 607 51 q 353 -11 488 -11 m 353 129 q 438 143 414 129 q 467 199 461 157 q 472 354 472 240 q 467 510 472 469 q 438 565 461 551 q 353 579 415 579 q 267 565 290 579 q 238 510 243 551 q 232 354 232 469 q 238 199 232 240 q 267 143 243 157 q 353 129 290 129 m 268 839 l 149 1022 l 149 1032 l 261 1032 l 351 918 l 443 1032 l 557 1032 l 557 1022 l 435 839 l 268 839 z "},"ô":{"ha":704,"x_min":64,"x_max":640,"o":"m 353 -11 q 157 20 217 -11 q 81 123 97 51 q 64 354 64 194 q 81 587 64 515 q 157 689 97 658 q 353 719 217 719 q 547 689 488 719 q 624 586 607 658 q 640 354 640 514 q 624 123 640 194 q 547 20 607 51 q 353 -11 488 -11 m 353 129 q 438 143 414 129 q 467 199 461 157 q 472 354 472 240 q 467 510 472 469 q 438 565 461 551 q 353 579 415 579 q 267 565 290 579 q 238 510 243 551 q 232 354 232 469 q 238 199 232 240 q 267 143 243 157 q 353 129 290 129 m 149 839 l 149 850 l 268 1032 l 436 1032 l 557 850 l 557 839 l 443 839 l 351 954 l 261 839 l 149 839 z "},"ố":{"ha":704,"x_min":64,"x_max":656,"o":"m 353 -11 q 157 20 217 -11 q 81 123 97 51 q 64 354 64 194 q 81 587 64 515 q 157 689 97 658 q 353 719 217 719 q 547 689 488 719 q 624 586 607 658 q 640 354 640 514 q 624 123 640 194 q 547 20 607 51 q 353 -11 488 -11 m 353 129 q 438 143 414 129 q 467 199 461 157 q 472 354 472 240 q 467 510 472 469 q 438 565 461 551 q 353 579 415 579 q 267 565 290 579 q 238 510 243 551 q 232 354 232 469 q 238 199 232 240 q 267 143 243 157 q 353 129 290 129 m 147 839 l 147 850 l 267 1032 l 435 1032 l 556 850 l 556 839 l 442 839 l 350 954 l 260 839 l 147 839 m 382 1072 l 382 1079 l 486 1272 l 656 1272 l 656 1265 l 510 1072 l 382 1072 z "},"ộ":{"ha":704,"x_min":64,"x_max":640,"o":"m 353 -11 q 157 20 217 -11 q 81 123 97 51 q 64 354 64 194 q 81 587 64 515 q 157 689 97 658 q 353 719 217 719 q 547 689 488 719 q 624 586 607 658 q 640 354 640 514 q 624 123 640 194 q 547 20 607 51 q 353 -11 488 -11 m 353 129 q 438 143 414 129 q 467 199 461 157 q 472 354 472 240 q 467 510 472 469 q 438 565 461 551 q 353 579 415 579 q 267 565 290 579 q 238 510 243 551 q 232 354 232 469 q 238 199 232 240 q 267 143 243 157 q 353 129 290 129 m 260 -260 l 260 -86 l 444 -86 l 444 -260 l 260 -260 m 149 839 l 149 850 l 268 1032 l 436 1032 l 557 850 l 557 839 l 443 839 l 351 954 l 261 839 l 149 839 z "},"ồ":{"ha":704,"x_min":64,"x_max":640,"o":"m 353 -11 q 157 20 217 -11 q 81 123 97 51 q 64 354 64 194 q 81 587 64 515 q 157 689 97 658 q 353 719 217 719 q 547 689 488 719 q 624 586 607 658 q 640 354 640 514 q 624 123 640 194 q 547 20 607 51 q 353 -11 488 -11 m 353 129 q 438 143 414 129 q 467 199 461 157 q 472 354 472 240 q 467 510 472 469 q 438 565 461 551 q 353 579 415 579 q 267 565 290 579 q 238 510 243 551 q 232 354 232 469 q 238 199 232 240 q 267 143 243 157 q 353 129 290 129 m 144 839 l 144 850 l 264 1032 l 432 1032 l 553 850 l 553 839 l 439 839 l 347 954 l 257 839 l 144 839 m 429 1072 l 283 1265 l 283 1272 l 453 1272 l 557 1079 l 557 1072 l 429 1072 z "},"ổ":{"ha":704,"x_min":64,"x_max":650,"o":"m 353 -11 q 157 20 217 -11 q 81 123 97 51 q 64 354 64 194 q 81 587 64 515 q 157 689 97 658 q 353 719 217 719 q 547 689 488 719 q 624 586 607 658 q 640 354 640 514 q 624 123 640 194 q 547 20 607 51 q 353 -11 488 -11 m 353 129 q 438 143 414 129 q 467 199 461 157 q 472 354 472 240 q 467 510 472 469 q 438 565 461 551 q 353 579 415 579 q 267 565 290 579 q 238 510 243 551 q 232 354 232 469 q 238 199 232 240 q 267 143 243 157 q 353 129 290 129 m 149 839 l 149 850 l 268 1032 l 436 1032 l 557 850 l 557 839 l 443 839 l 351 954 l 261 839 l 149 839 m 397 1076 q 410 1133 397 1117 q 458 1161 422 1149 l 482 1169 q 524 1188 514 1179 q 535 1214 535 1197 q 519 1244 535 1238 q 456 1250 504 1250 q 317 1242 381 1250 l 317 1335 q 472 1349 400 1349 q 606 1324 563 1349 q 650 1226 650 1299 q 633 1156 650 1179 q 571 1115 617 1133 l 544 1106 q 504 1085 511 1093 q 497 1058 497 1078 l 397 1058 l 397 1076 z "},"ỗ":{"ha":704,"x_min":64,"x_max":640,"o":"m 353 -11 q 157 20 217 -11 q 81 123 97 51 q 64 354 64 194 q 81 587 64 515 q 157 689 97 658 q 353 719 217 719 q 547 689 488 719 q 624 586 607 658 q 640 354 640 514 q 624 123 640 194 q 547 20 607 51 q 353 -11 488 -11 m 353 129 q 438 143 414 129 q 467 199 461 157 q 472 354 472 240 q 467 510 472 469 q 438 565 461 551 q 353 579 415 579 q 267 565 290 579 q 238 510 243 551 q 232 354 232 469 q 238 199 232 240 q 267 143 243 157 q 353 129 290 129 m 146 839 l 146 850 l 265 1032 l 433 1032 l 554 850 l 554 839 l 440 839 l 349 954 l 258 839 l 146 839 m 590 1272 q 584 1169 590 1204 q 555 1114 578 1133 q 482 1094 532 1094 q 417 1101 450 1094 q 339 1121 385 1108 q 294 1133 326 1124 q 242 1142 263 1142 q 213 1130 218 1142 q 208 1079 208 1118 l 114 1079 q 120 1183 114 1147 q 150 1238 126 1218 q 224 1257 174 1257 q 368 1231 274 1257 q 421 1217 394 1224 q 465 1211 447 1211 q 492 1223 488 1211 q 497 1272 497 1235 l 590 1272 z "},"ȍ":{"ha":704,"x_min":64,"x_max":640,"o":"m 353 -11 q 157 20 217 -11 q 81 123 97 51 q 64 354 64 194 q 81 587 64 515 q 157 689 97 658 q 353 719 217 719 q 547 689 488 719 q 624 586 607 658 q 640 354 640 514 q 624 123 640 194 q 547 20 607 51 q 353 -11 488 -11 m 353 129 q 438 143 414 129 q 467 199 461 157 q 472 354 472 240 q 467 510 472 469 q 438 565 461 551 q 353 579 415 579 q 267 565 290 579 q 238 510 243 551 q 232 354 232 469 q 238 199 232 240 q 267 143 243 157 q 353 129 290 129 m 301 846 l 194 846 l 68 1013 l 68 1019 l 208 1019 l 301 851 l 301 846 m 535 846 l 429 846 l 301 1013 l 301 1019 l 443 1019 l 535 851 l 535 846 z "},"ö":{"ha":704,"x_min":64,"x_max":640,"o":"m 353 -11 q 157 20 217 -11 q 81 123 97 51 q 64 354 64 194 q 81 587 64 515 q 157 689 97 658 q 353 719 217 719 q 547 689 488 719 q 624 586 607 658 q 640 354 640 514 q 624 123 640 194 q 547 20 607 51 q 353 -11 488 -11 m 353 129 q 438 143 414 129 q 467 199 461 157 q 472 354 472 240 q 467 510 472 469 q 438 565 461 551 q 353 579 415 579 q 267 565 290 579 q 238 510 243 551 q 232 354 232 469 q 238 199 232 240 q 267 143 243 157 q 353 129 290 129 m 150 874 l 150 1010 l 296 1010 l 296 874 l 150 874 m 410 874 l 410 1010 l 554 1010 l 554 874 l 410 874 z "},"ọ":{"ha":704,"x_min":64,"x_max":640,"o":"m 353 -11 q 157 20 217 -11 q 81 123 97 51 q 64 354 64 194 q 81 587 64 515 q 157 689 97 658 q 353 719 217 719 q 547 689 488 719 q 624 586 607 658 q 640 354 640 514 q 624 123 640 194 q 547 20 607 51 q 353 -11 488 -11 m 353 129 q 438 143 414 129 q 467 199 461 157 q 472 354 472 240 q 467 510 472 469 q 438 565 461 551 q 353 579 415 579 q 267 565 290 579 q 238 510 243 551 q 232 354 232 469 q 238 199 232 240 q 267 143 243 157 q 353 129 290 129 m 260 -260 l 260 -86 l 444 -86 l 444 -260 l 260 -260 z "},"ò":{"ha":704,"x_min":64,"x_max":640,"o":"m 353 -11 q 157 20 217 -11 q 81 123 97 51 q 64 354 64 194 q 81 587 64 515 q 157 689 97 658 q 353 719 217 719 q 547 689 488 719 q 624 586 607 658 q 640 354 640 514 q 624 123 640 194 q 547 20 607 51 q 353 -11 488 -11 m 353 129 q 438 143 414 129 q 467 199 461 157 q 472 354 472 240 q 467 510 472 469 q 438 565 461 551 q 353 579 415 579 q 267 565 290 579 q 238 510 243 551 q 232 354 232 469 q 238 199 232 240 q 267 143 243 157 q 353 129 290 129 m 300 832 l 154 1025 l 154 1032 l 324 1032 l 428 839 l 428 832 l 300 832 z "},"ỏ":{"ha":704,"x_min":64,"x_max":640,"o":"m 353 -11 q 157 20 217 -11 q 81 123 97 51 q 64 354 64 194 q 81 587 64 515 q 157 689 97 658 q 353 719 217 719 q 547 689 488 719 q 624 586 607 658 q 640 354 640 514 q 624 123 640 194 q 547 20 607 51 q 353 -11 488 -11 m 353 129 q 438 143 414 129 q 467 199 461 157 q 472 354 472 240 q 467 510 472 469 q 438 565 461 551 q 353 579 415 579 q 267 565 290 579 q 238 510 243 551 q 232 354 232 469 q 238 199 232 240 q 267 143 243 157 q 353 129 290 129 m 267 864 q 279 920 267 904 q 328 949 292 936 l 351 957 q 394 976 383 967 q 404 1001 404 985 q 389 1031 404 1025 q 325 1038 374 1038 q 186 1029 250 1038 l 186 1122 q 342 1136 269 1136 q 476 1111 432 1136 q 519 1014 519 1086 q 503 944 519 967 q 440 903 486 921 l 414 893 q 374 873 381 881 q 367 846 367 865 l 267 846 l 267 864 z "},"ơ":{"ha":704,"x_min":64,"x_max":739,"o":"m 739 839 l 739 800 q 729 708 739 740 q 690 660 719 676 q 601 639 661 643 q 633 536 625 600 q 640 354 640 472 q 624 123 640 194 q 547 20 607 51 q 353 -11 488 -11 q 157 20 217 -11 q 81 123 97 51 q 64 354 64 194 q 81 587 64 515 q 157 689 97 658 q 353 719 217 719 q 490 708 442 719 l 538 708 q 596 715 576 708 q 622 735 615 721 q 628 779 628 750 l 628 839 l 739 839 m 353 129 q 438 143 414 129 q 467 199 461 157 q 472 354 472 240 q 467 510 472 469 q 438 565 461 551 q 353 579 415 579 q 267 565 290 579 q 238 510 243 551 q 232 354 232 469 q 238 199 232 240 q 267 143 243 157 q 353 129 290 129 z "},"ớ":{"ha":704,"x_min":64,"x_max":739,"o":"m 739 839 l 739 800 q 729 708 739 740 q 690 660 719 676 q 601 639 661 643 q 633 536 625 600 q 640 354 640 472 q 624 123 640 194 q 547 20 607 51 q 353 -11 488 -11 q 157 20 217 -11 q 81 123 97 51 q 64 354 64 194 q 81 587 64 515 q 157 689 97 658 q 353 719 217 719 q 490 708 442 719 l 538 708 q 596 715 576 708 q 622 735 615 721 q 628 779 628 750 l 628 839 l 739 839 m 353 129 q 438 143 414 129 q 467 199 461 157 q 472 354 472 240 q 467 510 472 469 q 438 565 461 551 q 353 579 415 579 q 267 565 290 579 q 238 510 243 551 q 232 354 232 469 q 238 199 232 240 q 267 143 243 157 q 353 129 290 129 m 278 832 l 278 839 l 382 1032 l 551 1032 l 551 1025 l 406 832 l 278 832 z "},"ợ":{"ha":704,"x_min":64,"x_max":739,"o":"m 739 839 l 739 800 q 729 708 739 740 q 690 660 719 676 q 601 639 661 643 q 633 536 625 600 q 640 354 640 472 q 624 123 640 194 q 547 20 607 51 q 353 -11 488 -11 q 157 20 217 -11 q 81 123 97 51 q 64 354 64 194 q 81 587 64 515 q 157 689 97 658 q 353 719 217 719 q 490 708 442 719 l 538 708 q 596 715 576 708 q 622 735 615 721 q 628 779 628 750 l 628 839 l 739 839 m 353 129 q 438 143 414 129 q 467 199 461 157 q 472 354 472 240 q 467 510 472 469 q 438 565 461 551 q 353 579 415 579 q 267 565 290 579 q 238 510 243 551 q 232 354 232 469 q 238 199 232 240 q 267 143 243 157 q 353 129 290 129 m 260 -260 l 260 -86 l 444 -86 l 444 -260 l 260 -260 z "},"ờ":{"ha":704,"x_min":64,"x_max":739,"o":"m 739 839 l 739 800 q 729 708 739 740 q 690 660 719 676 q 601 639 661 643 q 633 536 625 600 q 640 354 640 472 q 624 123 640 194 q 547 20 607 51 q 353 -11 488 -11 q 157 20 217 -11 q 81 123 97 51 q 64 354 64 194 q 81 587 64 515 q 157 689 97 658 q 353 719 217 719 q 490 708 442 719 l 538 708 q 596 715 576 708 q 622 735 615 721 q 628 779 628 750 l 628 839 l 739 839 m 353 129 q 438 143 414 129 q 467 199 461 157 q 472 354 472 240 q 467 510 472 469 q 438 565 461 551 q 353 579 415 579 q 267 565 290 579 q 238 510 243 551 q 232 354 232 469 q 238 199 232 240 q 267 143 243 157 q 353 129 290 129 m 294 832 l 149 1025 l 149 1032 l 318 1032 l 422 839 l 422 832 l 294 832 z "},"ở":{"ha":704,"x_min":64,"x_max":739,"o":"m 739 839 l 739 800 q 729 708 739 740 q 690 660 719 676 q 601 639 661 643 q 633 536 625 600 q 640 354 640 472 q 624 123 640 194 q 547 20 607 51 q 353 -11 488 -11 q 157 20 217 -11 q 81 123 97 51 q 64 354 64 194 q 81 587 64 515 q 157 689 97 658 q 353 719 217 719 q 490 708 442 719 l 538 708 q 596 715 576 708 q 622 735 615 721 q 628 779 628 750 l 628 839 l 739 839 m 353 129 q 438 143 414 129 q 467 199 461 157 q 472 354 472 240 q 467 510 472 469 q 438 565 461 551 q 353 579 415 579 q 267 565 290 579 q 238 510 243 551 q 232 354 232 469 q 238 199 232 240 q 267 143 243 157 q 353 129 290 129 m 267 864 q 279 920 267 904 q 328 949 292 936 l 351 957 q 394 976 383 967 q 404 1001 404 985 q 389 1031 404 1025 q 325 1038 374 1038 q 186 1029 250 1038 l 186 1122 q 342 1136 269 1136 q 476 1111 432 1136 q 519 1014 519 1086 q 503 944 519 967 q 440 903 486 921 l 414 893 q 374 873 381 881 q 367 846 367 865 l 267 846 l 267 864 z "},"ỡ":{"ha":704,"x_min":64,"x_max":739,"o":"m 739 839 l 739 800 q 729 708 739 740 q 690 660 719 676 q 601 639 661 643 q 633 536 625 600 q 640 354 640 472 q 624 123 640 194 q 547 20 607 51 q 353 -11 488 -11 q 157 20 217 -11 q 81 123 97 51 q 64 354 64 194 q 81 587 64 515 q 157 689 97 658 q 353 719 217 719 q 490 708 442 719 l 538 708 q 596 715 576 708 q 622 735 615 721 q 628 779 628 750 l 628 839 l 739 839 m 353 129 q 438 143 414 129 q 467 199 461 157 q 472 354 472 240 q 467 510 472 469 q 438 565 461 551 q 353 579 415 579 q 267 565 290 579 q 238 510 243 551 q 232 354 232 469 q 238 199 232 240 q 267 143 243 157 q 353 129 290 129 m 590 1032 q 584 928 590 964 q 555 874 578 893 q 482 854 532 854 q 417 861 450 854 q 339 881 385 868 q 294 892 326 883 q 242 901 263 901 q 213 890 218 901 q 208 839 208 878 l 114 839 q 120 942 114 907 q 150 997 126 978 q 224 1017 174 1017 q 368 990 274 1017 q 421 977 394 983 q 465 971 447 971 q 492 983 488 971 q 497 1032 497 994 l 590 1032 z "},"ő":{"ha":704,"x_min":64,"x_max":656,"o":"m 353 -11 q 157 20 217 -11 q 81 123 97 51 q 64 354 64 194 q 81 587 64 515 q 157 689 97 658 q 353 719 217 719 q 547 689 488 719 q 624 586 607 658 q 640 354 640 514 q 624 123 640 194 q 547 20 607 51 q 353 -11 488 -11 m 353 129 q 438 143 414 129 q 467 199 461 157 q 472 354 472 240 q 467 510 472 469 q 438 565 461 551 q 353 579 415 579 q 267 565 290 579 q 238 510 243 551 q 232 354 232 469 q 238 199 232 240 q 267 143 243 157 q 353 129 290 129 m 189 846 l 189 851 l 281 1019 l 422 1019 l 422 1013 l 294 846 l 189 846 m 422 846 l 422 851 l 515 1019 l 656 1019 l 656 1013 l 529 846 l 422 846 z "},"ȏ":{"ha":704,"x_min":64,"x_max":640,"o":"m 353 -11 q 157 20 217 -11 q 81 123 97 51 q 64 354 64 194 q 81 587 64 515 q 157 689 97 658 q 353 719 217 719 q 547 689 488 719 q 624 586 607 658 q 640 354 640 514 q 624 123 640 194 q 547 20 607 51 q 353 -11 488 -11 m 353 129 q 438 143 414 129 q 467 199 461 157 q 472 354 472 240 q 467 510 472 469 q 438 565 461 551 q 353 579 415 579 q 267 565 290 579 q 238 510 243 551 q 232 354 232 469 q 238 199 232 240 q 267 143 243 157 q 353 129 290 129 m 163 843 q 176 951 163 910 q 231 1016 189 992 q 354 1040 272 1040 q 477 1016 436 1040 q 531 951 518 992 q 543 843 543 910 l 442 843 q 438 901 442 882 q 415 931 433 919 q 354 942 396 942 q 294 931 313 942 q 270 900 275 919 q 265 843 265 881 l 163 843 z "},"ō":{"ha":704,"x_min":64,"x_max":640,"o":"m 353 -11 q 157 20 217 -11 q 81 123 97 51 q 64 354 64 194 q 81 587 64 515 q 157 689 97 658 q 353 719 217 719 q 547 689 488 719 q 624 586 607 658 q 640 354 640 514 q 624 123 640 194 q 547 20 607 51 q 353 -11 488 -11 m 353 129 q 438 143 414 129 q 467 199 461 157 q 472 354 472 240 q 467 510 472 469 q 438 565 461 551 q 353 579 415 579 q 267 565 290 579 q 238 510 243 551 q 232 354 232 469 q 238 199 232 240 q 267 143 243 157 q 353 129 290 129 m 192 883 l 192 1032 l 513 1032 l 513 883 l 192 883 z "},"ǫ":{"ha":704,"x_min":64,"x_max":640,"o":"m 353 719 q 547 689 488 719 q 624 586 607 658 q 640 354 640 514 q 626 133 640 204 q 561 29 611 63 q 494 -40 524 3 q 465 -124 465 -83 q 524 -175 465 -175 l 547 -174 l 547 -268 q 475 -272 510 -272 q 328 -160 328 -272 q 390 -11 328 -87 l 351 -11 q 157 20 217 -11 q 81 123 97 51 q 64 354 64 194 q 81 587 64 515 q 157 689 97 658 q 353 719 217 719 m 353 129 q 438 143 414 129 q 467 199 461 157 q 472 354 472 240 q 467 510 472 469 q 438 565 461 551 q 353 579 415 579 q 267 565 290 579 q 238 510 243 551 q 232 354 232 469 q 238 199 232 240 q 267 143 243 157 q 353 129 290 129 z "},"ø":{"ha":704,"x_min":64,"x_max":640,"o":"m 579 667 q 629 562 618 631 q 640 354 640 493 q 624 123 640 194 q 547 20 607 51 q 353 -11 488 -11 q 239 -4 292 -11 l 201 -76 l 65 -76 l 125 42 q 75 147 86 78 q 64 354 64 215 q 81 587 64 515 q 157 689 97 658 q 353 719 217 719 q 465 713 425 719 l 501 785 l 640 785 l 579 667 m 232 354 q 233 254 232 282 l 396 578 q 353 579 385 579 q 267 565 290 579 q 238 510 243 551 q 232 354 232 469 m 353 129 q 438 143 414 129 q 467 199 461 157 q 472 354 472 240 q 471 453 472 426 l 307 131 q 353 129 319 129 z "},"ǿ":{"ha":704,"x_min":64,"x_max":640,"o":"m 579 667 q 629 562 618 631 q 640 354 640 493 q 624 123 640 194 q 547 20 607 51 q 353 -11 488 -11 q 239 -4 292 -11 l 201 -76 l 65 -76 l 125 42 q 75 147 86 78 q 64 354 64 215 q 81 587 64 515 q 157 689 97 658 q 353 719 217 719 q 465 713 425 719 l 501 785 l 640 785 l 579 667 m 232 354 q 233 254 232 282 l 396 578 q 353 579 385 579 q 267 565 290 579 q 238 510 243 551 q 232 354 232 469 m 353 129 q 438 143 414 129 q 467 199 461 157 q 472 354 472 240 q 471 453 472 426 l 307 131 q 353 129 319 129 m 278 832 l 278 839 l 382 1032 l 551 1032 l 551 1025 l 406 832 l 278 832 z "},"õ":{"ha":704,"x_min":64,"x_max":640,"o":"m 353 -11 q 157 20 217 -11 q 81 123 97 51 q 64 354 64 194 q 81 587 64 515 q 157 689 97 658 q 353 719 217 719 q 547 689 488 719 q 624 586 607 658 q 640 354 640 514 q 624 123 640 194 q 547 20 607 51 q 353 -11 488 -11 m 353 129 q 438 143 414 129 q 467 199 461 157 q 472 354 472 240 q 467 510 472 469 q 438 565 461 551 q 353 579 415 579 q 267 565 290 579 q 238 510 243 551 q 232 354 232 469 q 238 199 232 240 q 267 143 243 157 q 353 129 290 129 m 592 1032 q 585 928 592 964 q 556 874 579 893 q 483 854 533 854 q 419 861 451 854 q 340 881 386 868 q 296 892 328 883 q 243 901 264 901 q 215 890 219 901 q 210 839 210 878 l 115 839 q 122 942 115 907 q 151 997 128 978 q 225 1017 175 1017 q 369 990 275 1017 q 422 977 396 983 q 467 971 449 971 q 494 983 489 971 q 499 1032 499 994 l 592 1032 z "},"œ":{"ha":1096,"x_min":64,"x_max":1029,"o":"m 1029 300 l 642 300 q 651 183 642 215 q 693 139 660 150 q 813 128 726 128 q 1007 139 904 128 l 1007 10 q 900 -6 965 0 q 775 -11 835 -11 q 645 2 697 -11 q 558 43 593 15 q 478 1 528 14 q 351 -11 428 -11 q 157 20 217 -11 q 81 123 97 51 q 64 354 64 194 q 81 586 64 514 q 157 689 97 658 q 351 719 217 719 q 478 706 428 719 q 558 664 528 693 q 763 719 622 719 q 945 683 889 719 q 1015 576 1001 647 q 1029 353 1029 504 l 1029 300 m 760 582 q 682 569 706 582 q 650 524 658 557 q 642 414 642 490 l 871 414 q 861 524 871 489 q 829 571 851 560 q 760 582 807 582 m 353 129 q 438 143 415 129 q 467 198 461 157 q 472 354 472 239 q 467 510 472 469 q 438 565 461 551 q 353 579 415 579 q 267 565 290 579 q 238 510 243 551 q 232 354 232 469 q 238 198 232 239 q 267 143 243 157 q 353 129 290 129 z "},"p":{"ha":719,"x_min":86,"x_max":654,"o":"m 86 708 l 242 708 l 247 619 l 257 619 q 328 698 281 676 q 439 719 376 719 q 567 688 521 719 q 633 577 613 656 q 654 356 654 499 q 634 135 654 214 q 569 23 614 57 q 443 -11 524 -11 q 333 9 378 -11 q 263 78 288 29 l 253 78 l 253 -272 l 86 -272 l 86 708 m 369 139 q 449 151 426 139 q 480 206 472 164 q 488 354 488 249 q 480 502 488 460 q 449 558 472 544 q 369 571 426 571 q 301 557 325 571 q 268 513 278 543 q 253 354 253 469 q 265 204 253 247 q 299 153 275 168 q 369 139 322 139 z "},"þ":{"ha":719,"x_min":86,"x_max":654,"o":"m 86 1032 l 253 1032 l 253 624 l 263 624 q 332 699 286 678 q 439 719 378 719 q 567 687 521 719 q 633 576 613 654 q 654 356 654 499 q 634 135 654 214 q 569 23 614 57 q 443 -11 524 -11 q 333 9 378 -11 q 263 78 288 29 l 253 78 l 253 -264 l 86 -264 l 86 1032 m 369 139 q 449 151 426 139 q 480 206 472 164 q 488 354 488 249 q 480 502 488 460 q 449 558 472 544 q 369 571 426 571 q 303 557 326 571 q 269 510 279 543 q 256 449 260 485 q 253 354 253 413 q 264 214 253 257 q 297 156 274 172 q 369 139 321 139 z "},"q":{"ha":719,"x_min":64,"x_max":632,"o":"m 465 78 l 457 78 q 386 9 431 29 q 275 -11 342 -11 q 149 22 194 -11 q 84 134 104 56 q 64 354 64 213 q 85 576 64 497 q 151 687 106 654 q 279 719 197 719 q 391 698 343 719 q 461 619 439 676 l 471 619 l 476 708 l 632 708 l 632 -272 l 465 -272 l 465 78 m 350 139 q 419 152 396 139 q 453 200 442 165 q 463 258 461 222 q 465 354 465 293 q 462 460 465 424 q 447 521 458 497 q 413 559 436 547 q 350 571 390 571 q 270 558 293 571 q 240 502 247 544 q 232 354 232 460 q 240 206 232 249 q 270 151 247 164 q 350 139 293 139 z "},"r":{"ha":485,"x_min":86,"x_max":457,"o":"m 86 708 l 242 708 l 247 586 l 258 586 q 328 690 281 661 q 457 719 376 719 l 457 551 q 334 528 378 551 q 272 451 290 504 q 253 306 253 399 l 253 0 l 86 0 l 86 708 z "},"ŕ":{"ha":485,"x_min":86,"x_max":457,"o":"m 86 708 l 242 708 l 247 586 l 258 586 q 328 690 281 661 q 457 719 376 719 l 457 551 q 334 528 378 551 q 272 451 290 504 q 253 306 253 399 l 253 0 l 86 0 l 86 708 m 168 832 l 168 839 l 272 1032 l 442 1032 l 442 1025 l 296 832 l 168 832 z "},"ř":{"ha":485,"x_min":39,"x_max":457,"o":"m 86 708 l 242 708 l 247 586 l 258 586 q 328 690 281 661 q 457 719 376 719 l 457 551 q 334 528 378 551 q 272 451 290 504 q 253 306 253 399 l 253 0 l 86 0 l 86 708 m 158 839 l 39 1022 l 39 1032 l 151 1032 l 242 918 l 333 1032 l 447 1032 l 447 1022 l 325 839 l 158 839 z "},"ŗ":{"ha":485,"x_min":75,"x_max":457,"o":"m 86 708 l 242 708 l 247 586 l 258 586 q 328 690 281 661 q 457 719 376 719 l 457 551 q 334 528 378 551 q 272 451 290 504 q 253 306 253 399 l 253 0 l 86 0 l 86 708 m 75 -329 q 141 -317 125 -329 q 157 -267 157 -304 l 157 -244 l 88 -244 l 88 -86 l 264 -86 l 264 -199 q 251 -327 264 -286 q 199 -385 239 -368 q 75 -401 160 -401 l 75 -329 z "},"ȑ":{"ha":485,"x_min":-42,"x_max":457,"o":"m 86 708 l 242 708 l 247 586 l 258 586 q 328 690 281 661 q 457 719 376 719 l 457 551 q 334 528 378 551 q 272 451 290 504 q 253 306 253 399 l 253 0 l 86 0 l 86 708 m 192 846 l 85 846 l -42 1013 l -42 1019 l 99 1019 l 192 851 l 192 846 m 425 846 l 319 846 l 192 1013 l 192 1019 l 333 1019 l 425 851 l 425 846 z "},"ṛ":{"ha":485,"x_min":76,"x_max":457,"o":"m 86 708 l 242 708 l 247 586 l 258 586 q 328 690 281 661 q 457 719 376 719 l 457 551 q 334 528 378 551 q 272 451 290 504 q 253 306 253 399 l 253 0 l 86 0 l 86 708 m 76 -260 l 76 -86 l 261 -86 l 261 -260 l 76 -260 z "},"ȓ":{"ha":485,"x_min":53,"x_max":457,"o":"m 86 708 l 242 708 l 247 586 l 258 586 q 328 690 281 661 q 457 719 376 719 l 457 551 q 334 528 378 551 q 272 451 290 504 q 253 306 253 399 l 253 0 l 86 0 l 86 708 m 53 843 q 66 951 53 910 q 121 1016 79 992 q 244 1040 163 1040 q 367 1016 326 1040 q 421 951 408 992 q 433 843 433 910 l 332 843 q 328 901 332 882 q 305 931 324 919 q 244 942 286 942 q 184 931 203 942 q 160 900 165 919 q 156 843 156 881 l 53 843 z "},"s":{"ha":608,"x_min":53,"x_max":556,"o":"m 311 -11 q 189 -6 256 -11 q 72 8 122 0 l 72 140 q 275 128 175 128 q 353 135 328 128 q 387 157 379 142 q 394 204 394 172 q 390 251 394 238 q 372 271 385 265 q 326 281 360 276 l 183 300 q 80 357 107 310 q 53 507 53 404 q 84 639 53 593 q 171 702 115 685 q 311 719 226 719 q 423 713 364 719 q 519 697 482 707 l 519 567 q 332 581 426 581 q 260 576 285 581 q 226 555 236 571 q 215 507 215 539 q 219 463 215 476 q 234 444 222 450 q 275 435 246 439 l 419 417 q 495 393 467 410 q 540 334 524 376 q 556 211 556 292 q 527 72 556 121 q 447 6 499 24 q 311 -11 394 -11 z "},"ś":{"ha":608,"x_min":53,"x_max":556,"o":"m 311 -11 q 189 -6 256 -11 q 72 8 122 0 l 72 140 q 275 128 175 128 q 353 135 328 128 q 387 157 379 142 q 394 204 394 172 q 390 251 394 238 q 372 271 385 265 q 326 281 360 276 l 183 300 q 80 357 107 310 q 53 507 53 404 q 84 639 53 593 q 171 702 115 685 q 311 719 226 719 q 423 713 364 719 q 519 697 482 707 l 519 567 q 332 581 426 581 q 260 576 285 581 q 226 555 236 571 q 215 507 215 539 q 219 463 215 476 q 234 444 222 450 q 275 435 246 439 l 419 417 q 495 393 467 410 q 540 334 524 376 q 556 211 556 292 q 527 72 556 121 q 447 6 499 24 q 311 -11 394 -11 m 229 832 l 229 839 l 333 1032 l 503 1032 l 503 1025 l 357 832 l 229 832 z "},"ꞌ":{"ha":236,"x_min":39,"x_max":196,"o":"m 39 379 l 39 1032 l 196 1032 l 196 717 l 157 379 l 39 379 z "},"š":{"ha":608,"x_min":53,"x_max":556,"o":"m 311 -11 q 189 -6 256 -11 q 72 8 122 0 l 72 140 q 275 128 175 128 q 353 135 328 128 q 387 157 379 142 q 394 204 394 172 q 390 251 394 238 q 372 271 385 265 q 326 281 360 276 l 183 300 q 80 357 107 310 q 53 507 53 404 q 84 639 53 593 q 171 702 115 685 q 311 719 226 719 q 423 713 364 719 q 519 697 482 707 l 519 567 q 332 581 426 581 q 260 576 285 581 q 226 555 236 571 q 215 507 215 539 q 219 463 215 476 q 234 444 222 450 q 275 435 246 439 l 419 417 q 495 393 467 410 q 540 334 524 376 q 556 211 556 292 q 527 72 556 121 q 447 6 499 24 q 311 -11 394 -11 m 225 839 l 106 1022 l 106 1032 l 218 1032 l 308 918 l 400 1032 l 514 1032 l 514 1022 l 392 839 l 225 839 z "},"ş":{"ha":608,"x_min":53,"x_max":556,"o":"m 556 211 q 508 45 556 93 q 360 -10 460 -3 l 311 -264 l 157 -264 l 157 -257 l 243 -10 q 72 8 129 -1 l 72 140 q 275 128 175 128 q 353 135 328 128 q 387 157 379 142 q 394 204 394 172 q 390 251 394 238 q 372 271 385 265 q 326 281 360 276 l 183 300 q 80 357 107 310 q 53 507 53 404 q 84 639 53 593 q 171 702 115 685 q 311 719 226 719 q 423 713 364 719 q 519 697 482 707 l 519 567 q 332 581 426 581 q 260 576 285 581 q 226 555 236 571 q 215 507 215 539 q 219 463 215 476 q 234 444 222 450 q 275 435 246 439 l 419 417 q 495 393 467 410 q 540 334 524 376 q 556 211 556 292 z "},"ŝ":{"ha":608,"x_min":53,"x_max":556,"o":"m 311 -11 q 189 -6 256 -11 q 72 8 122 0 l 72 140 q 275 128 175 128 q 353 135 328 128 q 387 157 379 142 q 394 204 394 172 q 390 251 394 238 q 372 271 385 265 q 326 281 360 276 l 183 300 q 80 357 107 310 q 53 507 53 404 q 84 639 53 593 q 171 702 115 685 q 311 719 226 719 q 423 713 364 719 q 519 697 482 707 l 519 567 q 332 581 426 581 q 260 576 285 581 q 226 555 236 571 q 215 507 215 539 q 219 463 215 476 q 234 444 222 450 q 275 435 246 439 l 419 417 q 495 393 467 410 q 540 334 524 376 q 556 211 556 292 q 527 72 556 121 q 447 6 499 24 q 311 -11 394 -11 m 100 839 l 100 850 l 219 1032 l 388 1032 l 508 850 l 508 839 l 394 839 l 303 954 l 213 839 l 100 839 z "},"ș":{"ha":608,"x_min":53,"x_max":556,"o":"m 311 -11 q 189 -6 256 -11 q 72 8 122 0 l 72 140 q 275 128 175 128 q 353 135 328 128 q 387 157 379 142 q 394 204 394 172 q 390 251 394 238 q 372 271 385 265 q 326 281 360 276 l 183 300 q 80 357 107 310 q 53 507 53 404 q 84 639 53 593 q 171 702 115 685 q 311 719 226 719 q 423 713 364 719 q 519 697 482 707 l 519 567 q 332 581 426 581 q 260 576 285 581 q 226 555 236 571 q 215 507 215 539 q 219 463 215 476 q 234 444 222 450 q 275 435 246 439 l 419 417 q 495 393 467 410 q 540 334 524 376 q 556 211 556 292 q 527 72 556 121 q 447 6 499 24 q 311 -11 394 -11 m 210 -329 q 276 -317 260 -329 q 292 -267 292 -304 l 292 -244 l 222 -244 l 222 -86 l 399 -86 l 399 -199 q 386 -327 399 -286 q 334 -385 374 -368 q 210 -401 294 -401 l 210 -329 z "},"ṣ":{"ha":608,"x_min":53,"x_max":556,"o":"m 311 -11 q 189 -6 256 -11 q 72 8 122 0 l 72 140 q 275 128 175 128 q 353 135 328 128 q 387 157 379 142 q 394 204 394 172 q 390 251 394 238 q 372 271 385 265 q 326 281 360 276 l 183 300 q 80 357 107 310 q 53 507 53 404 q 84 639 53 593 q 171 702 115 685 q 311 719 226 719 q 423 713 364 719 q 519 697 482 707 l 519 567 q 332 581 426 581 q 260 576 285 581 q 226 555 236 571 q 215 507 215 539 q 219 463 215 476 q 234 444 222 450 q 275 435 246 439 l 419 417 q 495 393 467 410 q 540 334 524 376 q 556 211 556 292 q 527 72 556 121 q 447 6 499 24 q 311 -11 394 -11 m 211 -260 l 211 -86 l 396 -86 l 396 -260 l 211 -260 z "},"ß":{"ha":740,"x_min":86,"x_max":675,"o":"m 340 0 l 340 139 l 379 139 q 467 149 443 139 q 499 199 490 160 q 507 340 507 239 q 497 465 507 426 q 461 516 486 504 q 382 528 436 528 l 357 528 l 357 668 l 382 668 q 455 678 431 668 q 488 711 479 688 q 497 781 497 735 q 486 859 497 833 q 449 894 475 885 q 374 903 424 903 q 301 892 326 903 q 265 849 276 882 q 253 749 253 817 l 253 0 l 86 0 l 86 763 q 113 922 86 861 q 204 1012 140 982 q 378 1042 268 1042 q 551 1015 489 1042 q 639 937 614 989 q 664 803 664 885 q 629 667 664 714 q 519 607 594 621 l 519 601 q 638 525 600 585 q 675 333 675 465 q 655 138 675 207 q 576 34 635 68 q 401 0 517 0 l 340 0 z "},"ſ":{"ha":467,"x_min":28,"x_max":458,"o":"m 142 568 l 28 568 l 28 708 l 142 708 l 142 772 q 168 949 142 896 q 256 1016 194 1001 q 458 1031 317 1031 l 458 906 q 360 899 389 906 q 320 873 331 893 q 310 804 310 853 l 310 0 l 142 0 l 142 568 z "},"t":{"ha":475,"x_min":26,"x_max":447,"o":"m 142 0 l 142 568 l 26 568 l 26 708 l 142 708 l 142 914 l 308 914 l 308 708 l 447 708 l 447 568 l 308 568 l 308 0 l 142 0 z "},"ŧ":{"ha":475,"x_min":26,"x_max":449,"o":"m 449 406 l 449 268 l 308 268 l 308 0 l 142 0 l 142 268 l 28 268 l 28 406 l 142 406 l 142 568 l 26 568 l 26 708 l 142 708 l 142 914 l 308 914 l 308 708 l 447 708 l 447 568 l 308 568 l 308 406 l 449 406 z "},"ť":{"ha":575,"x_min":26,"x_max":669,"o":"m 142 0 l 142 568 l 26 568 l 26 708 l 142 708 l 142 914 l 308 914 l 308 708 l 447 708 l 447 568 l 308 568 l 308 0 l 142 0 m 490 601 l 513 871 l 513 956 l 669 956 l 669 871 l 608 601 l 490 601 z "},"ţ":{"ha":475,"x_min":26,"x_max":447,"o":"m 308 708 l 447 708 l 447 568 l 308 568 l 308 0 l 282 0 l 232 -264 l 78 -264 l 78 -257 l 167 0 l 142 0 l 142 568 l 26 568 l 26 708 l 142 708 l 142 914 l 308 914 l 308 708 z "},"ț":{"ha":475,"x_min":26,"x_max":447,"o":"m 142 0 l 142 568 l 26 568 l 26 708 l 142 708 l 142 914 l 308 914 l 308 708 l 447 708 l 447 568 l 308 568 l 308 0 l 142 0 m 131 -329 q 197 -317 181 -329 q 213 -267 213 -304 l 213 -244 l 143 -244 l 143 -86 l 319 -86 l 319 -199 q 307 -327 319 -286 q 255 -385 294 -368 q 131 -401 215 -401 l 131 -329 z "},"ṭ":{"ha":475,"x_min":26,"x_max":447,"o":"m 142 0 l 142 568 l 26 568 l 26 708 l 142 708 l 142 914 l 308 914 l 308 708 l 447 708 l 447 568 l 308 568 l 308 0 l 142 0 m 132 -260 l 132 -86 l 317 -86 l 317 -260 l 132 -260 z "},"u":{"ha":728,"x_min":86,"x_max":642,"o":"m 481 89 l 471 89 q 401 13 449 38 q 281 -11 354 -11 q 157 17 199 -11 q 101 102 115 46 q 86 256 86 158 l 86 708 l 253 708 l 253 326 q 259 197 253 233 q 286 150 265 161 q 358 139 307 139 q 435 158 411 139 q 467 217 460 176 q 475 342 475 258 l 475 708 l 642 708 l 642 0 l 486 0 l 481 89 z "},"ú":{"ha":728,"x_min":86,"x_max":642,"o":"m 481 89 l 471 89 q 401 13 449 38 q 281 -11 354 -11 q 157 17 199 -11 q 101 102 115 46 q 86 256 86 158 l 86 708 l 253 708 l 253 326 q 259 197 253 233 q 286 150 265 161 q 358 139 307 139 q 435 158 411 139 q 467 217 460 176 q 475 342 475 258 l 475 708 l 642 708 l 642 0 l 486 0 l 481 89 m 299 832 l 299 839 l 403 1032 l 572 1032 l 572 1025 l 426 832 l 299 832 z "},"ŭ":{"ha":728,"x_min":86,"x_max":642,"o":"m 481 89 l 471 89 q 401 13 449 38 q 281 -11 354 -11 q 157 17 199 -11 q 101 102 115 46 q 86 256 86 158 l 86 708 l 253 708 l 253 326 q 259 197 253 233 q 286 150 265 161 q 358 139 307 139 q 435 158 411 139 q 467 217 460 176 q 475 342 475 258 l 475 708 l 642 708 l 642 0 l 486 0 l 481 89 m 554 1032 q 541 924 554 965 q 486 859 528 883 q 363 835 444 835 q 240 859 281 835 q 186 924 199 883 q 174 1032 174 965 l 275 1032 q 279 974 275 993 q 302 944 283 956 q 363 933 321 933 q 423 944 404 933 q 447 975 442 956 q 451 1032 451 994 l 554 1032 z "},"ǔ":{"ha":728,"x_min":86,"x_max":642,"o":"m 481 89 l 471 89 q 401 13 449 38 q 281 -11 354 -11 q 157 17 199 -11 q 101 102 115 46 q 86 256 86 158 l 86 708 l 253 708 l 253 326 q 259 197 253 233 q 286 150 265 161 q 358 139 307 139 q 435 158 411 139 q 467 217 460 176 q 475 342 475 258 l 475 708 l 642 708 l 642 0 l 486 0 l 481 89 m 279 839 l 160 1022 l 160 1032 l 272 1032 l 363 918 l 454 1032 l 568 1032 l 568 1022 l 446 839 l 279 839 z "},"û":{"ha":728,"x_min":86,"x_max":642,"o":"m 481 89 l 471 89 q 401 13 449 38 q 281 -11 354 -11 q 157 17 199 -11 q 101 102 115 46 q 86 256 86 158 l 86 708 l 253 708 l 253 326 q 259 197 253 233 q 286 150 265 161 q 358 139 307 139 q 435 158 411 139 q 467 217 460 176 q 475 342 475 258 l 475 708 l 642 708 l 642 0 l 486 0 l 481 89 m 158 839 l 158 850 l 278 1032 l 446 1032 l 567 850 l 567 839 l 453 839 l 361 954 l 271 839 l 158 839 z "},"ȕ":{"ha":728,"x_min":79,"x_max":642,"o":"m 481 89 l 471 89 q 401 13 449 38 q 281 -11 354 -11 q 157 17 199 -11 q 101 102 115 46 q 86 256 86 158 l 86 708 l 253 708 l 253 326 q 259 197 253 233 q 286 150 265 161 q 358 139 307 139 q 435 158 411 139 q 467 217 460 176 q 475 342 475 258 l 475 708 l 642 708 l 642 0 l 486 0 l 481 89 m 313 846 l 206 846 l 79 1013 l 79 1019 l 219 1019 l 313 851 l 313 846 m 546 846 l 440 846 l 313 1013 l 313 1019 l 454 1019 l 546 851 l 546 846 z "},"ü":{"ha":728,"x_min":86,"x_max":642,"o":"m 481 89 l 471 89 q 401 13 449 38 q 281 -11 354 -11 q 157 17 199 -11 q 101 102 115 46 q 86 256 86 158 l 86 708 l 253 708 l 253 326 q 259 197 253 233 q 286 150 265 161 q 358 139 307 139 q 435 158 411 139 q 467 217 460 176 q 475 342 475 258 l 475 708 l 642 708 l 642 0 l 486 0 l 481 89 m 160 874 l 160 1010 l 306 1010 l 306 874 l 160 874 m 419 874 l 419 1010 l 564 1010 l 564 874 l 419 874 z "},"ǘ":{"ha":728,"x_min":86,"x_max":642,"o":"m 481 89 l 471 89 q 401 13 449 38 q 281 -11 354 -11 q 157 17 199 -11 q 101 102 115 46 q 86 256 86 158 l 86 708 l 253 708 l 253 326 q 259 197 253 233 q 286 150 265 161 q 358 139 307 139 q 435 158 411 139 q 467 217 460 176 q 475 342 475 258 l 475 708 l 642 708 l 642 0 l 486 0 l 481 89 m 161 878 l 161 1014 l 307 1014 l 307 878 l 161 878 m 421 878 l 421 1014 l 565 1014 l 565 878 l 421 878 m 292 1054 l 292 1061 l 396 1254 l 565 1254 l 565 1247 l 419 1054 l 292 1054 z "},"ǚ":{"ha":728,"x_min":86,"x_max":642,"o":"m 481 89 l 471 89 q 401 13 449 38 q 281 -11 354 -11 q 157 17 199 -11 q 101 102 115 46 q 86 256 86 158 l 86 708 l 253 708 l 253 326 q 259 197 253 233 q 286 150 265 161 q 358 139 307 139 q 435 158 411 139 q 467 217 460 176 q 475 342 475 258 l 475 708 l 642 708 l 642 0 l 486 0 l 481 89 m 161 878 l 161 1014 l 307 1014 l 307 878 l 161 878 m 421 878 l 421 1014 l 565 1014 l 565 878 l 421 878 m 282 1061 l 163 1244 l 163 1254 l 275 1254 l 365 1140 l 457 1254 l 571 1254 l 571 1244 l 449 1061 l 282 1061 z "},"ǜ":{"ha":728,"x_min":86,"x_max":642,"o":"m 481 89 l 471 89 q 401 13 449 38 q 281 -11 354 -11 q 157 17 199 -11 q 101 102 115 46 q 86 256 86 158 l 86 708 l 253 708 l 253 326 q 259 197 253 233 q 286 150 265 161 q 358 139 307 139 q 435 158 411 139 q 467 217 460 176 q 475 342 475 258 l 475 708 l 642 708 l 642 0 l 486 0 l 481 89 m 161 878 l 161 1014 l 307 1014 l 307 878 l 161 878 m 421 878 l 421 1014 l 565 1014 l 565 878 l 421 878 m 308 1054 l 163 1247 l 163 1254 l 332 1254 l 436 1061 l 436 1054 l 308 1054 z "},"ǖ":{"ha":728,"x_min":86,"x_max":642,"o":"m 481 89 l 471 89 q 401 13 449 38 q 281 -11 354 -11 q 157 17 199 -11 q 101 102 115 46 q 86 256 86 158 l 86 708 l 253 708 l 253 326 q 259 197 253 233 q 286 150 265 161 q 358 139 307 139 q 435 158 411 139 q 467 217 460 176 q 475 342 475 258 l 475 708 l 642 708 l 642 0 l 486 0 l 481 89 m 161 878 l 161 1014 l 307 1014 l 307 878 l 161 878 m 421 878 l 421 1014 l 565 1014 l 565 878 l 421 878 m 206 1106 l 206 1254 l 526 1254 l 526 1106 l 206 1106 z "},"ụ":{"ha":728,"x_min":86,"x_max":642,"o":"m 481 89 l 471 89 q 401 13 449 38 q 281 -11 354 -11 q 157 17 199 -11 q 101 102 115 46 q 86 256 86 158 l 86 708 l 253 708 l 253 326 q 259 197 253 233 q 286 150 265 161 q 358 139 307 139 q 435 158 411 139 q 467 217 460 176 q 475 342 475 258 l 475 708 l 642 708 l 642 0 l 486 0 l 481 89 m 244 -260 l 244 -86 l 429 -86 l 429 -260 l 244 -260 z "},"ù":{"ha":728,"x_min":86,"x_max":642,"o":"m 481 89 l 471 89 q 401 13 449 38 q 281 -11 354 -11 q 157 17 199 -11 q 101 102 115 46 q 86 256 86 158 l 86 708 l 253 708 l 253 326 q 259 197 253 233 q 286 150 265 161 q 358 139 307 139 q 435 158 411 139 q 467 217 460 176 q 475 342 475 258 l 475 708 l 642 708 l 642 0 l 486 0 l 481 89 m 311 832 l 165 1025 l 165 1032 l 335 1032 l 439 839 l 439 832 l 311 832 z "},"ủ":{"ha":728,"x_min":86,"x_max":642,"o":"m 481 89 l 471 89 q 401 13 449 38 q 281 -11 354 -11 q 157 17 199 -11 q 101 102 115 46 q 86 256 86 158 l 86 708 l 253 708 l 253 326 q 259 197 253 233 q 286 150 265 161 q 358 139 307 139 q 435 158 411 139 q 467 217 460 176 q 475 342 475 258 l 475 708 l 642 708 l 642 0 l 486 0 l 481 89 m 278 864 q 290 920 278 904 q 339 949 303 936 l 363 957 q 405 976 394 967 q 415 1001 415 985 q 400 1031 415 1025 q 336 1038 385 1038 q 197 1029 261 1038 l 197 1122 q 353 1136 281 1136 q 487 1111 443 1136 q 531 1014 531 1086 q 514 944 531 967 q 451 903 497 921 l 425 893 q 385 873 392 881 q 378 846 378 865 l 278 846 l 278 864 z "},"ư":{"ha":728,"x_min":86,"x_max":763,"o":"m 763 839 l 763 800 q 753 712 763 743 q 719 664 744 681 q 642 642 693 647 l 642 0 l 486 0 l 481 89 l 471 89 q 401 13 449 38 q 281 -11 354 -11 q 157 17 199 -11 q 101 102 115 46 q 86 256 86 158 l 86 708 l 253 708 l 253 326 q 259 197 253 233 q 286 150 265 161 q 358 139 307 139 q 435 158 411 139 q 467 217 460 176 q 475 342 475 258 l 475 708 l 561 708 q 619 715 600 708 q 645 735 639 721 q 651 779 651 750 l 651 839 l 763 839 z "}}}
